{"glyphs":{"0":{"ha":764,"x_min":69,"x_max":693,"o":"m 384 806 q 615 691 536 806 q 693 396 693 576 q 614 102 693 219 q 384 -14 535 -14 q 150 102 231 -14 q 69 396 69 219 q 150 689 69 573 q 384 806 231 806 m 382 78 q 540 170 491 78 q 589 396 589 262 q 540 622 589 530 q 382 714 491 714 q 224 622 273 714 q 175 396 175 530 q 224 170 175 262 q 382 78 273 78 z "},"1":{"ha":469,"x_min":35,"x_max":434,"o":"m 434 87 l 434 0 l 47 0 l 47 87 l 196 87 l 196 694 l 73 646 l 35 729 l 182 792 l 299 792 l 299 87 l 434 87 z "},"2":{"ha":620,"x_min":52,"x_max":557,"o":"m 52 729 q 176 787 122 767 q 314 807 231 807 q 426 782 372 807 q 516 704 481 757 q 552 576 552 651 q 508 415 552 486 q 361 238 464 344 l 226 95 l 557 95 l 557 0 l 71 0 l 71 75 q 260 280 158 174 q 340 365 333 356 q 429 484 408 443 q 450 576 450 526 q 410 672 450 637 q 299 707 370 707 q 207 694 245 707 q 138 663 170 681 q 90 639 106 646 l 52 729 z "},"3":{"ha":672,"x_min":52,"x_max":602,"o":"m 314 809 q 494 756 427 809 q 561 602 561 703 q 527 489 561 540 q 443 410 493 438 q 560 341 517 387 q 602 215 602 295 q 526 50 602 109 q 323 -9 450 -9 q 187 8 247 -9 q 52 59 127 24 l 89 158 q 210 110 158 127 q 314 94 262 94 q 491 220 491 94 q 429 326 491 295 q 241 356 366 356 l 227 356 l 227 453 q 453 594 453 462 q 418 682 453 658 q 314 707 382 707 q 219 693 266 707 q 102 648 172 679 l 66 740 q 194 793 137 776 q 314 809 252 809 z "},"4":{"ha":689,"x_min":35,"x_max":667,"o":"m 667 286 l 667 189 l 530 189 l 530 -2 l 427 -2 l 427 189 l 35 189 l 35 267 l 385 792 l 530 792 l 530 286 l 667 286 m 165 286 l 427 286 l 427 684 l 165 286 z "},"5":{"ha":637,"x_min":52,"x_max":585,"o":"m 252 415 q 113 403 198 415 l 87 411 l 87 792 l 538 792 l 538 700 l 191 700 l 191 505 q 293 510 234 510 q 510 438 434 510 q 585 253 585 366 q 494 50 585 113 q 264 -12 403 -12 q 161 -2 217 -12 q 52 26 104 9 l 80 125 q 262 90 191 90 q 426 129 372 90 q 481 252 481 168 q 428 377 481 339 q 252 415 375 415 z "},"6":{"ha":668,"x_min":61,"x_max":620,"o":"m 365 493 q 546 430 472 493 q 620 247 620 366 q 552 63 620 139 q 356 -12 484 -12 q 134 88 207 -12 q 61 342 61 188 q 182 677 61 564 q 523 790 304 790 l 533 694 q 273 630 363 701 q 170 441 184 559 q 365 493 248 493 m 358 89 q 477 133 436 89 q 517 245 517 177 q 358 392 517 392 q 247 374 290 392 q 161 321 205 356 q 219 149 167 210 q 358 89 271 89 z "},"7":{"ha":592,"x_min":35,"x_max":557,"o":"m 264 0 l 158 0 l 438 696 l 35 696 l 35 793 l 557 793 l 557 724 l 264 0 z "},"8":{"ha":660,"x_min":56,"x_max":604,"o":"m 330 807 q 499 759 436 807 q 563 622 563 710 q 531 520 563 563 q 453 438 500 477 q 566 347 524 405 q 604 224 604 293 q 530 49 604 118 q 333 -19 457 -19 q 188 10 247 -19 q 90 94 130 40 q 56 215 56 144 q 100 346 56 288 q 207 434 144 405 q 151 483 170 464 q 115 538 132 502 q 97 625 97 575 q 165 756 97 705 q 330 807 233 807 m 325 710 q 240 682 276 710 q 203 615 203 655 q 234 536 203 568 q 332 469 264 503 q 419 533 384 498 q 455 613 455 568 q 417 686 455 661 q 325 710 378 710 m 333 83 q 453 121 406 83 q 500 215 500 158 q 474 308 500 273 q 385 372 448 344 q 326 389 358 384 q 207 328 255 370 q 158 222 158 286 q 207 123 158 163 q 333 83 255 83 z "},"9":{"ha":672,"x_min":61,"x_max":613,"o":"m 326 790 q 544 688 476 790 q 613 418 613 587 q 498 96 613 205 q 160 -12 384 -12 l 149 83 q 403 146 318 78 q 507 332 488 214 q 318 285 425 285 q 135 348 210 285 q 61 533 61 411 q 129 714 61 639 q 326 790 198 790 m 160 535 q 325 385 160 385 q 431 402 389 385 q 512 450 472 418 q 461 628 510 566 q 325 689 411 689 q 203 645 247 689 q 160 535 160 601 z "}," ":{"ha":382,"x_min":0,"x_max":0,"o":""},"A":{"ha":847,"x_min":28,"x_max":821,"o":"m 354 955 l 28 0 l 148 0 l 238 280 l 602 280 l 693 0 l 821 0 l 493 955 l 354 955 m 271 378 l 418 835 l 569 378 l 271 378 z "},"Á":{"ha":847,"x_min":28,"x_max":821,"o":"m 28 0 m 354 955 l 28 0 l 148 0 l 238 280 l 602 280 l 693 0 l 821 0 l 493 955 l 354 955 m 271 378 l 418 835 l 569 378 l 271 378 m 297 1017 l 259 1089 l 547 1224 l 594 1132 l 297 1017 z "},"Ă":{"ha":847,"x_min":28,"x_max":821,"o":"m 28 0 m 354 955 l 28 0 l 148 0 l 238 280 l 602 280 l 693 0 l 821 0 l 493 955 l 354 955 m 271 378 l 418 835 l 569 378 l 271 378 m 425 1038 q 217 1167 299 1038 l 281 1212 q 351 1144 318 1167 q 425 1122 384 1122 q 498 1144 465 1122 q 568 1212 531 1167 l 634 1167 q 425 1038 552 1038 z "},"Â":{"ha":847,"x_min":28,"x_max":821,"o":"m 28 0 m 354 955 l 28 0 l 148 0 l 238 280 l 602 280 l 693 0 l 821 0 l 493 955 l 354 955 m 271 378 l 418 835 l 569 378 l 271 378 m 582 1028 l 425 1139 l 269 1028 l 212 1090 l 425 1250 l 637 1090 l 582 1028 z "},"Ä":{"ha":847,"x_min":28,"x_max":821,"o":"m 28 0 m 354 955 l 28 0 l 148 0 l 238 280 l 602 280 l 693 0 l 821 0 l 493 955 l 354 955 m 271 378 l 418 835 l 569 378 l 271 378 m 285 1068 q 240 1087 259 1068 q 220 1132 220 1106 q 240 1177 220 1158 q 285 1196 259 1196 q 330 1177 311 1196 q 349 1132 349 1158 q 330 1087 349 1106 q 285 1068 311 1068 m 559 1068 q 514 1087 533 1068 q 495 1132 495 1106 q 514 1177 495 1158 q 559 1196 533 1196 q 604 1177 585 1196 q 623 1132 623 1158 q 604 1087 623 1106 q 559 1068 585 1068 z "},"À":{"ha":847,"x_min":28,"x_max":821,"o":"m 28 0 m 354 955 l 28 0 l 148 0 l 238 280 l 602 280 l 693 0 l 821 0 l 493 955 l 354 955 m 271 378 l 418 835 l 569 378 l 271 378 m 601 1089 l 564 1017 l 269 1132 l 313 1224 l 601 1089 z "},"Ā":{"ha":847,"x_min":28,"x_max":821,"o":"m 28 0 m 354 955 l 28 0 l 148 0 l 238 280 l 602 280 l 693 0 l 821 0 l 493 955 l 354 955 m 271 378 l 418 835 l 569 378 l 271 378 m 627 1071 l 212 1071 l 212 1158 l 627 1158 l 627 1071 z "},"Ą":{"ha":856,"x_min":28,"x_max":833,"o":"m 231 280 l 135 0 l 28 0 l 368 955 l 498 955 l 830 17 l 712 -66 q 616 -205 616 -139 q 635 -259 616 -241 q 686 -276 655 -276 q 799 -236 733 -276 l 833 -299 q 744 -347 790 -330 q 656 -365 698 -365 q 557 -327 595 -365 q 519 -224 519 -290 q 558 -108 519 -165 q 661 -7 597 -50 l 712 28 l 625 280 l 231 280 m 589 378 l 429 844 l 266 378 l 589 378 z "},"Å":{"ha":866,"x_min":28,"x_max":839,"o":"m 252 1089 q 304 1211 252 1160 q 431 1262 356 1262 q 556 1211 503 1262 q 609 1089 609 1160 q 581 997 609 1038 q 507 934 552 955 l 839 0 l 722 0 l 625 280 l 231 280 l 135 0 l 28 0 l 359 931 q 281 995 311 951 q 252 1089 252 1038 m 530 1092 q 499 1159 530 1130 q 429 1188 469 1188 q 357 1160 384 1188 q 330 1089 330 1132 q 357 1018 330 1047 q 427 990 384 990 q 500 1020 470 990 q 530 1092 530 1050 m 589 378 l 429 844 l 266 378 l 589 378 z "},"Ã":{"ha":847,"x_min":28,"x_max":821,"o":"m 28 0 m 354 955 l 28 0 l 148 0 l 238 280 l 602 280 l 693 0 l 821 0 l 493 955 l 354 955 m 271 378 l 418 835 l 569 378 l 271 378 m 340 1193 q 386 1181 365 1193 q 439 1148 408 1170 q 505 1115 486 1115 q 554 1134 538 1115 q 580 1193 569 1153 l 660 1168 q 608 1069 648 1106 q 509 1031 568 1031 q 451 1044 477 1031 q 399 1078 425 1057 q 374 1094 392 1082 q 342 1106 356 1106 q 299 1088 314 1106 q 273 1030 285 1069 l 194 1054 q 247 1155 208 1118 q 340 1193 285 1193 z "},"Æ":{"ha":1189,"x_min":28,"x_max":1101,"o":"m 684 858 l 684 543 l 1064 543 l 1064 444 l 684 444 l 684 101 l 1101 101 l 1101 0 l 578 0 l 578 280 l 245 280 l 139 0 l 28 0 l 401 955 l 1101 955 l 1101 858 l 684 858 m 469 858 l 285 378 l 578 378 l 578 858 l 469 858 z "},"B":{"ha":865,"x_min":116,"x_max":797,"o":"m 592 524 q 684 609 651 554 q 717 727 717 665 q 649 894 717 835 q 453 955 582 955 l 116 955 l 116 0 l 427 0 q 592 23 517 0 q 715 87 667 45 q 778 179 759 125 q 797 290 797 233 q 736 448 797 378 q 592 524 679 510 m 608 720 q 359 557 608 557 l 231 557 l 231 856 l 415 856 q 558 825 509 856 q 608 720 608 793 m 682 280 q 611 142 682 188 q 444 101 550 101 l 231 101 l 231 462 l 398 462 q 589 429 517 462 q 682 280 682 385 z "},"C":{"ha":899,"x_min":76,"x_max":849,"o":"m 839 918 q 707 957 748 948 q 547 969 644 969 q 351 929 451 969 q 201 830 264 894 q 109 681 142 771 q 76 479 76 592 q 207 123 76 259 q 361 23 269 61 q 563 -16 453 -16 q 849 47 722 -16 l 821 137 q 597 90 698 90 q 384 141 476 90 q 252 277 300 189 q 203 481 203 365 q 246 688 203 601 q 368 823 288 776 q 580 865 444 865 q 695 855 648 865 q 806 825 743 845 l 839 918 z "},"Ć":{"ha":899,"x_min":76,"x_max":849,"o":"m 76 0 m 839 918 q 707 957 748 948 q 547 969 644 969 q 351 929 451 969 q 201 830 264 894 q 109 681 142 771 q 76 479 76 592 q 207 123 76 259 q 361 23 269 61 q 563 -16 453 -16 q 849 47 722 -16 l 821 137 q 597 90 698 90 q 384 141 476 90 q 252 277 300 189 q 203 481 203 365 q 246 688 203 601 q 368 823 288 776 q 580 865 444 865 q 695 855 648 865 q 806 825 743 845 l 839 918 m 420 1017 l 382 1089 l 670 1224 l 717 1132 l 420 1017 z "},"Č":{"ha":899,"x_min":76,"x_max":849,"o":"m 76 0 m 839 918 q 707 957 748 948 q 547 969 644 969 q 351 929 451 969 q 201 830 264 894 q 109 681 142 771 q 76 479 76 592 q 207 123 76 259 q 361 23 269 61 q 563 -16 453 -16 q 849 47 722 -16 l 821 137 q 597 90 698 90 q 384 141 476 90 q 252 277 300 189 q 203 481 203 365 q 246 688 203 601 q 368 823 288 776 q 580 865 444 865 q 695 855 648 865 q 806 825 743 845 l 839 918 m 333 1186 l 391 1250 l 547 1137 l 703 1250 l 759 1186 l 547 1028 l 333 1186 z "},"Ç":{"ha":896,"x_min":76,"x_max":844,"o":"m 503 -299 q 549 -286 531 -299 q 566 -247 566 -273 q 548 -207 566 -220 q 493 -184 530 -193 l 380 -158 l 417 3 q 207 123 299 31 q 76 479 76 259 q 114 678 76 587 q 210 830 151 769 q 356 930 267 891 q 545 969 444 969 q 699 957 637 969 q 832 918 760 946 l 802 825 q 688 857 731 849 q 566 865 644 865 q 420 833 490 865 q 307 755 351 802 q 207 481 207 644 q 256 276 207 363 q 391 141 306 189 q 590 90 477 90 q 816 137 698 90 l 844 47 q 556 -16 719 -16 q 517 -14 531 -16 l 500 -90 l 521 -95 q 626 -147 585 -115 q 667 -252 667 -179 q 621 -352 667 -311 q 507 -392 575 -392 q 431 -385 467 -392 q 328 -358 396 -377 l 356 -266 l 377 -273 q 503 -299 476 -299 z "},"Ĉ":{"ha":899,"x_min":76,"x_max":849,"o":"m 76 0 m 839 918 q 707 957 748 948 q 547 969 644 969 q 351 929 451 969 q 201 830 264 894 q 109 681 142 771 q 76 479 76 592 q 207 123 76 259 q 361 23 269 61 q 563 -16 453 -16 q 849 47 722 -16 l 821 137 q 597 90 698 90 q 384 141 476 90 q 252 277 300 189 q 203 481 203 365 q 246 688 203 601 q 368 823 288 776 q 580 865 444 865 q 695 855 648 865 q 806 825 743 845 l 839 918 m 705 1028 l 549 1139 l 392 1028 l 335 1090 l 549 1250 l 760 1090 l 705 1028 z "},"Ċ":{"ha":899,"x_min":76,"x_max":849,"o":"m 76 0 m 839 918 q 707 957 748 948 q 547 969 644 969 q 351 929 451 969 q 201 830 264 894 q 109 681 142 771 q 76 479 76 592 q 207 123 76 259 q 361 23 269 61 q 563 -16 453 -16 q 849 47 722 -16 l 821 137 q 597 90 698 90 q 384 141 476 90 q 252 277 300 189 q 203 481 203 365 q 246 688 203 601 q 368 823 288 776 q 580 865 444 865 q 695 855 648 865 q 806 825 743 845 l 839 918 m 545 1075 q 494 1096 516 1075 q 472 1148 472 1118 q 494 1199 472 1177 q 545 1220 516 1220 q 596 1199 575 1220 q 618 1148 618 1177 q 596 1096 618 1118 q 545 1075 575 1075 z "},"D":{"ha":969,"x_min":116,"x_max":903,"o":"m 453 0 q 695 57 597 0 q 847 220 793 115 q 903 477 903 325 q 847 736 903 622 q 694 897 793 839 q 453 955 595 955 l 116 955 l 116 0 l 453 0 m 444 856 q 634 804 559 856 q 736 675 691 764 q 776 477 776 587 q 741 276 776 347 q 631 147 701 193 q 444 101 561 101 l 231 101 l 231 856 l 444 856 z "},"Ð":{"ha":1028,"x_min":23,"x_max":962,"o":"m 962 514 q 839 137 962 267 q 477 0 717 7 l 184 0 l 184 444 l 23 444 l 23 535 l 184 535 l 184 955 l 451 955 q 727 911 623 955 q 899 762 832 866 q 962 514 962 668 m 438 101 q 576 109 486 101 q 712 166 653 122 q 804 276 771 210 q 847 498 847 372 q 811 666 847 590 q 712 789 774 741 q 575 851 649 837 q 484 858 542 858 l 299 858 l 299 535 l 514 535 l 514 444 l 299 444 l 299 101 l 438 101 z "},"Ď":{"ha":969,"x_min":116,"x_max":903,"o":"m 116 0 m 453 0 q 695 57 597 0 q 847 220 793 115 q 903 477 903 325 q 847 736 903 622 q 694 897 793 839 q 453 955 595 955 l 116 955 l 116 0 l 453 0 m 444 856 q 634 804 559 856 q 736 675 691 764 q 776 477 776 587 q 741 276 776 347 q 631 147 701 193 q 444 101 561 101 l 231 101 l 231 856 l 444 856 m 167 1186 l 224 1250 l 380 1137 l 536 1250 l 592 1186 l 380 1028 l 167 1186 z "},"Đ":{"ha":1028,"x_min":23,"x_max":962,"o":"m 23 0 m 962 514 q 839 137 962 267 q 477 0 717 7 l 184 0 l 184 444 l 23 444 l 23 535 l 184 535 l 184 955 l 451 955 q 727 911 623 955 q 899 762 832 866 q 962 514 962 668 m 438 101 q 576 109 486 101 q 712 166 653 122 q 804 276 771 210 q 847 498 847 372 q 811 666 847 590 q 712 789 774 741 q 575 851 649 837 q 484 858 542 858 l 299 858 l 299 535 l 514 535 l 514 444 l 299 444 l 299 101 l 438 101 z "},"E":{"ha":767,"x_min":116,"x_max":675,"o":"m 675 101 l 231 101 l 231 444 l 641 444 l 641 543 l 231 543 l 231 858 l 675 858 l 675 955 l 116 955 l 116 0 l 675 0 l 675 101 z "},"É":{"ha":767,"x_min":116,"x_max":675,"o":"m 116 0 m 675 101 l 231 101 l 231 444 l 641 444 l 641 543 l 231 543 l 231 858 l 675 858 l 675 955 l 116 955 l 116 0 l 675 0 l 675 101 m 269 1017 l 231 1089 l 519 1224 l 566 1132 l 269 1017 z "},"Ĕ":{"ha":767,"x_min":116,"x_max":675,"o":"m 116 0 m 675 101 l 231 101 l 231 444 l 641 444 l 641 543 l 231 543 l 231 858 l 675 858 l 675 955 l 116 955 l 116 0 l 675 0 l 675 101 m 398 1038 q 189 1167 271 1038 l 253 1212 q 323 1144 290 1167 q 398 1122 356 1122 q 470 1144 438 1122 q 540 1212 503 1167 l 606 1167 q 398 1038 524 1038 z "},"Ě":{"ha":767,"x_min":116,"x_max":675,"o":"m 116 0 m 675 101 l 231 101 l 231 444 l 641 444 l 641 543 l 231 543 l 231 858 l 675 858 l 675 955 l 116 955 l 116 0 l 675 0 l 675 101 m 182 1186 l 240 1250 l 396 1137 l 552 1250 l 608 1186 l 396 1028 l 182 1186 z "},"Ê":{"ha":767,"x_min":116,"x_max":675,"o":"m 116 0 m 675 101 l 231 101 l 231 444 l 641 444 l 641 543 l 231 543 l 231 858 l 675 858 l 675 955 l 116 955 l 116 0 l 675 0 l 675 101 m 554 1028 l 398 1139 l 241 1028 l 184 1090 l 398 1250 l 609 1090 l 554 1028 z "},"Ë":{"ha":767,"x_min":116,"x_max":675,"o":"m 116 0 m 675 101 l 231 101 l 231 444 l 641 444 l 641 543 l 231 543 l 231 858 l 675 858 l 675 955 l 116 955 l 116 0 l 675 0 l 675 101 m 257 1068 q 212 1087 231 1068 q 193 1132 193 1106 q 212 1177 193 1158 q 257 1196 231 1196 q 302 1177 283 1196 q 321 1132 321 1158 q 302 1087 321 1106 q 257 1068 283 1068 m 531 1068 q 486 1087 505 1068 q 467 1132 467 1106 q 486 1177 467 1158 q 531 1196 505 1196 q 576 1177 557 1196 q 595 1132 595 1158 q 576 1087 595 1106 q 531 1068 557 1068 z "},"Ė":{"ha":767,"x_min":116,"x_max":675,"o":"m 116 0 m 675 101 l 231 101 l 231 444 l 641 444 l 641 543 l 231 543 l 231 858 l 675 858 l 675 955 l 116 955 l 116 0 l 675 0 l 675 101 m 394 1075 q 343 1096 365 1075 q 321 1148 321 1118 q 343 1199 321 1177 q 394 1220 365 1220 q 445 1199 424 1220 q 467 1148 467 1177 q 445 1096 467 1118 q 394 1075 424 1075 z "},"È":{"ha":767,"x_min":116,"x_max":675,"o":"m 116 0 m 675 101 l 231 101 l 231 444 l 641 444 l 641 543 l 231 543 l 231 858 l 675 858 l 675 955 l 116 955 l 116 0 l 675 0 l 675 101 m 573 1089 l 536 1017 l 241 1132 l 285 1224 l 573 1089 z "},"Ē":{"ha":767,"x_min":116,"x_max":675,"o":"m 116 0 m 675 101 l 231 101 l 231 444 l 641 444 l 641 543 l 231 543 l 231 858 l 675 858 l 675 955 l 116 955 l 116 0 l 675 0 l 675 101 m 599 1071 l 184 1071 l 184 1158 l 599 1158 l 599 1071 z "},"Ę":{"ha":767,"x_min":116,"x_max":679,"o":"m 462 -205 q 480 -259 462 -241 q 530 -276 498 -276 q 642 -236 573 -276 l 679 -299 q 500 -365 592 -365 q 402 -327 439 -365 q 365 -224 365 -290 q 404 -109 365 -165 q 507 -10 443 -52 l 521 0 l 116 0 l 116 955 l 675 955 l 675 858 l 231 858 l 231 543 l 639 543 l 639 444 l 231 444 l 231 101 l 675 101 l 675 17 l 559 -66 q 462 -205 462 -137 z "},"F":{"ha":736,"x_min":116,"x_max":672,"o":"m 672 955 l 116 955 l 116 0 l 231 0 l 231 444 l 632 444 l 632 543 l 231 543 l 231 858 l 672 858 l 672 955 z "},"G":{"ha":977,"x_min":76,"x_max":901,"o":"m 861 885 q 714 948 790 927 q 547 969 639 969 q 307 905 413 969 q 140 731 203 844 q 76 470 76 618 q 137 226 76 339 q 300 51 194 116 q 536 -14 406 -14 q 767 33 665 -14 q 901 122 847 68 l 901 505 l 521 505 l 521 411 l 795 411 l 795 158 q 695 106 755 125 q 578 87 635 87 q 477 100 523 87 q 382 141 432 113 q 252 275 300 188 q 203 479 203 363 q 243 672 203 587 q 369 813 283 757 q 557 868 455 868 q 690 849 618 868 q 816 802 762 830 l 861 885 z "},"Ğ":{"ha":977,"x_min":76,"x_max":901,"o":"m 76 0 m 861 885 q 714 948 790 927 q 547 969 639 969 q 307 905 413 969 q 140 731 203 844 q 76 470 76 618 q 137 226 76 339 q 300 51 194 116 q 536 -14 406 -14 q 767 33 665 -14 q 901 122 847 68 l 901 505 l 521 505 l 521 411 l 795 411 l 795 158 q 695 106 755 125 q 578 87 635 87 q 477 100 523 87 q 382 141 432 113 q 252 275 300 188 q 203 479 203 363 q 243 672 203 587 q 369 813 283 757 q 557 868 455 868 q 690 849 618 868 q 816 802 762 830 l 861 885 m 549 1038 q 340 1167 422 1038 l 405 1212 q 474 1144 441 1167 q 549 1122 507 1122 q 622 1144 589 1122 q 691 1212 655 1167 l 757 1167 q 549 1038 675 1038 z "},"Ĝ":{"ha":977,"x_min":76,"x_max":901,"o":"m 76 0 m 861 885 q 714 948 790 927 q 547 969 639 969 q 307 905 413 969 q 140 731 203 844 q 76 470 76 618 q 137 226 76 339 q 300 51 194 116 q 536 -14 406 -14 q 767 33 665 -14 q 901 122 847 68 l 901 505 l 521 505 l 521 411 l 795 411 l 795 158 q 695 106 755 125 q 578 87 635 87 q 477 100 523 87 q 382 141 432 113 q 252 275 300 188 q 203 479 203 363 q 243 672 203 587 q 369 813 283 757 q 557 868 455 868 q 690 849 618 868 q 816 802 762 830 l 861 885 m 705 1028 l 549 1139 l 392 1028 l 335 1090 l 549 1250 l 760 1090 l 705 1028 z "},"Ģ":{"ha":977,"x_min":76,"x_max":901,"o":"m 76 0 m 861 885 q 714 948 790 927 q 547 969 639 969 q 307 905 413 969 q 140 731 203 844 q 76 470 76 618 q 137 226 76 339 q 300 51 194 116 q 536 -14 406 -14 q 767 33 665 -14 q 901 122 847 68 l 901 505 l 521 505 l 521 411 l 795 411 l 795 158 q 695 106 755 125 q 578 87 635 87 q 477 100 523 87 q 382 141 432 113 q 252 275 300 188 q 203 479 203 363 q 243 672 203 587 q 369 813 283 757 q 557 868 455 868 q 690 849 618 868 q 816 802 762 830 l 861 885 m 514 -345 l 422 -345 l 483 -83 l 599 -83 l 514 -345 z "},"Ġ":{"ha":977,"x_min":76,"x_max":901,"o":"m 76 0 m 861 885 q 714 948 790 927 q 547 969 639 969 q 307 905 413 969 q 140 731 203 844 q 76 470 76 618 q 137 226 76 339 q 300 51 194 116 q 536 -14 406 -14 q 767 33 665 -14 q 901 122 847 68 l 901 505 l 521 505 l 521 411 l 795 411 l 795 158 q 695 106 755 125 q 578 87 635 87 q 477 100 523 87 q 382 141 432 113 q 252 275 300 188 q 203 479 203 363 q 243 672 203 587 q 369 813 283 757 q 557 868 455 868 q 690 849 618 868 q 816 802 762 830 l 861 885 m 545 1075 q 494 1096 516 1075 q 472 1148 472 1118 q 494 1199 472 1177 q 545 1220 516 1220 q 596 1199 575 1220 q 618 1148 618 1177 q 596 1096 618 1118 q 545 1075 575 1075 z "},"H":{"ha":995,"x_min":116,"x_max":877,"o":"m 231 533 l 231 955 l 116 955 l 116 0 l 231 0 l 231 429 l 762 429 l 762 0 l 877 0 l 877 955 l 762 955 l 762 533 l 231 533 z "},"I":{"ha":377,"x_min":132,"x_max":245,"o":"m 245 0 l 245 955 l 132 955 l 132 0 l 245 0 z "},"Ĳ":{"ha":859,"x_min":132,"x_max":755,"o":"m 245 0 l 132 0 l 132 955 l 245 955 l 245 0 m 755 286 q 740 159 755 207 q 688 73 726 111 q 458 -12 613 -12 q 328 3 399 -12 l 345 101 q 444 87 401 87 q 568 120 517 87 q 634 210 618 153 q 641 280 641 231 l 641 955 l 755 955 l 755 286 z "},"Í":{"ha":377,"x_min":23,"x_max":358,"o":"m 23 0 m 245 0 l 245 955 l 132 955 l 132 0 l 245 0 m 61 1017 l 23 1089 l 311 1224 l 358 1132 l 61 1017 z "},"Ĭ":{"ha":377,"x_min":-19,"x_max":398,"o":"m 0 0 m 245 0 l 245 955 l 132 955 l 132 0 l 245 0 m 189 1038 q -19 1167 63 1038 l 45 1212 q 115 1144 82 1167 q 189 1122 148 1122 q 262 1144 229 1122 q 332 1212 295 1167 l 398 1167 q 189 1038 316 1038 z "},"Î":{"ha":377,"x_min":-24,"x_max":401,"o":"m 0 0 m 245 0 l 245 955 l 132 955 l 132 0 l 245 0 m 345 1028 l 189 1139 l 33 1028 l -24 1090 l 189 1250 l 401 1090 l 345 1028 z "},"Ï":{"ha":377,"x_min":-16,"x_max":387,"o":"m 0 0 m 245 0 l 245 955 l 132 955 l 132 0 l 245 0 m 49 1068 q 3 1087 23 1068 q -16 1132 -16 1106 q 3 1177 -16 1158 q 49 1196 23 1196 q 94 1177 75 1196 q 113 1132 113 1158 q 94 1087 113 1106 q 49 1068 75 1068 m 323 1068 q 278 1087 297 1068 q 259 1132 259 1106 q 278 1177 259 1158 q 323 1196 297 1196 q 368 1177 349 1196 q 387 1132 387 1158 q 368 1087 387 1106 q 323 1068 349 1068 z "},"İ":{"ha":377,"x_min":113,"x_max":259,"o":"m 113 0 m 245 0 l 245 955 l 132 955 l 132 0 l 245 0 m 186 1075 q 135 1096 156 1075 q 113 1148 113 1118 q 135 1199 113 1177 q 186 1220 156 1220 q 237 1199 215 1220 q 259 1148 259 1177 q 237 1096 259 1118 q 186 1075 215 1075 z "},"Ì":{"ha":377,"x_min":33,"x_max":365,"o":"m 33 0 m 245 0 l 245 955 l 132 955 l 132 0 l 245 0 m 365 1089 l 328 1017 l 33 1132 l 76 1224 l 365 1089 z "},"Ī":{"ha":377,"x_min":-24,"x_max":391,"o":"m 0 0 m 245 0 l 245 955 l 132 955 l 132 0 l 245 0 m 391 1071 l -24 1071 l -24 1158 l 391 1158 l 391 1071 z "},"Į":{"ha":368,"x_min":-76,"x_max":238,"o":"m 236 955 l 236 17 l 116 -66 q 19 -205 19 -137 q 38 -259 19 -241 q 89 -276 57 -276 q 141 -266 115 -276 q 203 -236 167 -257 l 238 -299 q 149 -347 196 -330 q 59 -365 102 -365 q -39 -327 -2 -365 q -76 -224 -76 -290 q -37 -108 -76 -165 q 68 -9 2 -50 l 120 28 l 120 955 l 236 955 z "},"Ĩ":{"ha":377,"x_min":-42,"x_max":424,"o":"m 0 0 m 245 0 l 245 955 l 132 955 l 132 0 l 245 0 m 104 1193 q 150 1181 128 1193 q 203 1148 172 1170 q 269 1115 250 1115 q 318 1134 302 1115 q 344 1193 333 1153 l 424 1168 q 372 1069 411 1106 q 273 1031 332 1031 q 215 1044 241 1031 q 163 1078 189 1057 q 138 1094 156 1082 q 106 1106 120 1106 q 63 1088 78 1106 q 36 1030 49 1069 l -42 1054 q 10 1155 -28 1118 q 104 1193 49 1193 z "},"J":{"ha":543,"x_min":16,"x_max":439,"o":"m 326 280 q 319 210 326 231 q 253 120 304 153 q 127 87 203 87 q 31 101 90 87 l 16 3 q 144 -12 78 -12 q 375 73 295 -12 q 425 161 411 113 q 439 286 439 208 l 439 955 l 326 955 l 326 280 z "},"Ĵ":{"ha":543,"x_min":16,"x_max":595,"o":"m 16 0 m 326 280 q 319 210 326 231 q 253 120 304 153 q 127 87 203 87 q 31 101 90 87 l 16 3 q 144 -12 78 -12 q 375 73 295 -12 q 425 161 411 113 q 439 286 439 208 l 439 955 l 326 955 l 326 280 m 540 1028 l 384 1139 l 227 1028 l 170 1090 l 384 1250 l 595 1090 l 540 1028 z "},"K":{"ha":863,"x_min":116,"x_max":823,"o":"m 231 0 l 231 955 l 116 955 l 116 0 l 231 0 m 674 0 l 823 0 l 391 500 l 797 955 l 651 955 l 247 490 l 674 0 z "},"Ķ":{"ha":863,"x_min":116,"x_max":823,"o":"m 116 0 m 231 0 l 231 955 l 116 955 l 116 0 l 231 0 m 674 0 l 823 0 l 391 500 l 797 955 l 651 955 l 247 490 l 674 0 m 420 -345 l 328 -345 l 389 -83 l 505 -83 l 420 -345 z "},"L":{"ha":694,"x_min":116,"x_max":660,"o":"m 660 0 l 660 101 l 231 101 l 231 955 l 116 955 l 116 0 l 660 0 z "},"Ĺ":{"ha":694,"x_min":116,"x_max":660,"o":"m 116 0 m 660 0 l 660 101 l 231 101 l 231 955 l 116 955 l 116 0 l 660 0 m 179 1017 l 141 1089 l 429 1224 l 476 1132 l 179 1017 z "},"Ľ":{"ha":694,"x_min":116,"x_max":660,"o":"m 450 755 l 361 755 l 417 1017 l 533 1017 l 450 755 m 231 101 l 660 101 l 660 0 l 116 0 l 116 955 l 231 955 l 231 101 z "},"Ļ":{"ha":694,"x_min":116,"x_max":660,"o":"m 116 0 m 660 0 l 660 101 l 231 101 l 231 955 l 116 955 l 116 0 l 660 0 m 366 -345 l 274 -345 l 335 -83 l 451 -83 l 366 -345 z "},"Ł":{"ha":726,"x_min":16,"x_max":691,"o":"m 262 557 l 438 660 l 438 542 l 262 439 l 262 101 l 691 101 l 691 0 l 148 0 l 148 373 l 16 295 l 16 413 l 148 490 l 148 955 l 262 955 l 262 557 z "},"M":{"ha":1167,"x_min":116,"x_max":1049,"o":"m 231 0 l 231 793 l 524 274 l 641 274 l 934 793 l 934 0 l 1049 0 l 1049 955 l 898 955 l 583 377 l 280 955 l 116 955 l 116 0 l 231 0 z "},"N":{"ha":997,"x_min":109,"x_max":892,"o":"m 224 0 l 224 804 l 745 0 l 892 0 l 892 955 l 774 955 l 774 155 l 255 955 l 109 955 l 109 0 l 224 0 z "},"Ń":{"ha":997,"x_min":109,"x_max":892,"o":"m 109 0 m 224 0 l 224 804 l 745 0 l 892 0 l 892 955 l 774 955 l 774 155 l 255 955 l 109 955 l 109 0 l 224 0 m 387 1017 l 349 1089 l 637 1224 l 684 1132 l 387 1017 z "},"Ň":{"ha":997,"x_min":109,"x_max":892,"o":"m 109 0 m 224 0 l 224 804 l 745 0 l 892 0 l 892 955 l 774 955 l 774 155 l 255 955 l 109 955 l 109 0 l 224 0 m 300 1186 l 358 1250 l 514 1137 l 670 1250 l 726 1186 l 514 1028 l 300 1186 z "},"Ņ":{"ha":997,"x_min":109,"x_max":892,"o":"m 109 0 m 224 0 l 224 804 l 745 0 l 892 0 l 892 955 l 774 955 l 774 155 l 255 955 l 109 955 l 109 0 l 224 0 m 462 -345 l 370 -345 l 431 -83 l 547 -83 l 462 -345 z "},"Ñ":{"ha":997,"x_min":109,"x_max":892,"o":"m 109 0 m 224 0 l 224 804 l 745 0 l 892 0 l 892 955 l 774 955 l 774 155 l 255 955 l 109 955 l 109 0 l 224 0 m 431 1193 q 477 1181 455 1193 q 530 1148 498 1170 q 595 1115 576 1115 q 644 1134 628 1115 q 670 1193 660 1153 l 750 1168 q 698 1069 738 1106 q 599 1031 658 1031 q 542 1044 568 1031 q 490 1078 516 1057 q 464 1094 483 1082 q 432 1106 446 1106 q 390 1088 405 1106 q 363 1030 375 1069 l 285 1054 q 337 1155 299 1118 q 431 1193 375 1193 z "},"O":{"ha":1052,"x_min":76,"x_max":976,"o":"m 524 965 q 765 904 665 965 q 920 736 865 842 q 976 477 976 615 q 920 220 976 337 q 765 50 865 113 q 524 -12 665 -12 q 286 50 384 -12 q 132 220 188 113 q 76 477 76 321 q 132 736 76 630 q 286 904 188 842 q 524 965 384 965 m 524 89 q 701 140 634 89 q 807 280 767 191 q 849 477 849 366 q 807 675 849 587 q 524 865 719 865 q 351 813 417 865 q 243 675 285 762 q 203 477 203 595 q 243 280 203 358 q 351 140 285 191 q 524 89 417 89 z "},"Ó":{"ha":1052,"x_min":76,"x_max":976,"o":"m 76 0 m 524 965 q 765 904 665 965 q 920 736 865 842 q 976 477 976 615 q 920 220 976 337 q 765 50 865 113 q 524 -12 665 -12 q 286 50 384 -12 q 132 220 188 113 q 76 477 76 321 q 132 736 76 630 q 286 904 188 842 q 524 965 384 965 m 524 89 q 701 140 634 89 q 807 280 767 191 q 849 477 849 366 q 807 675 849 587 q 524 865 719 865 q 351 813 417 865 q 243 675 285 762 q 203 477 203 595 q 243 280 203 358 q 351 140 285 191 q 524 89 417 89 m 398 1017 l 359 1089 l 648 1224 l 694 1132 l 398 1017 z "},"Ŏ":{"ha":1052,"x_min":76,"x_max":976,"o":"m 76 0 m 524 965 q 765 904 665 965 q 920 736 865 842 q 976 477 976 615 q 920 220 976 337 q 765 50 865 113 q 524 -12 665 -12 q 286 50 384 -12 q 132 220 188 113 q 76 477 76 321 q 132 736 76 630 q 286 904 188 842 q 524 965 384 965 m 524 89 q 701 140 634 89 q 807 280 767 191 q 849 477 849 366 q 807 675 849 587 q 524 865 719 865 q 351 813 417 865 q 243 675 285 762 q 203 477 203 595 q 243 280 203 358 q 351 140 285 191 q 524 89 417 89 m 526 1038 q 318 1167 399 1038 l 382 1212 q 451 1144 418 1167 q 526 1122 484 1122 q 599 1144 566 1122 q 668 1212 632 1167 l 734 1167 q 526 1038 653 1038 z "},"Ô":{"ha":1052,"x_min":76,"x_max":976,"o":"m 76 0 m 524 965 q 765 904 665 965 q 920 736 865 842 q 976 477 976 615 q 920 220 976 337 q 765 50 865 113 q 524 -12 665 -12 q 286 50 384 -12 q 132 220 188 113 q 76 477 76 321 q 132 736 76 630 q 286 904 188 842 q 524 965 384 965 m 524 89 q 701 140 634 89 q 807 280 767 191 q 849 477 849 366 q 807 675 849 587 q 524 865 719 865 q 351 813 417 865 q 243 675 285 762 q 203 477 203 595 q 243 280 203 358 q 351 140 285 191 q 524 89 417 89 m 682 1028 l 526 1139 l 370 1028 l 313 1090 l 526 1250 l 738 1090 l 682 1028 z "},"Ö":{"ha":1052,"x_min":76,"x_max":976,"o":"m 76 0 m 524 965 q 765 904 665 965 q 920 736 865 842 q 976 477 976 615 q 920 220 976 337 q 765 50 865 113 q 524 -12 665 -12 q 286 50 384 -12 q 132 220 188 113 q 76 477 76 321 q 132 736 76 630 q 286 904 188 842 q 524 965 384 965 m 524 89 q 701 140 634 89 q 807 280 767 191 q 849 477 849 366 q 807 675 849 587 q 524 865 719 865 q 351 813 417 865 q 243 675 285 762 q 203 477 203 595 q 243 280 203 358 q 351 140 285 191 q 524 89 417 89 m 385 1068 q 340 1087 359 1068 q 321 1132 321 1106 q 340 1177 321 1158 q 385 1196 359 1196 q 431 1177 411 1196 q 450 1132 450 1158 q 431 1087 450 1106 q 385 1068 411 1068 m 660 1068 q 615 1087 634 1068 q 595 1132 595 1106 q 615 1177 595 1158 q 660 1196 634 1196 q 705 1177 686 1196 q 724 1132 724 1158 q 705 1087 724 1106 q 660 1068 686 1068 z "},"Ò":{"ha":1052,"x_min":76,"x_max":976,"o":"m 76 0 m 524 965 q 765 904 665 965 q 920 736 865 842 q 976 477 976 615 q 920 220 976 337 q 765 50 865 113 q 524 -12 665 -12 q 286 50 384 -12 q 132 220 188 113 q 76 477 76 321 q 132 736 76 630 q 286 904 188 842 q 524 965 384 965 m 524 89 q 701 140 634 89 q 807 280 767 191 q 849 477 849 366 q 807 675 849 587 q 524 865 719 865 q 351 813 417 865 q 243 675 285 762 q 203 477 203 595 q 243 280 203 358 q 351 140 285 191 q 524 89 417 89 m 701 1089 l 665 1017 l 370 1132 l 413 1224 l 701 1089 z "},"Ő":{"ha":1052,"x_min":76,"x_max":981,"o":"m 76 0 m 524 965 q 765 904 665 965 q 920 736 865 842 q 976 477 976 615 q 920 220 976 337 q 765 50 865 113 q 524 -12 665 -12 q 286 50 384 -12 q 132 220 188 113 q 76 477 76 321 q 132 736 76 630 q 286 904 188 842 q 524 965 384 965 m 524 89 q 701 140 634 89 q 807 280 767 191 q 849 477 849 366 q 807 675 849 587 q 524 865 719 865 q 351 813 417 865 q 243 675 285 762 q 203 477 203 595 q 243 280 203 358 q 351 140 285 191 q 524 89 417 89 m 323 1017 l 285 1089 l 573 1224 l 620 1132 l 323 1017 m 684 1017 l 646 1089 l 934 1224 l 981 1132 l 684 1017 z "},"Ō":{"ha":1052,"x_min":76,"x_max":976,"o":"m 76 0 m 524 965 q 765 904 665 965 q 920 736 865 842 q 976 477 976 615 q 920 220 976 337 q 765 50 865 113 q 524 -12 665 -12 q 286 50 384 -12 q 132 220 188 113 q 76 477 76 321 q 132 736 76 630 q 286 904 188 842 q 524 965 384 965 m 524 89 q 701 140 634 89 q 807 280 767 191 q 849 477 849 366 q 807 675 849 587 q 524 865 719 865 q 351 813 417 865 q 243 675 285 762 q 203 477 203 595 q 243 280 203 358 q 351 140 285 191 q 524 89 417 89 m 727 1071 l 313 1071 l 313 1158 l 727 1158 l 727 1071 z "},"Ø":{"ha":1123,"x_min":52,"x_max":1071,"o":"m 168 220 q 113 477 113 332 q 168 736 113 620 q 321 904 222 842 q 561 965 420 965 q 872 844 750 965 l 998 965 l 1071 887 l 936 759 q 1005 477 1005 630 q 951 220 1005 333 q 798 50 896 113 q 561 -12 700 -12 q 250 108 373 -12 l 125 -14 l 52 64 l 184 189 l 168 220 m 236 477 q 278 280 236 366 l 278 278 l 788 764 q 561 865 705 865 q 385 813 451 865 q 278 675 319 762 q 236 477 236 587 m 561 89 q 842 280 757 89 q 884 477 884 361 q 842 672 884 589 l 335 186 q 561 89 418 89 z "},"Õ":{"ha":1052,"x_min":76,"x_max":976,"o":"m 76 0 m 524 965 q 765 904 665 965 q 920 736 865 842 q 976 477 976 615 q 920 220 976 337 q 765 50 865 113 q 524 -12 665 -12 q 286 50 384 -12 q 132 220 188 113 q 76 477 76 321 q 132 736 76 630 q 286 904 188 842 q 524 965 384 965 m 524 89 q 701 140 634 89 q 807 280 767 191 q 849 477 849 366 q 807 675 849 587 q 524 865 719 865 q 351 813 417 865 q 243 675 285 762 q 203 477 203 595 q 243 280 203 358 q 351 140 285 191 q 524 89 417 89 m 441 1193 q 487 1181 465 1193 q 540 1148 509 1170 q 606 1115 587 1115 q 655 1134 639 1115 q 681 1193 670 1153 l 760 1168 q 708 1069 748 1106 q 609 1031 668 1031 q 552 1044 578 1031 q 500 1078 526 1057 q 475 1094 493 1082 q 443 1106 457 1106 q 400 1088 415 1106 q 373 1030 385 1069 l 295 1054 q 347 1155 309 1118 q 441 1193 385 1193 z "},"Œ":{"ha":1259,"x_min":76,"x_max":1170,"o":"m 1170 858 l 753 858 l 753 543 l 1134 543 l 1134 444 l 753 444 l 753 101 l 1170 101 l 1170 0 l 585 0 q 314 42 415 0 q 149 182 214 83 q 76 472 76 297 q 159 780 76 663 q 399 936 241 898 q 646 955 476 955 l 1170 955 l 1170 858 m 189 458 q 267 223 189 318 q 464 108 345 128 q 552 101 491 101 l 639 101 l 639 858 l 601 858 q 472 849 547 858 q 263 726 337 828 q 189 458 189 623 z "},"P":{"ha":807,"x_min":116,"x_max":752,"o":"m 752 674 q 701 514 748 580 q 575 422 653 448 q 474 403 538 410 q 345 396 410 396 q 231 399 273 396 l 231 0 l 116 0 l 116 955 l 417 955 q 515 951 484 955 q 575 939 545 946 q 705 841 658 910 q 752 674 752 773 m 356 497 q 505 509 446 497 q 601 562 564 521 q 637 681 637 602 q 594 800 637 757 q 477 851 550 844 q 356 858 451 858 l 231 858 l 231 502 q 356 497 300 497 z "},"Þ":{"ha":806,"x_min":109,"x_max":747,"o":"m 401 781 q 656 711 566 781 q 747 507 747 641 q 695 338 747 408 q 554 241 644 267 q 459 226 524 233 q 340 219 394 219 q 224 224 286 219 l 224 0 l 109 0 l 109 955 l 224 955 l 224 773 q 401 781 337 781 m 632 507 q 563 640 632 602 q 365 677 493 677 q 224 674 332 677 l 224 326 q 363 321 278 321 q 565 361 498 321 q 632 507 632 401 z "},"Q":{"ha":1059,"x_min":76,"x_max":1010,"o":"m 528 965 q 766 904 667 965 q 920 736 865 842 q 976 477 976 625 q 920 220 976 326 q 880 155 901 182 l 1010 36 l 939 -38 l 809 82 q 685 12 757 36 q 528 -12 613 -12 q 286 50 385 -12 q 132 220 188 113 q 76 477 76 321 q 132 736 76 630 q 286 904 188 842 q 528 965 385 965 m 797 236 q 851 477 851 337 q 809 675 851 592 q 528 865 720 865 q 353 813 420 865 q 245 675 286 762 q 203 477 203 587 q 245 280 203 366 q 353 140 286 191 q 528 89 420 89 q 734 156 649 89 l 524 354 l 597 425 l 797 236 z "},"R":{"ha":861,"x_min":116,"x_max":804,"o":"m 231 396 l 231 0 l 116 0 l 116 955 l 417 955 q 515 951 484 955 q 575 939 545 946 q 705 841 658 910 q 752 674 752 773 q 692 507 750 576 q 533 411 634 438 l 804 0 l 674 0 l 413 396 l 231 396 m 356 497 q 505 509 446 497 q 601 562 564 521 q 637 681 637 602 q 594 800 637 757 q 477 851 550 844 q 356 858 451 858 l 231 858 l 231 502 q 356 497 300 497 z "},"Ŕ":{"ha":861,"x_min":116,"x_max":804,"o":"m 116 0 m 231 396 l 231 0 l 116 0 l 116 955 l 417 955 q 515 951 484 955 q 575 939 545 946 q 705 841 658 910 q 752 674 752 773 q 692 507 750 576 q 533 411 634 438 l 804 0 l 674 0 l 413 396 l 231 396 m 356 497 q 505 509 446 497 q 601 562 564 521 q 637 681 637 602 q 594 800 637 757 q 477 851 550 844 q 356 858 451 858 l 231 858 l 231 502 q 356 497 300 497 m 259 1017 l 220 1089 l 509 1224 l 556 1132 l 259 1017 z "},"Ř":{"ha":861,"x_min":116,"x_max":804,"o":"m 116 0 m 231 396 l 231 0 l 116 0 l 116 955 l 417 955 q 515 951 484 955 q 575 939 545 946 q 705 841 658 910 q 752 674 752 773 q 692 507 750 576 q 533 411 634 438 l 804 0 l 674 0 l 413 396 l 231 396 m 356 497 q 505 509 446 497 q 601 562 564 521 q 637 681 637 602 q 594 800 637 757 q 477 851 550 844 q 356 858 451 858 l 231 858 l 231 502 q 356 497 300 497 m 172 1186 l 229 1250 l 385 1137 l 542 1250 l 597 1186 l 385 1028 l 172 1186 z "},"Ŗ":{"ha":861,"x_min":116,"x_max":804,"o":"m 116 0 m 231 396 l 231 0 l 116 0 l 116 955 l 417 955 q 515 951 484 955 q 575 939 545 946 q 705 841 658 910 q 752 674 752 773 q 692 507 750 576 q 533 411 634 438 l 804 0 l 674 0 l 413 396 l 231 396 m 356 497 q 505 509 446 497 q 601 562 564 521 q 637 681 637 602 q 594 800 637 757 q 477 851 550 844 q 356 858 451 858 l 231 858 l 231 502 q 356 497 300 497 m 429 -345 l 337 -345 l 398 -83 l 514 -83 l 429 -345 z "},"S":{"ha":802,"x_min":69,"x_max":729,"o":"m 363 104 q 536 141 467 104 q 606 252 606 179 q 550 354 606 316 q 391 431 495 392 l 351 446 q 156 554 220 498 q 92 708 92 609 q 177 905 92 839 q 283 959 227 943 q 413 976 339 976 q 675 910 519 976 l 642 807 q 427 863 503 863 q 268 826 326 863 q 210 720 210 788 q 240 641 210 674 q 308 589 271 608 q 413 543 345 571 q 464 524 441 531 q 605 459 554 488 q 693 382 656 431 q 729 259 729 333 q 622 56 729 125 q 359 -14 514 -14 q 227 0 280 -14 q 69 50 175 14 l 109 161 q 363 104 262 104 z "},"Ś":{"ha":802,"x_min":69,"x_max":729,"o":"m 69 0 m 363 104 q 536 141 467 104 q 606 252 606 179 q 550 354 606 316 q 391 431 495 392 l 351 446 q 156 554 220 498 q 92 708 92 609 q 177 905 92 839 q 283 959 227 943 q 413 976 339 976 q 675 910 519 976 l 642 807 q 427 863 503 863 q 268 826 326 863 q 210 720 210 788 q 240 641 210 674 q 308 589 271 608 q 413 543 345 571 q 464 524 441 531 q 605 459 554 488 q 693 382 656 431 q 729 259 729 333 q 622 56 729 125 q 359 -14 514 -14 q 227 0 280 -14 q 69 50 175 14 l 109 161 q 363 104 262 104 m 286 1016 l 248 1087 l 536 1222 l 583 1130 l 286 1016 z "},"Š":{"ha":802,"x_min":69,"x_max":729,"o":"m 69 0 m 363 104 q 536 141 467 104 q 606 252 606 179 q 550 354 606 316 q 391 431 495 392 l 351 446 q 156 554 220 498 q 92 708 92 609 q 177 905 92 839 q 283 959 227 943 q 413 976 339 976 q 675 910 519 976 l 642 807 q 427 863 503 863 q 268 826 326 863 q 210 720 210 788 q 240 641 210 674 q 308 589 271 608 q 413 543 345 571 q 464 524 441 531 q 605 459 554 488 q 693 382 656 431 q 729 259 729 333 q 622 56 729 125 q 359 -14 514 -14 q 227 0 280 -14 q 69 50 175 14 l 109 161 q 363 104 262 104 m 200 1184 l 257 1248 l 413 1135 l 569 1248 l 625 1184 l 413 1026 l 200 1184 z "},"Ş":{"ha":802,"x_min":69,"x_max":729,"o":"m 729 259 q 638 69 729 137 q 410 -12 547 0 l 392 -87 l 413 -95 q 518 -145 479 -115 q 557 -248 557 -175 q 510 -348 557 -307 q 391 -389 464 -389 q 323 -380 349 -389 q 245 -359 285 -375 l 220 -354 l 247 -262 l 269 -269 q 384 -295 358 -292 q 438 -285 417 -299 q 458 -243 458 -271 q 436 -203 458 -219 q 384 -181 413 -187 l 274 -155 l 304 -12 q 201 6 245 -7 q 69 50 156 19 l 109 161 q 363 104 262 104 q 536 141 467 104 q 606 252 606 179 q 550 354 606 316 q 391 431 495 392 l 351 446 q 156 554 220 498 q 92 708 92 609 q 177 905 92 839 q 283 959 227 943 q 413 976 339 976 q 675 910 519 976 l 642 807 q 427 863 503 863 q 268 826 326 863 q 210 720 210 788 q 240 641 210 674 q 308 589 271 608 q 413 543 345 571 q 464 524 441 531 q 605 459 554 488 q 693 382 656 431 q 729 259 729 333 z "},"Ș":{"ha":802,"x_min":69,"x_max":729,"o":"m 69 0 m 363 104 q 536 141 467 104 q 606 252 606 179 q 550 354 606 316 q 391 431 495 392 l 351 446 q 156 554 220 498 q 92 708 92 609 q 177 905 92 839 q 283 959 227 943 q 413 976 339 976 q 675 910 519 976 l 642 807 q 427 863 503 863 q 268 826 326 863 q 210 720 210 788 q 240 641 210 674 q 308 589 271 608 q 413 543 345 571 q 464 524 441 531 q 605 459 554 488 q 693 382 656 431 q 729 259 729 333 q 622 56 729 125 q 359 -14 514 -14 q 227 0 280 -14 q 69 50 175 14 l 109 161 q 363 104 262 104 m 342 -342 l 250 -342 l 311 -80 l 427 -80 l 342 -342 z "},"T":{"ha":783,"x_min":16,"x_max":767,"o":"m 332 858 l 332 0 l 446 0 l 446 858 l 767 858 l 767 955 l 16 955 l 16 858 l 332 858 z "},"Ť":{"ha":783,"x_min":16,"x_max":767,"o":"m 16 0 m 332 858 l 332 0 l 446 0 l 446 858 l 767 858 l 767 955 l 16 955 l 16 858 l 332 858 m 174 1186 l 231 1250 l 387 1137 l 543 1250 l 599 1186 l 387 1028 l 174 1186 z "},"Ţ":{"ha":783,"x_min":16,"x_max":767,"o":"m 424 -299 q 468 -286 451 -299 q 484 -247 484 -273 q 463 -207 484 -222 q 413 -184 441 -191 l 297 -158 l 332 0 l 332 858 l 16 858 l 16 955 l 767 955 l 767 858 l 446 858 l 446 0 l 424 -90 l 444 -99 q 547 -148 509 -118 q 585 -252 585 -179 q 539 -352 585 -311 q 418 -392 493 -392 q 351 -384 377 -392 l 274 -363 l 252 -358 l 278 -266 l 297 -273 q 424 -299 394 -299 z "},"Ț":{"ha":783,"x_min":16,"x_max":767,"o":"m 16 0 m 332 858 l 332 0 l 446 0 l 446 858 l 767 858 l 767 955 l 16 955 l 16 858 l 332 858 m 359 -345 l 267 -345 l 328 -83 l 444 -83 l 359 -345 z "},"U":{"ha":941,"x_min":108,"x_max":833,"o":"m 470 -16 q 194 78 280 -16 q 108 365 108 172 l 108 955 l 220 955 l 220 337 q 252 191 220 252 q 334 111 281 137 q 470 85 387 85 q 688 191 634 85 q 720 337 720 253 l 720 955 l 833 955 l 833 365 q 747 78 833 172 q 470 -16 661 -16 z "},"Ú":{"ha":941,"x_min":108,"x_max":833,"o":"m 108 0 m 470 -16 q 194 78 280 -16 q 108 365 108 172 l 108 955 l 220 955 l 220 337 q 252 191 220 252 q 334 111 281 137 q 470 85 387 85 q 688 191 634 85 q 720 337 720 253 l 720 955 l 833 955 l 833 365 q 747 78 833 172 q 470 -16 661 -16 m 344 1017 l 306 1089 l 594 1224 l 641 1132 l 344 1017 z "},"Ŭ":{"ha":941,"x_min":108,"x_max":833,"o":"m 108 0 m 470 -16 q 194 78 280 -16 q 108 365 108 172 l 108 955 l 220 955 l 220 337 q 252 191 220 252 q 334 111 281 137 q 470 85 387 85 q 688 191 634 85 q 720 337 720 253 l 720 955 l 833 955 l 833 365 q 747 78 833 172 q 470 -16 661 -16 m 472 1038 q 264 1167 345 1038 l 328 1212 q 398 1144 365 1167 q 472 1122 431 1122 q 545 1144 512 1122 q 615 1212 578 1167 l 681 1167 q 472 1038 599 1038 z "},"Û":{"ha":941,"x_min":108,"x_max":833,"o":"m 108 0 m 470 -16 q 194 78 280 -16 q 108 365 108 172 l 108 955 l 220 955 l 220 337 q 252 191 220 252 q 334 111 281 137 q 470 85 387 85 q 688 191 634 85 q 720 337 720 253 l 720 955 l 833 955 l 833 365 q 747 78 833 172 q 470 -16 661 -16 m 628 1028 l 472 1139 l 316 1028 l 259 1090 l 472 1250 l 684 1090 l 628 1028 z "},"Ü":{"ha":941,"x_min":108,"x_max":833,"o":"m 108 0 m 470 -16 q 194 78 280 -16 q 108 365 108 172 l 108 955 l 220 955 l 220 337 q 252 191 220 252 q 334 111 281 137 q 470 85 387 85 q 688 191 634 85 q 720 337 720 253 l 720 955 l 833 955 l 833 365 q 747 78 833 172 q 470 -16 661 -16 m 332 1068 q 286 1087 306 1068 q 267 1132 267 1106 q 286 1177 267 1158 q 332 1196 306 1196 q 377 1177 358 1196 q 396 1132 396 1158 q 377 1087 396 1106 q 332 1068 358 1068 m 606 1068 q 561 1087 580 1068 q 542 1132 542 1106 q 561 1177 542 1158 q 606 1196 580 1196 q 651 1177 632 1196 q 670 1132 670 1158 q 651 1087 670 1106 q 606 1068 632 1068 z "},"Ù":{"ha":941,"x_min":108,"x_max":833,"o":"m 108 0 m 470 -16 q 194 78 280 -16 q 108 365 108 172 l 108 955 l 220 955 l 220 337 q 252 191 220 252 q 334 111 281 137 q 470 85 387 85 q 688 191 634 85 q 720 337 720 253 l 720 955 l 833 955 l 833 365 q 747 78 833 172 q 470 -16 661 -16 m 648 1089 l 611 1017 l 316 1132 l 359 1224 l 648 1089 z "},"Ű":{"ha":941,"x_min":108,"x_max":927,"o":"m 108 0 m 470 -16 q 194 78 280 -16 q 108 365 108 172 l 108 955 l 220 955 l 220 337 q 252 191 220 252 q 334 111 281 137 q 470 85 387 85 q 688 191 634 85 q 720 337 720 253 l 720 955 l 833 955 l 833 365 q 747 78 833 172 q 470 -16 661 -16 m 269 1017 l 231 1089 l 519 1224 l 566 1132 l 269 1017 m 630 1017 l 592 1089 l 880 1224 l 927 1132 l 630 1017 z "},"Ū":{"ha":941,"x_min":108,"x_max":833,"o":"m 108 0 m 470 -16 q 194 78 280 -16 q 108 365 108 172 l 108 955 l 220 955 l 220 337 q 252 191 220 252 q 334 111 281 137 q 470 85 387 85 q 688 191 634 85 q 720 337 720 253 l 720 955 l 833 955 l 833 365 q 747 78 833 172 q 470 -16 661 -16 m 674 1071 l 259 1071 l 259 1158 l 674 1158 l 674 1071 z "},"Ų":{"ha":941,"x_min":108,"x_max":833,"o":"m 500 -366 q 397 -326 438 -366 q 356 -229 356 -286 q 391 -104 356 -155 q 423 -60 405 -80 q 469 -17 441 -40 q 215 58 311 -17 q 109 267 120 134 q 108 359 108 295 l 108 955 l 222 955 l 222 337 q 233 231 222 269 q 274 158 243 193 q 355 104 304 123 q 470 85 406 85 q 626 126 561 85 q 708 238 691 167 q 720 337 720 274 l 720 955 l 833 955 l 833 316 q 793 135 833 201 q 667 24 752 69 q 451 -205 451 -90 q 517 -276 451 -276 q 646 -231 582 -276 l 682 -302 q 590 -350 641 -333 q 500 -366 540 -366 z "},"Ů":{"ha":941,"x_min":108,"x_max":833,"o":"m 108 0 m 470 -16 q 194 78 280 -16 q 108 365 108 172 l 108 955 l 220 955 l 220 337 q 252 191 220 252 q 334 111 281 137 q 470 85 387 85 q 688 191 634 85 q 720 337 720 253 l 720 955 l 833 955 l 833 365 q 747 78 833 172 q 470 -16 661 -16 m 321 1170 q 365 1275 321 1231 q 469 1319 408 1319 q 574 1275 530 1319 q 618 1170 618 1231 q 574 1062 618 1106 q 469 1017 530 1017 q 365 1062 408 1017 q 321 1170 321 1106 m 549 1170 q 526 1227 549 1203 q 469 1252 503 1252 q 411 1228 432 1252 q 389 1170 389 1205 q 411 1109 389 1132 q 467 1085 432 1085 q 526 1109 503 1085 q 549 1170 549 1134 z "},"Ũ":{"ha":941,"x_min":108,"x_max":833,"o":"m 108 0 m 470 -16 q 194 78 280 -16 q 108 365 108 172 l 108 955 l 220 955 l 220 337 q 252 191 220 252 q 334 111 281 137 q 470 85 387 85 q 688 191 634 85 q 720 337 720 253 l 720 955 l 833 955 l 833 365 q 747 78 833 172 q 470 -16 661 -16 m 387 1193 q 433 1181 411 1193 q 486 1148 455 1170 q 552 1115 533 1115 q 601 1134 585 1115 q 627 1193 616 1153 l 707 1168 q 655 1069 694 1106 q 556 1031 615 1031 q 498 1044 524 1031 q 446 1078 472 1057 q 421 1094 439 1082 q 389 1106 403 1106 q 346 1088 361 1106 q 319 1030 332 1069 l 241 1054 q 293 1155 255 1118 q 387 1193 332 1193 z "},"V":{"ha":842,"x_min":16,"x_max":826,"o":"m 493 0 l 826 955 l 701 955 l 425 120 l 153 955 l 16 955 l 349 0 l 493 0 z "},"W":{"ha":1349,"x_min":16,"x_max":1333,"o":"m 438 0 l 674 799 l 925 0 l 1047 0 l 1333 955 l 1220 955 l 986 153 l 738 955 l 622 955 l 380 153 l 141 955 l 16 955 l 316 0 l 438 0 z "},"X":{"ha":856,"x_min":16,"x_max":840,"o":"m 193 955 l 52 955 l 359 500 l 16 0 l 155 0 l 424 403 l 693 0 l 840 0 l 500 502 l 804 955 l 674 955 l 436 597 l 193 955 z "},"Y":{"ha":788,"x_min":16,"x_max":773,"o":"m 773 955 l 642 955 l 396 563 l 151 955 l 16 955 l 332 453 l 332 0 l 446 0 l 446 453 l 773 955 z "},"Ý":{"ha":788,"x_min":16,"x_max":773,"o":"m 16 0 m 773 955 l 642 955 l 396 563 l 151 955 l 16 955 l 332 453 l 332 0 l 446 0 l 446 453 l 773 955 m 269 1017 l 231 1089 l 519 1224 l 566 1132 l 269 1017 z "},"Ŷ":{"ha":788,"x_min":16,"x_max":773,"o":"m 16 0 m 773 955 l 642 955 l 396 563 l 151 955 l 16 955 l 332 453 l 332 0 l 446 0 l 446 453 l 773 955 m 554 1028 l 398 1139 l 241 1028 l 184 1090 l 398 1250 l 609 1090 l 554 1028 z "},"Ÿ":{"ha":788,"x_min":16,"x_max":773,"o":"m 16 0 m 773 955 l 642 955 l 396 563 l 151 955 l 16 955 l 332 453 l 332 0 l 446 0 l 446 453 l 773 955 m 257 1068 q 212 1087 231 1068 q 193 1132 193 1106 q 212 1177 193 1158 q 257 1196 231 1196 q 302 1177 283 1196 q 321 1132 321 1158 q 302 1087 321 1106 q 257 1068 283 1068 m 531 1068 q 486 1087 505 1068 q 467 1132 467 1106 q 486 1177 467 1158 q 531 1196 505 1196 q 576 1177 557 1196 q 595 1132 595 1158 q 576 1087 595 1106 q 531 1068 557 1068 z "},"Z":{"ha":825,"x_min":63,"x_max":762,"o":"m 611 858 l 63 75 l 63 0 l 762 0 l 762 101 l 207 101 l 759 884 l 759 955 l 82 955 l 82 858 l 611 858 z "},"Ź":{"ha":825,"x_min":63,"x_max":762,"o":"m 63 0 m 611 858 l 63 75 l 63 0 l 762 0 l 762 101 l 207 101 l 759 884 l 759 955 l 82 955 l 82 858 l 611 858 m 293 1017 l 255 1089 l 543 1224 l 590 1132 l 293 1017 z "},"Ž":{"ha":825,"x_min":63,"x_max":762,"o":"m 63 0 m 611 858 l 63 75 l 63 0 l 762 0 l 762 101 l 207 101 l 759 884 l 759 955 l 82 955 l 82 858 l 611 858 m 207 1186 l 264 1250 l 420 1137 l 576 1250 l 632 1186 l 420 1028 l 207 1186 z "},"Ż":{"ha":825,"x_min":63,"x_max":762,"o":"m 63 0 m 611 858 l 63 75 l 63 0 l 762 0 l 762 101 l 207 101 l 759 884 l 759 955 l 82 955 l 82 858 l 611 858 m 418 1075 q 367 1096 389 1075 q 345 1148 345 1118 q 367 1199 345 1177 q 418 1220 389 1220 q 470 1199 448 1220 q 491 1148 491 1177 q 470 1096 491 1118 q 418 1075 448 1075 z "},"a":{"ha":682,"x_min":66,"x_max":592,"o":"m 313 578 q 225 570 276 578 q 134 550 174 563 l 111 634 q 328 674 227 674 q 500 639 441 674 q 572 557 552 601 q 592 431 592 514 l 592 0 l 507 0 l 483 63 q 280 -17 384 -17 q 128 35 189 -17 q 66 167 66 87 q 114 296 66 245 q 231 365 161 347 q 479 391 319 387 l 479 396 q 465 500 479 467 q 313 578 438 578 m 295 73 q 396 93 352 73 q 479 149 439 113 l 479 309 q 302 295 359 307 q 207 254 238 281 q 175 179 175 227 q 211 101 175 128 q 295 73 247 73 z "},"á":{"ha":682,"x_min":66,"x_max":592,"o":"m 66 0 m 313 578 q 225 570 276 578 q 134 550 174 563 l 111 634 q 328 674 227 674 q 500 639 441 674 q 572 557 552 601 q 592 431 592 514 l 592 0 l 507 0 l 483 63 q 280 -17 384 -17 q 128 35 189 -17 q 66 167 66 87 q 114 296 66 245 q 231 365 161 347 q 479 391 319 387 l 479 396 q 465 500 479 467 q 313 578 438 578 m 295 73 q 396 93 352 73 q 479 149 439 113 l 479 309 q 302 295 359 307 q 207 254 238 281 q 175 179 175 227 q 211 101 175 128 q 295 73 247 73 m 472 955 l 212 741 l 155 807 l 410 1030 l 472 955 z "},"ă":{"ha":682,"x_min":66,"x_max":592,"o":"m 66 0 m 313 578 q 225 570 276 578 q 134 550 174 563 l 111 634 q 328 674 227 674 q 500 639 441 674 q 572 557 552 601 q 592 431 592 514 l 592 0 l 507 0 l 483 63 q 280 -17 384 -17 q 128 35 189 -17 q 66 167 66 87 q 114 296 66 245 q 231 365 161 347 q 479 391 319 387 l 479 396 q 465 500 479 467 q 313 578 438 578 m 295 73 q 396 93 352 73 q 479 149 439 113 l 479 309 q 302 295 359 307 q 207 254 238 281 q 175 179 175 227 q 211 101 175 128 q 295 73 247 73 m 328 839 q 406 867 377 839 q 457 944 436 896 l 531 911 q 457 799 507 845 q 328 753 406 753 q 201 799 252 753 q 123 911 149 845 l 198 944 q 250 867 220 896 q 328 839 280 839 z "},"ǎ":{"ha":682,"x_min":66,"x_max":592,"o":"m 66 0 m 313 578 q 225 570 276 578 q 134 550 174 563 l 111 634 q 328 674 227 674 q 500 639 441 674 q 572 557 552 601 q 592 431 592 514 l 592 0 l 507 0 l 483 63 q 280 -17 384 -17 q 128 35 189 -17 q 66 167 66 87 q 114 296 66 245 q 231 365 161 347 q 479 391 319 387 l 479 396 q 465 500 479 467 q 313 578 438 578 m 295 73 q 396 93 352 73 q 479 149 439 113 l 479 309 q 302 295 359 307 q 207 254 238 281 q 175 179 175 227 q 211 101 175 128 q 295 73 247 73 m 125 967 l 188 1028 l 328 885 l 469 1028 l 531 967 l 328 755 l 125 967 z "},"â":{"ha":682,"x_min":66,"x_max":592,"o":"m 66 0 m 313 578 q 225 570 276 578 q 134 550 174 563 l 111 634 q 328 674 227 674 q 500 639 441 674 q 572 557 552 601 q 592 431 592 514 l 592 0 l 507 0 l 483 63 q 280 -17 384 -17 q 128 35 189 -17 q 66 167 66 87 q 114 296 66 245 q 231 365 161 347 q 479 391 319 387 l 479 396 q 465 500 479 467 q 313 578 438 578 m 295 73 q 396 93 352 73 q 479 149 439 113 l 479 309 q 302 295 359 307 q 207 254 238 281 q 175 179 175 227 q 211 101 175 128 q 295 73 247 73 m 469 755 l 328 898 l 188 755 l 125 816 l 328 1028 l 531 816 l 469 755 z "},"ä":{"ha":682,"x_min":66,"x_max":592,"o":"m 66 0 m 313 578 q 225 570 276 578 q 134 550 174 563 l 111 634 q 328 674 227 674 q 500 639 441 674 q 572 557 552 601 q 592 431 592 514 l 592 0 l 507 0 l 483 63 q 280 -17 384 -17 q 128 35 189 -17 q 66 167 66 87 q 114 296 66 245 q 231 365 161 347 q 479 391 319 387 l 479 396 q 465 500 479 467 q 313 578 438 578 m 295 73 q 396 93 352 73 q 479 149 439 113 l 479 309 q 302 295 359 307 q 207 254 238 281 q 175 179 175 227 q 211 101 175 128 q 295 73 247 73 m 208 807 q 163 826 182 807 q 144 872 144 845 q 163 917 144 898 q 208 936 182 936 q 253 917 234 936 q 273 872 273 898 q 253 826 273 845 q 208 807 234 807 m 448 807 q 403 826 422 807 q 384 872 384 845 q 403 917 384 898 q 448 936 422 936 q 493 917 474 936 q 512 872 512 898 q 493 826 512 845 q 448 807 474 807 z "},"à":{"ha":682,"x_min":66,"x_max":592,"o":"m 66 0 m 313 578 q 225 570 276 578 q 134 550 174 563 l 111 634 q 328 674 227 674 q 500 639 441 674 q 572 557 552 601 q 592 431 592 514 l 592 0 l 507 0 l 483 63 q 280 -17 384 -17 q 128 35 189 -17 q 66 167 66 87 q 114 296 66 245 q 231 365 161 347 q 479 391 319 387 l 479 396 q 465 500 479 467 q 313 578 438 578 m 295 73 q 396 93 352 73 q 479 149 439 113 l 479 309 q 302 295 359 307 q 207 254 238 281 q 175 179 175 227 q 211 101 175 128 q 295 73 247 73 m 415 741 l 155 955 l 217 1030 l 472 807 l 415 741 z "},"ā":{"ha":682,"x_min":66,"x_max":592,"o":"m 66 0 m 313 578 q 225 570 276 578 q 134 550 174 563 l 111 634 q 328 674 227 674 q 500 639 441 674 q 572 557 552 601 q 592 431 592 514 l 592 0 l 507 0 l 483 63 q 280 -17 384 -17 q 128 35 189 -17 q 66 167 66 87 q 114 296 66 245 q 231 365 161 347 q 479 391 319 387 l 479 396 q 465 500 479 467 q 313 578 438 578 m 295 73 q 396 93 352 73 q 479 149 439 113 l 479 309 q 302 295 359 307 q 207 254 238 281 q 175 179 175 227 q 211 101 175 128 q 295 73 247 73 m 505 809 l 146 809 l 146 899 l 505 899 l 505 809 z "},"ą":{"ha":682,"x_min":66,"x_max":592,"o":"m 592 -19 q 450 -99 502 -62 q 361 -214 361 -155 q 380 -266 361 -248 q 431 -285 399 -285 q 543 -247 479 -285 l 576 -307 q 479 -355 523 -339 q 394 -372 436 -372 q 297 -339 337 -372 q 257 -250 257 -307 q 297 -135 257 -186 q 424 -33 337 -83 l 502 14 l 490 69 q 391 5 439 28 q 280 -17 342 -17 q 128 35 189 -17 q 66 167 66 87 q 114 296 66 245 q 231 365 161 347 q 479 391 319 387 l 479 396 q 465 500 479 467 q 313 578 438 578 q 225 570 276 578 q 134 550 174 563 l 111 634 q 328 674 227 674 q 500 639 441 674 q 572 557 552 601 q 592 431 592 514 l 592 -19 m 295 73 q 396 93 352 73 q 479 149 439 113 l 479 309 q 302 295 359 307 q 207 254 238 281 q 175 179 175 227 q 211 101 175 128 q 295 73 247 73 z "},"å":{"ha":682,"x_min":66,"x_max":592,"o":"m 66 0 m 313 578 q 225 570 276 578 q 134 550 174 563 l 111 634 q 328 674 227 674 q 500 639 441 674 q 572 557 552 601 q 592 431 592 514 l 592 0 l 507 0 l 483 63 q 280 -17 384 -17 q 128 35 189 -17 q 66 167 66 87 q 114 296 66 245 q 231 365 161 347 q 479 391 319 387 l 479 396 q 465 500 479 467 q 313 578 438 578 m 295 73 q 396 93 352 73 q 479 149 439 113 l 479 309 q 302 295 359 307 q 207 254 238 281 q 175 179 175 227 q 211 101 175 128 q 295 73 247 73 m 179 906 q 223 1012 179 967 q 328 1057 267 1057 q 431 1012 387 1057 q 476 906 476 967 q 432 800 476 845 q 328 755 389 755 q 223 800 267 755 q 179 906 179 845 m 408 906 q 385 964 408 941 q 328 988 363 988 q 270 965 292 988 q 248 906 248 943 q 270 848 248 872 q 326 825 292 825 q 385 848 363 825 q 408 906 408 872 z "},"ã":{"ha":682,"x_min":66,"x_max":592,"o":"m 66 0 m 313 578 q 225 570 276 578 q 134 550 174 563 l 111 634 q 328 674 227 674 q 500 639 441 674 q 572 557 552 601 q 592 431 592 514 l 592 0 l 507 0 l 483 63 q 280 -17 384 -17 q 128 35 189 -17 q 66 167 66 87 q 114 296 66 245 q 231 365 161 347 q 479 391 319 387 l 479 396 q 465 500 479 467 q 313 578 438 578 m 295 73 q 396 93 352 73 q 479 149 439 113 l 479 309 q 302 295 359 307 q 207 254 238 281 q 175 179 175 227 q 211 101 175 128 q 295 73 247 73 m 245 931 q 291 919 269 931 q 344 885 313 908 q 410 852 391 852 q 457 872 441 852 q 484 931 474 891 l 564 905 q 512 806 552 844 q 413 769 472 769 q 356 782 382 769 q 304 816 330 795 q 279 832 297 819 q 247 844 260 844 q 204 826 219 844 q 177 767 189 807 l 99 793 q 151 893 113 856 q 245 931 189 931 z "},"æ":{"ha":1092,"x_min":66,"x_max":1031,"o":"m 759 675 q 960 596 889 675 q 1031 373 1031 517 l 1031 313 l 1023 299 l 582 299 q 646 141 582 214 q 719 95 677 109 q 823 80 760 80 q 984 106 906 80 l 1005 23 q 792 -14 896 -14 q 535 101 606 -14 q 280 -17 446 -17 q 128 35 189 -17 q 66 167 66 87 q 112 294 66 245 q 227 361 158 344 q 479 391 340 391 l 479 396 q 465 500 479 467 q 313 578 438 578 q 225 570 276 578 q 134 550 174 563 l 111 634 q 328 674 227 674 q 500 639 441 674 q 554 578 540 609 q 645 652 597 628 q 759 675 693 675 m 918 389 q 881 531 918 476 q 769 587 844 587 q 583 389 609 587 l 918 389 m 295 73 q 396 93 352 73 q 479 149 439 113 l 479 309 q 330 302 387 307 q 224 268 273 297 q 175 179 175 240 q 205 102 175 130 q 295 73 234 73 z "},"b":{"ha":762,"x_min":101,"x_max":696,"o":"m 101 0 l 101 924 l 214 924 l 214 649 q 375 681 281 681 q 604 597 516 681 q 696 326 696 505 q 617 79 696 172 q 391 -14 538 -14 q 201 47 293 -14 l 181 0 l 101 0 m 363 82 q 526 142 474 82 q 578 333 578 203 q 523 519 578 450 q 361 589 469 589 q 214 563 280 589 l 214 122 q 286 91 253 101 q 363 82 318 82 z "},"c":{"ha":630,"x_min":66,"x_max":582,"o":"m 389 -16 q 150 73 234 -16 q 66 321 66 161 q 153 578 66 470 q 411 675 240 675 q 582 639 497 675 l 554 556 q 417 582 493 582 q 240 520 299 582 q 181 342 181 458 q 252 135 181 193 q 427 78 323 78 q 554 101 493 78 l 580 23 q 389 -16 479 -16 z "},"ć":{"ha":630,"x_min":66,"x_max":582,"o":"m 66 0 m 389 -16 q 150 73 234 -16 q 66 321 66 161 q 153 578 66 470 q 411 675 240 675 q 582 639 497 675 l 554 556 q 417 582 493 582 q 240 520 299 582 q 181 342 181 458 q 252 135 181 193 q 427 78 323 78 q 554 101 493 78 l 580 23 q 389 -16 479 -16 m 512 955 l 252 741 l 194 807 l 450 1030 l 512 955 z "},"č":{"ha":630,"x_min":66,"x_max":582,"o":"m 66 0 m 389 -16 q 150 73 234 -16 q 66 321 66 161 q 153 578 66 470 q 411 675 240 675 q 582 639 497 675 l 554 556 q 417 582 493 582 q 240 520 299 582 q 181 342 181 458 q 252 135 181 193 q 427 78 323 78 q 554 101 493 78 l 580 23 q 389 -16 479 -16 m 165 967 l 227 1028 l 368 885 l 509 1028 l 571 967 l 368 755 l 165 967 z "},"ç":{"ha":622,"x_min":66,"x_max":576,"o":"m 373 -276 q 444 -227 444 -280 q 373 -167 444 -184 l 280 -141 l 313 -10 q 129 95 193 9 q 66 321 66 181 q 148 576 66 483 q 403 675 231 675 q 576 639 491 675 l 547 556 q 411 582 486 582 q 234 520 293 582 q 174 342 174 458 q 227 156 174 219 q 391 80 280 94 q 420 78 399 78 q 542 101 488 78 l 569 23 q 396 -16 470 -14 l 378 -85 l 403 -92 q 497 -142 462 -111 q 531 -236 531 -174 q 491 -326 531 -292 q 378 -359 451 -359 q 312 -353 344 -359 q 233 -333 280 -347 l 212 -326 l 236 -247 l 257 -252 q 373 -276 319 -271 z "},"ĉ":{"ha":630,"x_min":66,"x_max":582,"o":"m 66 0 m 389 -16 q 150 73 234 -16 q 66 321 66 161 q 153 578 66 470 q 411 675 240 675 q 582 639 497 675 l 554 556 q 417 582 493 582 q 240 520 299 582 q 181 342 181 458 q 252 135 181 193 q 427 78 323 78 q 554 101 493 78 l 580 23 q 389 -16 479 -16 m 509 755 l 368 898 l 227 755 l 165 816 l 368 1028 l 571 816 l 509 755 z "},"ċ":{"ha":630,"x_min":66,"x_max":582,"o":"m 66 0 m 389 -16 q 150 73 234 -16 q 66 321 66 161 q 153 578 66 470 q 411 675 240 675 q 582 639 497 675 l 554 556 q 417 582 493 582 q 240 520 299 582 q 181 342 181 458 q 252 135 181 193 q 427 78 323 78 q 554 101 493 78 l 580 23 q 389 -16 479 -16 m 366 809 q 315 831 337 809 q 293 882 293 852 q 315 933 293 911 q 366 955 337 955 q 418 933 396 955 q 439 882 439 911 q 418 831 439 852 q 366 809 396 809 z "},"d":{"ha":762,"x_min":66,"x_max":665,"o":"m 375 -14 q 146 79 226 -14 q 66 326 66 172 q 161 592 66 497 q 391 681 253 681 q 547 649 483 681 l 547 924 l 665 924 l 665 0 l 582 0 l 563 47 q 375 -14 469 -14 m 398 82 q 477 91 444 82 q 547 122 509 101 l 547 563 q 399 589 483 589 q 237 519 292 589 q 182 333 182 450 q 237 150 182 219 q 398 82 292 82 z "},"ð":{"ha":771,"x_min":63,"x_max":705,"o":"m 500 894 q 328 983 424 953 l 286 894 q 411 833 351 872 l 307 762 l 345 700 l 470 785 q 576 576 552 705 q 365 635 455 635 q 207 593 276 635 q 100 475 137 550 q 63 307 63 399 q 102 148 63 220 q 213 30 141 75 q 382 -14 285 -14 q 625 109 545 -14 q 705 427 705 231 q 557 844 705 684 l 651 908 l 615 972 l 500 894 m 590 429 q 545 179 590 259 q 480 103 516 128 q 389 78 444 78 q 234 147 292 78 q 177 313 177 215 q 234 478 177 413 q 396 543 290 543 q 589 479 474 543 q 590 429 590 464 z "},"ď":{"ha":861,"x_min":66,"x_max":873,"o":"m 809 755 l 729 755 l 769 1017 l 873 1017 l 809 755 m 375 -14 q 146 79 226 -14 q 66 326 66 172 q 161 592 66 497 q 391 681 253 681 q 547 649 483 681 l 547 924 l 665 924 l 665 0 l 582 0 l 563 47 q 375 -14 469 -14 m 398 82 q 477 91 444 82 q 547 122 509 101 l 547 563 q 399 589 483 589 q 237 519 292 589 q 182 333 182 450 q 237 150 182 219 q 398 82 292 82 z "},"đ":{"ha":774,"x_min":66,"x_max":762,"o":"m 375 -14 q 146 79 226 -14 q 66 326 66 172 q 161 592 66 497 q 391 681 253 681 q 547 649 483 681 l 547 762 l 368 762 l 368 842 l 547 842 l 547 924 l 665 924 l 665 842 l 762 842 l 762 762 l 665 762 l 665 0 l 582 0 l 563 47 q 375 -14 469 -14 m 398 82 q 477 91 444 82 q 547 122 509 101 l 547 563 q 399 589 483 589 q 237 519 292 589 q 182 333 182 450 q 237 150 182 219 q 398 82 292 82 z "},"e":{"ha":701,"x_min":66,"x_max":639,"o":"m 365 675 q 568 596 497 675 q 639 373 639 517 l 639 313 l 632 299 l 175 299 q 240 141 175 214 q 429 80 300 80 q 590 106 514 80 l 611 23 q 398 -14 505 -14 q 151 73 236 -14 q 66 321 66 160 q 141 573 66 474 q 365 675 220 675 m 524 389 q 487 531 524 476 q 377 587 450 587 q 236 531 285 587 q 177 389 188 476 l 524 389 z "},"é":{"ha":701,"x_min":66,"x_max":639,"o":"m 66 0 m 365 675 q 568 596 497 675 q 639 373 639 517 l 639 313 l 632 299 l 175 299 q 240 141 175 214 q 429 80 300 80 q 590 106 514 80 l 611 23 q 398 -14 505 -14 q 151 73 236 -14 q 66 321 66 160 q 141 573 66 474 q 365 675 220 675 m 524 389 q 487 531 524 476 q 377 587 450 587 q 236 531 285 587 q 177 389 188 476 l 524 389 m 509 955 l 248 741 l 191 807 l 446 1030 l 509 955 z "},"ĕ":{"ha":701,"x_min":66,"x_max":639,"o":"m 66 0 m 365 675 q 568 596 497 675 q 639 373 639 517 l 639 313 l 632 299 l 175 299 q 240 141 175 214 q 429 80 300 80 q 590 106 514 80 l 611 23 q 398 -14 505 -14 q 151 73 236 -14 q 66 321 66 160 q 141 573 66 474 q 365 675 220 675 m 524 389 q 487 531 524 476 q 377 587 450 587 q 236 531 285 587 q 177 389 188 476 l 524 389 m 365 839 q 443 867 413 839 q 493 944 472 896 l 568 911 q 493 799 543 845 q 365 753 443 753 q 237 799 288 753 q 160 911 186 845 l 234 944 q 286 867 257 896 q 365 839 316 839 z "},"ě":{"ha":701,"x_min":66,"x_max":639,"o":"m 66 0 m 365 675 q 568 596 497 675 q 639 373 639 517 l 639 313 l 632 299 l 175 299 q 240 141 175 214 q 429 80 300 80 q 590 106 514 80 l 611 23 q 398 -14 505 -14 q 151 73 236 -14 q 66 321 66 160 q 141 573 66 474 q 365 675 220 675 m 524 389 q 487 531 524 476 q 377 587 450 587 q 236 531 285 587 q 177 389 188 476 l 524 389 m 161 967 l 224 1028 l 365 885 l 505 1028 l 568 967 l 365 755 l 161 967 z "},"ê":{"ha":701,"x_min":66,"x_max":639,"o":"m 66 0 m 365 675 q 568 596 497 675 q 639 373 639 517 l 639 313 l 632 299 l 175 299 q 240 141 175 214 q 429 80 300 80 q 590 106 514 80 l 611 23 q 398 -14 505 -14 q 151 73 236 -14 q 66 321 66 160 q 141 573 66 474 q 365 675 220 675 m 524 389 q 487 531 524 476 q 377 587 450 587 q 236 531 285 587 q 177 389 188 476 l 524 389 m 505 755 l 365 898 l 224 755 l 161 816 l 365 1028 l 568 816 l 505 755 z "},"ë":{"ha":701,"x_min":66,"x_max":639,"o":"m 66 0 m 365 675 q 568 596 497 675 q 639 373 639 517 l 639 313 l 632 299 l 175 299 q 240 141 175 214 q 429 80 300 80 q 590 106 514 80 l 611 23 q 398 -14 505 -14 q 151 73 236 -14 q 66 321 66 160 q 141 573 66 474 q 365 675 220 675 m 524 389 q 487 531 524 476 q 377 587 450 587 q 236 531 285 587 q 177 389 188 476 l 524 389 m 245 807 q 200 826 219 807 q 181 872 181 845 q 200 917 181 898 q 245 936 219 936 q 290 917 271 936 q 309 872 309 898 q 290 826 309 845 q 245 807 271 807 m 484 807 q 439 826 458 807 q 420 872 420 845 q 439 917 420 898 q 484 936 458 936 q 530 917 510 936 q 549 872 549 898 q 530 826 549 845 q 484 807 510 807 z "},"ė":{"ha":701,"x_min":66,"x_max":639,"o":"m 66 0 m 365 675 q 568 596 497 675 q 639 373 639 517 l 639 313 l 632 299 l 175 299 q 240 141 175 214 q 429 80 300 80 q 590 106 514 80 l 611 23 q 398 -14 505 -14 q 151 73 236 -14 q 66 321 66 160 q 141 573 66 474 q 365 675 220 675 m 524 389 q 487 531 524 476 q 377 587 450 587 q 236 531 285 587 q 177 389 188 476 l 524 389 m 363 809 q 312 831 333 809 q 290 882 290 852 q 312 933 290 911 q 363 955 333 955 q 414 933 392 955 q 436 882 436 911 q 414 831 436 852 q 363 809 392 809 z "},"è":{"ha":701,"x_min":66,"x_max":639,"o":"m 66 0 m 365 675 q 568 596 497 675 q 639 373 639 517 l 639 313 l 632 299 l 175 299 q 240 141 175 214 q 429 80 300 80 q 590 106 514 80 l 611 23 q 398 -14 505 -14 q 151 73 236 -14 q 66 321 66 160 q 141 573 66 474 q 365 675 220 675 m 524 389 q 487 531 524 476 q 377 587 450 587 q 236 531 285 587 q 177 389 188 476 l 524 389 m 451 741 l 191 955 l 253 1030 l 509 807 l 451 741 z "},"ē":{"ha":701,"x_min":66,"x_max":639,"o":"m 66 0 m 365 675 q 568 596 497 675 q 639 373 639 517 l 639 313 l 632 299 l 175 299 q 240 141 175 214 q 429 80 300 80 q 590 106 514 80 l 611 23 q 398 -14 505 -14 q 151 73 236 -14 q 66 321 66 160 q 141 573 66 474 q 365 675 220 675 m 524 389 q 487 531 524 476 q 377 587 450 587 q 236 531 285 587 q 177 389 188 476 l 524 389 m 542 809 l 182 809 l 182 899 l 542 899 l 542 809 z "},"ę":{"ha":701,"x_min":66,"x_max":639,"o":"m 405 -14 q 168 56 271 -14 q 66 321 66 127 q 141 573 66 474 q 365 675 220 675 q 568 596 497 675 q 639 373 639 517 l 639 313 l 632 299 l 175 299 q 240 141 175 214 q 429 80 300 80 q 590 106 514 80 l 611 23 q 481 -45 535 0 q 378 -208 378 -132 q 451 -285 378 -285 q 508 -273 476 -285 q 563 -247 540 -262 l 592 -304 q 504 -352 542 -339 q 424 -366 467 -366 q 313 -329 351 -366 q 276 -234 276 -292 q 309 -122 276 -179 q 405 -14 342 -64 m 524 389 q 487 531 524 476 q 377 587 450 587 q 236 531 285 587 q 177 389 188 476 l 524 389 z "},"f":{"ha":500,"x_min":49,"x_max":528,"o":"m 401 873 q 306 845 344 873 q 262 774 269 818 q 259 727 259 753 l 259 667 l 479 667 l 479 578 l 260 578 l 260 0 l 148 0 l 148 578 l 49 578 l 49 667 l 144 667 l 144 734 q 167 859 144 819 q 366 962 224 962 q 528 936 438 962 l 509 852 q 401 873 434 873 z "},"g":{"ha":762,"x_min":66,"x_max":661,"o":"m 547 31 q 372 -14 460 -14 q 127 109 212 -14 q 66 321 66 200 q 119 530 66 444 q 266 655 172 616 q 378 675 309 675 q 535 641 460 675 l 568 625 l 580 667 l 661 667 l 661 -31 q 641 -179 661 -123 q 569 -281 620 -234 q 466 -343 528 -321 q 328 -365 405 -365 q 223 -352 280 -365 q 125 -321 167 -340 l 155 -241 q 313 -276 253 -276 q 476 -226 417 -276 q 545 -83 535 -175 q 547 14 547 -64 l 547 31 m 398 78 q 547 115 484 78 l 547 550 q 392 585 469 585 q 234 517 288 585 q 181 337 181 450 q 212 193 181 255 q 297 102 243 130 q 398 78 340 78 z "},"ğ":{"ha":762,"x_min":66,"x_max":661,"o":"m 66 0 m 547 31 q 372 -14 460 -14 q 127 109 212 -14 q 66 321 66 200 q 119 530 66 444 q 266 655 172 616 q 378 675 309 675 q 535 641 460 675 l 568 625 l 580 667 l 661 667 l 661 -31 q 641 -179 661 -123 q 569 -281 620 -234 q 466 -343 528 -321 q 328 -365 405 -365 q 223 -352 280 -365 q 125 -321 167 -340 l 155 -241 q 313 -276 253 -276 q 476 -226 417 -276 q 545 -83 535 -175 q 547 14 547 -64 l 547 31 m 398 78 q 547 115 484 78 l 547 550 q 392 585 469 585 q 234 517 288 585 q 181 337 181 450 q 212 193 181 255 q 297 102 243 130 q 398 78 340 78 m 378 839 q 457 867 427 839 q 507 944 486 896 l 582 911 q 507 799 557 845 q 378 753 457 753 q 251 799 302 753 q 174 911 200 845 l 248 944 q 300 867 271 896 q 378 839 330 839 z "},"ĝ":{"ha":762,"x_min":66,"x_max":661,"o":"m 66 0 m 547 31 q 372 -14 460 -14 q 127 109 212 -14 q 66 321 66 200 q 119 530 66 444 q 266 655 172 616 q 378 675 309 675 q 535 641 460 675 l 568 625 l 580 667 l 661 667 l 661 -31 q 641 -179 661 -123 q 569 -281 620 -234 q 466 -343 528 -321 q 328 -365 405 -365 q 223 -352 280 -365 q 125 -321 167 -340 l 155 -241 q 313 -276 253 -276 q 476 -226 417 -276 q 545 -83 535 -175 q 547 14 547 -64 l 547 31 m 398 78 q 547 115 484 78 l 547 550 q 392 585 469 585 q 234 517 288 585 q 181 337 181 450 q 212 193 181 255 q 297 102 243 130 q 398 78 340 78 m 519 755 l 378 898 l 238 755 l 175 816 l 378 1028 l 582 816 l 519 755 z "},"ģ":{"ha":762,"x_min":66,"x_max":661,"o":"m 411 755 l 332 755 l 372 1017 l 476 1017 l 411 755 m 547 31 q 372 -14 460 -14 q 127 109 212 -14 q 66 321 66 200 q 119 530 66 444 q 266 655 172 616 q 378 675 309 675 q 535 641 460 675 l 568 625 l 580 667 l 661 667 l 661 -31 q 641 -179 661 -123 q 569 -281 620 -234 q 466 -343 528 -321 q 328 -365 405 -365 q 223 -352 280 -365 q 125 -321 167 -340 l 155 -241 q 313 -276 253 -276 q 476 -226 417 -276 q 545 -83 535 -175 q 547 14 547 -64 l 547 31 m 398 78 q 547 115 484 78 l 547 550 q 392 585 469 585 q 234 517 288 585 q 181 337 181 450 q 212 193 181 255 q 297 102 243 130 q 398 78 340 78 z "},"ġ":{"ha":762,"x_min":66,"x_max":661,"o":"m 66 0 m 547 31 q 372 -14 460 -14 q 127 109 212 -14 q 66 321 66 200 q 119 530 66 444 q 266 655 172 616 q 378 675 309 675 q 535 641 460 675 l 568 625 l 580 667 l 661 667 l 661 -31 q 641 -179 661 -123 q 569 -281 620 -234 q 466 -343 528 -321 q 328 -365 405 -365 q 223 -352 280 -365 q 125 -321 167 -340 l 155 -241 q 313 -276 253 -276 q 476 -226 417 -276 q 545 -83 535 -175 q 547 14 547 -64 l 547 31 m 398 78 q 547 115 484 78 l 547 550 q 392 585 469 585 q 234 517 288 585 q 181 337 181 450 q 212 193 181 255 q 297 102 243 130 q 398 78 340 78 m 377 809 q 326 831 347 809 q 304 882 304 852 q 326 933 304 911 q 377 955 347 955 q 428 933 406 955 q 450 882 450 911 q 428 831 450 852 q 377 809 406 809 z "},"h":{"ha":747,"x_min":104,"x_max":658,"o":"m 543 427 q 510 550 543 512 q 396 589 477 589 q 217 540 319 589 l 217 0 l 104 0 l 104 924 l 217 924 l 217 623 q 439 684 333 684 q 601 622 543 684 q 658 453 658 561 l 658 0 l 543 0 l 543 427 z "},"i":{"ha":314,"x_min":85,"x_max":229,"o":"m 158 795 q 106 817 127 795 q 85 868 85 839 q 106 918 85 896 q 158 939 127 939 q 208 918 188 939 q 229 868 229 896 q 209 817 229 839 q 158 795 189 795 m 214 0 l 101 0 l 101 667 l 214 667 l 214 0 z "},"ı":{"ha":314,"x_min":101,"x_max":214,"o":"m 214 0 l 101 0 l 101 667 l 214 667 l 214 0 z "},"í":{"ha":314,"x_min":-16,"x_max":302,"o":"m 0 0 m 214 0 l 101 0 l 101 667 l 214 667 l 214 0 m 302 955 l 42 741 l -16 807 l 240 1030 l 302 955 z "},"ĭ":{"ha":314,"x_min":-47,"x_max":361,"o":"m 0 0 m 214 0 l 101 0 l 101 667 l 214 667 l 214 0 m 158 839 q 236 867 207 839 q 286 944 266 896 l 361 911 q 286 799 337 845 q 158 753 236 753 q 30 799 82 753 q -47 911 -21 845 l 28 944 q 80 867 50 896 q 158 839 109 839 z "},"î":{"ha":314,"x_min":-45,"x_max":361,"o":"m 0 0 m 214 0 l 101 0 l 101 667 l 214 667 l 214 0 m 299 755 l 158 898 l 17 755 l -45 816 l 158 1028 l 361 816 l 299 755 z "},"ï":{"ha":314,"x_min":-26,"x_max":342,"o":"m 0 0 m 214 0 l 101 0 l 101 667 l 214 667 l 214 0 m 38 807 q -7 826 12 807 q -26 872 -26 845 q -7 917 -26 898 q 38 936 12 936 q 83 917 64 936 q 102 872 102 898 q 83 826 102 845 q 38 807 64 807 m 278 807 q 233 826 252 807 q 214 872 214 845 q 233 917 214 898 q 278 936 252 936 q 323 917 304 936 q 342 872 342 898 q 323 826 342 845 q 278 807 304 807 z "},"ì":{"ha":314,"x_min":-16,"x_max":302,"o":"m 0 0 m 214 0 l 101 0 l 101 667 l 214 667 l 214 0 m 245 741 l -16 955 l 47 1030 l 302 807 l 245 741 z "},"ĳ":{"ha":576,"x_min":101,"x_max":476,"o":"m 214 809 l 101 809 l 101 924 l 214 924 l 214 809 m 476 809 l 366 809 l 366 924 l 476 924 l 476 809 m 214 0 l 101 0 l 101 667 l 214 667 l 214 0 m 476 667 l 476 -87 q 470 -181 476 -155 q 446 -248 465 -207 q 299 -361 408 -328 l 257 -280 q 366 -108 366 -227 l 366 667 l 476 667 z "},"ī":{"ha":314,"x_min":-24,"x_max":335,"o":"m 0 0 m 214 0 l 101 0 l 101 667 l 214 667 l 214 0 m 335 809 l -24 809 l -24 899 l 335 899 l 335 809 z "},"į":{"ha":344,"x_min":-66,"x_max":253,"o":"m 241 830 l 111 830 l 111 955 l 241 955 l 241 830 m 231 667 l 231 -12 q 115 -80 168 -42 q 53 -146 69 -116 q 36 -203 36 -175 q 56 -265 36 -245 q 109 -285 76 -285 q 222 -247 156 -285 l 253 -307 q 157 -356 200 -340 q 73 -372 115 -372 q -26 -336 14 -372 q -66 -227 -66 -300 q -33 -118 -66 -172 q 75 -17 0 -64 l 120 7 l 120 667 l 231 667 z "},"ĩ":{"ha":314,"x_min":-71,"x_max":394,"o":"m 0 0 m 214 0 l 101 0 l 101 667 l 214 667 l 214 0 m 75 931 q 121 919 99 931 q 174 885 142 908 q 240 852 220 852 q 287 872 271 852 q 314 931 304 891 l 394 905 q 342 806 382 844 q 243 769 302 769 q 186 782 212 769 q 134 816 160 795 q 109 832 127 819 q 76 844 90 844 q 34 826 49 844 q 7 767 19 807 l -71 793 q -19 893 -57 856 q 75 931 19 931 z "},"j":{"ha":313,"x_min":-7,"x_max":227,"o":"m 0 0 m 212 667 l 212 -87 q 207 -181 212 -155 q 182 -248 201 -207 q 35 -361 144 -328 l -7 -280 q 102 -108 102 -227 l 102 667 l 212 667 m 155 809 q 103 831 125 809 q 82 882 82 852 q 103 933 82 911 q 155 955 125 955 q 206 933 184 955 q 227 882 227 911 q 206 831 227 852 q 155 809 184 809 z "},"ȷ":{"ha":313,"x_min":-7,"x_max":212,"o":"m 212 667 l 212 -87 q 207 -181 212 -155 q 182 -248 201 -207 q 35 -361 144 -328 l -7 -280 q 102 -108 102 -227 l 102 667 l 212 667 z "},"ĵ":{"ha":313,"x_min":-47,"x_max":359,"o":"m 0 0 m 212 667 l 212 -87 q 207 -181 212 -155 q 182 -248 201 -207 q 35 -361 144 -328 l -7 -280 q 102 -108 102 -227 l 102 667 l 212 667 m 297 755 l 156 898 l 16 755 l -47 816 l 156 1028 l 359 816 l 297 755 z "},"k":{"ha":694,"x_min":104,"x_max":668,"o":"m 217 0 l 104 0 l 104 924 l 217 924 l 217 0 m 363 368 l 668 0 l 530 0 l 229 368 l 521 667 l 653 667 l 363 368 z "},"ķ":{"ha":694,"x_min":104,"x_max":668,"o":"m 104 0 m 217 0 l 104 0 l 104 924 l 217 924 l 217 0 m 363 368 l 668 0 l 530 0 l 229 368 l 521 667 l 653 667 l 363 368 m 344 -345 l 252 -345 l 313 -83 l 429 -83 l 344 -345 z "},"l":{"ha":382,"x_min":97,"x_max":375,"o":"m 295 89 q 354 99 321 89 l 375 17 q 333 0 370 16 q 240 -16 297 -16 q 137 29 175 -16 q 97 144 99 73 l 97 925 l 207 925 l 207 184 q 222 113 207 137 q 295 89 238 89 z "},"ĺ":{"ha":382,"x_min":97,"x_max":436,"o":"m 97 0 m 295 89 q 354 99 321 89 l 375 17 q 333 0 370 16 q 240 -16 297 -16 q 137 29 175 -16 q 97 144 99 73 l 97 925 l 207 925 l 207 184 q 222 113 207 137 q 295 89 238 89 m 436 1214 l 175 1000 l 118 1066 l 373 1288 l 436 1214 z "},"ľ":{"ha":425,"x_min":97,"x_max":425,"o":"m 361 755 l 281 755 l 321 1017 l 425 1017 l 361 755 m 295 89 q 354 99 321 89 l 375 17 q 323 -1 361 14 q 240 -16 285 -16 q 137 29 175 -16 q 97 144 99 73 l 97 925 l 207 925 l 207 184 q 222 113 207 137 q 295 89 238 89 z "},"ļ":{"ha":382,"x_min":97,"x_max":375,"o":"m 97 0 m 295 89 q 354 99 321 89 l 375 17 q 333 0 370 16 q 240 -16 297 -16 q 137 29 175 -16 q 97 144 99 73 l 97 925 l 207 925 l 207 184 q 222 113 207 137 q 295 89 238 89 m 219 -345 l 127 -345 l 188 -83 l 304 -83 l 219 -345 z "},"ł":{"ha":424,"x_min":28,"x_max":411,"o":"m 330 89 q 369 94 349 89 q 411 106 389 99 l 411 17 q 350 -6 380 3 q 276 -16 319 -16 q 174 29 212 -16 q 134 144 135 73 l 134 396 l 28 337 l 28 438 l 134 498 l 134 925 l 243 925 l 243 563 l 403 653 l 403 552 l 243 460 l 243 184 q 258 113 243 137 q 330 89 273 89 z "},"m":{"ha":1101,"x_min":97,"x_max":1010,"o":"m 894 424 q 764 587 894 587 q 604 528 700 587 q 609 451 609 509 l 609 0 l 497 0 l 497 424 q 365 587 497 587 q 210 536 302 587 l 210 0 l 97 0 l 97 667 l 175 667 l 200 611 q 309 667 259 651 q 401 677 349 677 q 503 655 458 677 q 575 592 547 632 q 684 655 632 634 q 799 677 736 677 q 956 615 901 677 q 1010 451 1010 554 l 1010 0 l 894 0 l 894 424 z "},"n":{"ha":741,"x_min":97,"x_max":651,"o":"m 538 424 q 506 545 538 509 q 394 582 474 582 q 210 535 309 582 l 210 0 l 97 0 l 97 667 l 175 667 l 200 611 q 434 677 319 677 q 595 617 540 677 q 651 451 651 557 l 651 0 l 538 0 l 538 424 z "},"ń":{"ha":741,"x_min":97,"x_max":651,"o":"m 97 0 m 538 424 q 506 545 538 509 q 394 582 474 582 q 210 535 309 582 l 210 0 l 97 0 l 97 667 l 175 667 l 200 611 q 434 677 319 677 q 595 617 540 677 q 651 451 651 557 l 651 0 l 538 0 l 538 424 m 521 955 l 260 741 l 203 807 l 458 1030 l 521 955 z "},"ň":{"ha":741,"x_min":97,"x_max":651,"o":"m 97 0 m 538 424 q 506 545 538 509 q 394 582 474 582 q 210 535 309 582 l 210 0 l 97 0 l 97 667 l 175 667 l 200 611 q 434 677 319 677 q 595 617 540 677 q 651 451 651 557 l 651 0 l 538 0 l 538 424 m 174 967 l 236 1028 l 377 885 l 517 1028 l 580 967 l 377 755 l 174 967 z "},"ņ":{"ha":741,"x_min":97,"x_max":651,"o":"m 97 0 m 538 424 q 506 545 538 509 q 394 582 474 582 q 210 535 309 582 l 210 0 l 97 0 l 97 667 l 175 667 l 200 611 q 434 677 319 677 q 595 617 540 677 q 651 451 651 557 l 651 0 l 538 0 l 538 424 m 351 -345 l 259 -345 l 319 -83 l 436 -83 l 351 -345 z "},"ñ":{"ha":741,"x_min":97,"x_max":651,"o":"m 97 0 m 538 424 q 506 545 538 509 q 394 582 474 582 q 210 535 309 582 l 210 0 l 97 0 l 97 667 l 175 667 l 200 611 q 434 677 319 677 q 595 617 540 677 q 651 451 651 557 l 651 0 l 538 0 l 538 424 m 293 931 q 339 919 318 931 q 392 885 361 908 q 458 852 439 852 q 506 872 490 852 q 533 931 523 891 l 613 905 q 561 806 601 844 q 462 769 521 769 q 405 782 431 769 q 352 816 378 795 q 327 832 345 819 q 295 844 309 844 q 253 826 267 844 q 226 767 238 807 l 148 793 q 200 893 161 856 q 293 931 238 931 z "},"o":{"ha":776,"x_min":66,"x_max":710,"o":"m 385 -16 q 150 78 234 -16 q 66 330 66 172 q 152 582 66 490 q 391 675 238 675 q 627 583 543 675 q 710 332 710 491 q 623 80 710 175 q 385 -16 536 -16 m 391 587 q 237 514 292 587 q 182 330 182 441 q 237 148 182 219 q 391 76 292 76 q 542 148 488 76 q 595 330 595 220 q 541 514 595 441 q 391 587 486 587 z "},"ó":{"ha":776,"x_min":66,"x_max":710,"o":"m 66 0 m 385 -16 q 150 78 234 -16 q 66 330 66 172 q 152 582 66 490 q 391 675 238 675 q 627 583 543 675 q 710 332 710 491 q 623 80 710 175 q 385 -16 536 -16 m 391 587 q 237 514 292 587 q 182 330 182 441 q 237 148 182 219 q 391 76 292 76 q 542 148 488 76 q 595 330 595 220 q 541 514 595 441 q 391 587 486 587 m 535 955 l 274 741 l 217 807 l 472 1030 l 535 955 z "},"ŏ":{"ha":776,"x_min":66,"x_max":710,"o":"m 66 0 m 385 -16 q 150 78 234 -16 q 66 330 66 172 q 152 582 66 490 q 391 675 238 675 q 627 583 543 675 q 710 332 710 491 q 623 80 710 175 q 385 -16 536 -16 m 391 587 q 237 514 292 587 q 182 330 182 441 q 237 148 182 219 q 391 76 292 76 q 542 148 488 76 q 595 330 595 220 q 541 514 595 441 q 391 587 486 587 m 391 839 q 469 867 439 839 q 519 944 498 896 l 594 911 q 519 799 569 845 q 391 753 469 753 q 263 799 314 753 q 186 911 212 845 l 260 944 q 313 867 283 896 q 391 839 342 839 z "},"ô":{"ha":776,"x_min":66,"x_max":710,"o":"m 66 0 m 385 -16 q 150 78 234 -16 q 66 330 66 172 q 152 582 66 490 q 391 675 238 675 q 627 583 543 675 q 710 332 710 491 q 623 80 710 175 q 385 -16 536 -16 m 391 587 q 237 514 292 587 q 182 330 182 441 q 237 148 182 219 q 391 76 292 76 q 542 148 488 76 q 595 330 595 220 q 541 514 595 441 q 391 587 486 587 m 531 755 l 391 898 l 250 755 l 188 816 l 391 1028 l 594 816 l 531 755 z "},"ö":{"ha":776,"x_min":66,"x_max":710,"o":"m 66 0 m 385 -16 q 150 78 234 -16 q 66 330 66 172 q 152 582 66 490 q 391 675 238 675 q 627 583 543 675 q 710 332 710 491 q 623 80 710 175 q 385 -16 536 -16 m 391 587 q 237 514 292 587 q 182 330 182 441 q 237 148 182 219 q 391 76 292 76 q 542 148 488 76 q 595 330 595 220 q 541 514 595 441 q 391 587 486 587 m 271 807 q 226 826 245 807 q 207 872 207 845 q 226 917 207 898 q 271 936 245 936 q 316 917 297 936 q 335 872 335 898 q 316 826 335 845 q 271 807 297 807 m 510 807 q 465 826 484 807 q 446 872 446 845 q 465 917 446 898 q 510 936 484 936 q 556 917 536 936 q 575 872 575 898 q 556 826 575 845 q 510 807 536 807 z "},"ò":{"ha":776,"x_min":66,"x_max":710,"o":"m 66 0 m 385 -16 q 150 78 234 -16 q 66 330 66 172 q 152 582 66 490 q 391 675 238 675 q 627 583 543 675 q 710 332 710 491 q 623 80 710 175 q 385 -16 536 -16 m 391 587 q 237 514 292 587 q 182 330 182 441 q 237 148 182 219 q 391 76 292 76 q 542 148 488 76 q 595 330 595 220 q 541 514 595 441 q 391 587 486 587 m 477 741 l 217 955 l 280 1030 l 535 807 l 477 741 z "},"ő":{"ha":776,"x_min":66,"x_max":774,"o":"m 514 955 l 253 741 l 196 807 l 451 1030 l 514 955 m 774 955 l 514 741 l 457 807 l 712 1030 l 774 955 m 385 -16 q 150 78 234 -16 q 66 330 66 172 q 152 582 66 490 q 391 675 238 675 q 627 583 543 675 q 710 332 710 491 q 623 80 710 175 q 385 -16 536 -16 m 391 587 q 237 514 292 587 q 182 330 182 441 q 237 148 182 219 q 391 76 292 76 q 542 148 488 76 q 595 330 595 220 q 541 514 595 441 q 391 587 486 587 z "},"ō":{"ha":776,"x_min":66,"x_max":710,"o":"m 66 0 m 385 -16 q 150 78 234 -16 q 66 330 66 172 q 152 582 66 490 q 391 675 238 675 q 627 583 543 675 q 710 332 710 491 q 623 80 710 175 q 385 -16 536 -16 m 391 587 q 237 514 292 587 q 182 330 182 441 q 237 148 182 219 q 391 76 292 76 q 542 148 488 76 q 595 330 595 220 q 541 514 595 441 q 391 587 486 587 m 568 809 l 208 809 l 208 899 l 568 899 l 568 809 z "},"ø":{"ha":792,"x_min":50,"x_max":741,"o":"m 392 -16 q 188 50 278 -16 l 115 -21 l 50 38 l 128 118 q 76 330 76 200 q 161 582 76 490 q 396 675 245 675 q 606 609 521 675 l 677 682 l 741 616 l 667 540 q 715 332 715 458 q 629 79 715 174 q 392 -16 543 -16 m 396 587 q 244 514 299 587 q 189 330 189 441 q 212 203 189 259 l 533 533 q 396 587 479 587 m 602 330 q 580 451 602 401 l 262 127 q 396 76 316 76 q 549 148 495 76 q 602 330 602 219 z "},"õ":{"ha":776,"x_min":66,"x_max":710,"o":"m 66 0 m 385 -16 q 150 78 234 -16 q 66 330 66 172 q 152 582 66 490 q 391 675 238 675 q 627 583 543 675 q 710 332 710 491 q 623 80 710 175 q 385 -16 536 -16 m 391 587 q 237 514 292 587 q 182 330 182 441 q 237 148 182 219 q 391 76 292 76 q 542 148 488 76 q 595 330 595 220 q 541 514 595 441 q 391 587 486 587 m 307 931 q 353 919 332 931 q 406 885 375 908 q 472 852 453 852 q 520 872 503 852 q 547 931 536 891 l 627 905 q 575 806 615 844 q 476 769 535 769 q 418 782 444 769 q 366 816 392 795 q 341 832 359 819 q 309 844 323 844 q 266 826 281 844 q 240 767 252 807 l 161 793 q 214 893 175 856 q 307 931 252 931 z "},"œ":{"ha":1170,"x_min":66,"x_max":1106,"o":"m 66 328 q 150 578 66 483 q 378 674 234 674 q 615 542 526 674 q 722 641 656 608 q 868 674 788 674 q 1024 615 964 674 q 1101 455 1085 557 q 1106 340 1106 418 l 1106 274 l 668 274 q 753 116 670 181 q 908 73 809 73 q 1049 97 976 73 l 1068 21 q 865 -17 964 -17 q 609 108 686 -17 q 366 -17 526 -17 q 147 80 227 -17 q 66 328 66 177 m 361 580 q 226 509 276 580 q 175 339 175 438 q 201 206 175 264 q 273 115 226 148 q 368 80 318 80 q 451 95 418 80 q 510 141 483 111 q 566 325 566 205 q 511 507 566 434 q 361 580 457 580 m 1000 372 q 963 524 1000 472 q 840 576 925 576 q 768 560 800 576 q 715 510 736 543 q 672 358 675 448 l 1000 358 l 1000 372 z "},"p":{"ha":764,"x_min":101,"x_max":700,"o":"m 101 667 l 181 667 l 203 616 q 391 675 288 675 q 556 634 488 675 q 700 340 700 543 q 602 73 700 167 q 375 -17 507 -17 q 214 16 290 -17 l 214 -361 l 101 -361 l 101 667 m 363 582 q 282 573 314 582 q 214 542 250 564 l 214 104 q 361 73 281 73 q 523 144 465 73 q 580 328 580 215 q 524 513 580 444 q 363 582 469 582 z "},"þ":{"ha":762,"x_min":89,"x_max":696,"o":"m 385 -17 q 201 56 278 -17 l 201 -358 l 89 -358 l 89 955 l 201 955 l 201 597 q 392 674 269 674 q 523 647 465 674 q 620 573 582 620 q 696 339 696 486 q 643 136 696 226 q 505 12 590 47 q 385 -17 446 -17 m 377 80 q 530 147 470 80 q 589 313 589 214 q 554 469 589 415 q 377 580 486 576 q 238 510 283 580 q 193 328 193 439 q 224 165 193 212 q 377 80 276 80 z "},"q":{"ha":764,"x_min":66,"x_max":667,"o":"m 391 -17 q 161 73 260 -17 q 66 340 66 172 q 207 634 66 543 q 377 675 278 675 q 563 616 476 675 l 582 665 l 667 665 l 667 -361 l 549 -361 l 549 16 q 391 -17 476 -17 m 549 542 q 481 573 514 564 q 399 582 448 582 q 238 513 293 582 q 182 328 182 444 q 240 144 182 215 q 401 73 297 73 q 549 104 484 73 l 549 542 z "},"r":{"ha":509,"x_min":97,"x_max":493,"o":"m 385 675 q 447 671 424 675 q 493 656 470 667 l 453 556 q 354 576 408 576 q 210 528 281 576 l 210 0 l 97 0 l 97 667 l 179 667 l 203 609 q 385 675 290 675 z "},"ŕ":{"ha":509,"x_min":97,"x_max":493,"o":"m 97 0 m 385 675 q 447 671 424 675 q 493 656 470 667 l 453 556 q 354 576 408 576 q 210 528 281 576 l 210 0 l 97 0 l 97 667 l 179 667 l 203 609 q 385 675 290 675 m 425 955 l 165 741 l 108 807 l 363 1030 l 425 955 z "},"ř":{"ha":509,"x_min":78,"x_max":493,"o":"m 78 0 m 385 675 q 447 671 424 675 q 493 656 470 667 l 453 556 q 354 576 408 576 q 210 528 281 576 l 210 0 l 97 0 l 97 667 l 179 667 l 203 609 q 385 675 290 675 m 78 967 l 141 1028 l 281 885 l 422 1028 l 484 967 l 281 755 l 78 967 z "},"ŗ":{"ha":509,"x_min":33,"x_max":493,"o":"m 33 0 m 385 675 q 447 671 424 675 q 493 656 470 667 l 453 556 q 354 576 408 576 q 210 528 281 576 l 210 0 l 97 0 l 97 667 l 179 667 l 203 609 q 385 675 290 675 m 125 -345 l 33 -345 l 94 -83 l 210 -83 l 125 -345 z "},"s":{"ha":642,"x_min":63,"x_max":564,"o":"m 307 80 q 411 103 368 80 q 453 172 453 127 q 422 229 453 208 q 290 292 391 250 l 224 318 q 153 355 181 339 q 102 405 125 372 q 80 491 80 439 q 157 630 80 585 q 347 675 234 675 q 538 632 443 675 l 510 549 q 359 582 432 582 q 239 560 285 582 q 193 498 193 538 q 225 436 193 458 q 335 384 257 413 l 392 361 q 526 278 488 321 q 564 163 564 234 q 497 37 564 90 q 316 -16 429 -16 q 63 35 188 -16 l 94 120 q 307 80 207 80 z "},"ś":{"ha":642,"x_min":63,"x_max":564,"o":"m 63 0 m 307 80 q 411 103 368 80 q 453 172 453 127 q 422 229 453 208 q 290 292 391 250 l 224 318 q 153 355 181 339 q 102 405 125 372 q 80 491 80 439 q 157 630 80 585 q 347 675 234 675 q 538 632 443 675 l 510 549 q 359 582 432 582 q 239 560 285 582 q 193 498 193 538 q 225 436 193 458 q 335 384 257 413 l 392 361 q 526 278 488 321 q 564 163 564 234 q 497 37 564 90 q 316 -16 429 -16 q 63 35 188 -16 l 94 120 q 307 80 207 80 m 457 955 l 196 741 l 139 807 l 394 1030 l 457 955 z "},"š":{"ha":642,"x_min":63,"x_max":564,"o":"m 63 0 m 307 80 q 411 103 368 80 q 453 172 453 127 q 422 229 453 208 q 290 292 391 250 l 224 318 q 153 355 181 339 q 102 405 125 372 q 80 491 80 439 q 157 630 80 585 q 347 675 234 675 q 538 632 443 675 l 510 549 q 359 582 432 582 q 239 560 285 582 q 193 498 193 538 q 225 436 193 458 q 335 384 257 413 l 392 361 q 526 278 488 321 q 564 163 564 234 q 497 37 564 90 q 316 -16 429 -16 q 63 35 188 -16 l 94 120 q 307 80 207 80 m 109 967 l 172 1028 l 313 885 l 453 1028 l 516 967 l 313 755 l 109 967 z "},"ş":{"ha":642,"x_min":63,"x_max":564,"o":"m 564 163 q 501 40 564 92 q 332 -16 438 -12 l 313 -85 l 340 -92 q 431 -142 398 -111 q 465 -236 465 -174 q 425 -326 465 -292 q 311 -359 385 -359 q 251 -352 280 -359 q 168 -330 222 -345 l 146 -326 l 172 -247 l 191 -252 q 309 -280 271 -276 q 359 -268 340 -281 q 378 -227 378 -255 q 309 -167 378 -182 l 214 -141 l 247 -12 q 63 35 149 0 l 94 120 q 307 80 207 80 q 411 103 368 80 q 453 172 453 127 q 422 229 453 208 q 290 292 391 250 l 224 318 q 153 355 181 339 q 102 405 125 372 q 80 491 80 439 q 157 630 80 585 q 347 675 234 675 q 538 632 443 675 l 510 549 q 359 582 432 582 q 239 560 285 582 q 193 498 193 538 q 225 436 193 458 q 335 384 257 413 l 392 361 q 526 278 488 321 q 564 163 564 234 z "},"ș":{"ha":642,"x_min":63,"x_max":564,"o":"m 63 0 m 307 80 q 411 103 368 80 q 453 172 453 127 q 422 229 453 208 q 290 292 391 250 l 224 318 q 153 355 181 339 q 102 405 125 372 q 80 491 80 439 q 157 630 80 585 q 347 675 234 675 q 538 632 443 675 l 510 549 q 359 582 432 582 q 239 560 285 582 q 193 498 193 538 q 225 436 193 458 q 335 384 257 413 l 392 361 q 526 278 488 321 q 564 163 564 234 q 497 37 564 90 q 316 -16 429 -16 q 63 35 188 -16 l 94 120 q 307 80 207 80 m 273 -345 l 181 -345 l 241 -83 l 358 -83 l 273 -345 z "},"ß":{"ha":847,"x_min":135,"x_max":769,"o":"m 135 689 q 208 887 135 813 q 405 962 281 962 q 564 898 497 962 q 616 825 597 866 q 635 741 635 783 q 569 606 635 668 q 533 576 545 585 q 475 523 491 540 q 458 484 458 505 q 470 444 458 460 q 540 398 486 420 l 587 380 q 769 175 769 318 q 750 92 769 130 q 705 31 731 54 q 547 -17 649 -17 q 340 16 444 -17 l 359 92 q 523 73 470 73 q 619 95 587 73 q 651 174 651 118 q 624 242 651 220 q 538 288 597 264 l 502 304 q 387 372 427 337 q 347 472 347 408 q 378 560 347 521 q 458 639 408 599 q 484 661 465 644 q 514 695 503 677 q 524 736 524 714 q 482 826 524 788 q 391 863 439 863 q 286 818 326 863 q 247 688 247 778 l 247 0 l 137 0 l 135 689 z "},"t":{"ha":516,"x_min":28,"x_max":484,"o":"m 326 -14 q 183 41 226 -14 q 141 207 141 95 l 141 573 l 28 573 l 28 667 l 141 667 l 141 830 l 253 839 l 253 667 l 472 667 l 472 573 l 253 573 l 253 214 q 275 113 253 144 q 359 82 297 82 q 465 92 418 82 l 484 16 q 326 -14 406 -14 z "},"ť":{"ha":516,"x_min":28,"x_max":484,"o":"m 417 755 l 337 755 l 377 1017 l 481 1017 l 417 755 m 326 -14 q 183 41 226 -14 q 141 207 141 95 l 141 573 l 28 573 l 28 667 l 141 667 l 141 830 l 253 839 l 253 667 l 472 667 l 472 573 l 253 573 l 253 214 q 275 113 253 144 q 359 82 297 82 q 465 92 418 82 l 484 16 q 326 -14 406 -14 z "},"ţ":{"ha":516,"x_min":28,"x_max":484,"o":"m 347 -92 q 438 -142 405 -111 q 472 -236 472 -174 q 432 -326 472 -292 q 318 -359 392 -359 q 258 -352 286 -359 q 175 -330 229 -345 l 153 -326 l 179 -247 l 198 -252 q 316 -280 278 -276 q 366 -268 347 -281 q 385 -227 385 -255 q 316 -167 385 -182 l 220 -141 l 255 -5 q 168 65 194 12 q 141 207 141 118 l 141 573 l 28 573 l 28 667 l 141 667 l 141 830 l 253 839 l 253 667 l 472 667 l 472 573 l 253 573 l 253 214 q 275 113 253 144 q 359 82 297 82 q 465 92 418 82 l 484 16 q 339 -14 413 -10 l 319 -85 l 347 -92 z "},"ț":{"ha":516,"x_min":28,"x_max":484,"o":"m 28 0 m 326 -14 q 183 41 226 -14 q 141 207 141 95 l 141 573 l 28 573 l 28 667 l 141 667 l 141 830 l 253 839 l 253 667 l 472 667 l 472 573 l 253 573 l 253 214 q 275 113 253 144 q 359 82 297 82 q 465 92 418 82 l 484 16 q 326 -14 406 -14 m 280 -345 l 188 -345 l 248 -83 l 365 -83 l 280 -345 z "},"u":{"ha":747,"x_min":97,"x_max":651,"o":"m 210 238 q 243 116 210 153 q 356 80 276 80 q 538 127 438 80 l 538 667 l 651 667 l 651 0 l 573 0 l 549 49 q 314 -17 422 -17 q 154 43 210 -17 q 97 210 97 104 l 97 667 l 210 667 l 210 238 z "},"ú":{"ha":747,"x_min":97,"x_max":651,"o":"m 97 0 m 210 238 q 243 116 210 153 q 356 80 276 80 q 538 127 438 80 l 538 667 l 651 667 l 651 0 l 573 0 l 549 49 q 314 -17 422 -17 q 154 43 210 -17 q 97 210 97 104 l 97 667 l 210 667 l 210 238 m 519 955 l 259 741 l 201 807 l 457 1030 l 519 955 z "},"ŭ":{"ha":747,"x_min":97,"x_max":651,"o":"m 97 0 m 210 238 q 243 116 210 153 q 356 80 276 80 q 538 127 438 80 l 538 667 l 651 667 l 651 0 l 573 0 l 549 49 q 314 -17 422 -17 q 154 43 210 -17 q 97 210 97 104 l 97 667 l 210 667 l 210 238 m 375 839 q 453 867 424 839 q 503 944 483 896 l 578 911 q 503 799 554 845 q 375 753 453 753 q 247 799 299 753 q 170 911 196 845 l 245 944 q 297 867 267 896 q 375 839 326 839 z "},"û":{"ha":747,"x_min":97,"x_max":651,"o":"m 97 0 m 210 238 q 243 116 210 153 q 356 80 276 80 q 538 127 438 80 l 538 667 l 651 667 l 651 0 l 573 0 l 549 49 q 314 -17 422 -17 q 154 43 210 -17 q 97 210 97 104 l 97 667 l 210 667 l 210 238 m 516 755 l 375 898 l 234 755 l 172 816 l 375 1028 l 578 816 l 516 755 z "},"ü":{"ha":747,"x_min":97,"x_max":651,"o":"m 97 0 m 210 238 q 243 116 210 153 q 356 80 276 80 q 538 127 438 80 l 538 667 l 651 667 l 651 0 l 573 0 l 549 49 q 314 -17 422 -17 q 154 43 210 -17 q 97 210 97 104 l 97 667 l 210 667 l 210 238 m 255 807 q 210 826 229 807 q 191 872 191 845 q 210 917 191 898 q 255 936 229 936 q 300 917 281 936 q 319 872 319 898 q 300 826 319 845 q 255 807 281 807 m 495 807 q 450 826 469 807 q 431 872 431 845 q 450 917 431 898 q 495 936 469 936 q 540 917 521 936 q 559 872 559 898 q 540 826 559 845 q 495 807 521 807 z "},"ù":{"ha":747,"x_min":97,"x_max":651,"o":"m 97 0 m 210 238 q 243 116 210 153 q 356 80 276 80 q 538 127 438 80 l 538 667 l 651 667 l 651 0 l 573 0 l 549 49 q 314 -17 422 -17 q 154 43 210 -17 q 97 210 97 104 l 97 667 l 210 667 l 210 238 m 462 741 l 201 955 l 264 1030 l 519 807 l 462 741 z "},"ű":{"ha":747,"x_min":97,"x_max":759,"o":"m 498 955 l 238 741 l 181 807 l 436 1030 l 498 955 m 759 955 l 498 741 l 441 807 l 696 1030 l 759 955 m 210 238 q 243 116 210 153 q 356 80 276 80 q 538 127 438 80 l 538 667 l 651 667 l 651 0 l 573 0 l 549 49 q 314 -17 422 -17 q 154 43 210 -17 q 97 210 97 104 l 97 667 l 210 667 l 210 238 z "},"ū":{"ha":747,"x_min":97,"x_max":651,"o":"m 97 0 m 210 238 q 243 116 210 153 q 356 80 276 80 q 538 127 438 80 l 538 667 l 651 667 l 651 0 l 573 0 l 549 49 q 314 -17 422 -17 q 154 43 210 -17 q 97 210 97 104 l 97 667 l 210 667 l 210 238 m 552 809 l 193 809 l 193 899 l 552 899 l 552 809 z "},"ų":{"ha":747,"x_min":95,"x_max":649,"o":"m 649 -31 q 519 -104 559 -78 q 454 -161 476 -135 q 432 -219 432 -187 q 451 -272 432 -253 q 503 -290 470 -290 q 615 -252 550 -290 l 646 -312 q 465 -377 549 -377 q 367 -345 406 -377 q 328 -255 328 -314 q 370 -141 328 -193 q 495 -38 411 -90 l 569 3 l 549 50 q 313 -16 429 -16 q 148 49 200 -16 q 97 229 95 115 l 101 667 l 210 667 l 210 253 q 240 118 210 156 q 361 80 271 80 q 540 128 444 80 l 540 667 l 649 667 l 649 -31 z "},"ů":{"ha":747,"x_min":97,"x_max":651,"o":"m 97 0 m 210 238 q 243 116 210 153 q 356 80 276 80 q 538 127 438 80 l 538 667 l 651 667 l 651 0 l 573 0 l 549 49 q 314 -17 422 -17 q 154 43 210 -17 q 97 210 97 104 l 97 667 l 210 667 l 210 238 m 226 906 q 270 1012 226 967 q 375 1057 314 1057 q 478 1012 434 1057 q 523 906 523 967 q 479 800 523 845 q 375 755 436 755 q 270 800 314 755 q 226 906 226 845 m 455 906 q 432 964 455 941 q 375 988 410 988 q 317 965 339 988 q 295 906 295 943 q 317 848 295 872 q 373 825 339 825 q 432 848 410 825 q 455 906 455 872 z "},"ũ":{"ha":747,"x_min":97,"x_max":651,"o":"m 97 0 m 210 238 q 243 116 210 153 q 356 80 276 80 q 538 127 438 80 l 538 667 l 651 667 l 651 0 l 573 0 l 549 49 q 314 -17 422 -17 q 154 43 210 -17 q 97 210 97 104 l 97 667 l 210 667 l 210 238 m 292 931 q 338 919 316 931 q 391 885 359 908 q 457 852 438 852 q 504 872 488 852 q 531 931 521 891 l 611 905 q 559 806 599 844 q 460 769 519 769 q 403 782 429 769 q 351 816 377 795 q 326 832 344 819 q 293 844 307 844 q 251 826 266 844 q 224 767 236 807 l 146 793 q 198 893 160 856 q 292 931 236 931 z "},"v":{"ha":696,"x_min":38,"x_max":658,"o":"m 286 0 l 38 667 l 160 667 l 344 144 l 351 109 l 356 144 l 542 667 l 658 667 l 411 0 l 286 0 z "},"w":{"ha":1120,"x_min":38,"x_max":1082,"o":"m 328 134 l 330 108 l 333 134 l 509 667 l 618 667 l 785 134 l 790 108 l 793 134 l 967 667 l 1082 667 l 852 0 l 726 0 l 557 516 l 389 0 l 264 0 l 38 667 l 153 667 l 328 134 z "},"x":{"ha":707,"x_min":47,"x_max":660,"o":"m 533 667 l 660 667 l 418 332 l 660 0 l 523 0 l 347 245 l 172 0 l 47 0 l 285 328 l 47 667 l 175 667 l 356 417 l 533 667 z "},"y":{"ha":715,"x_min":38,"x_max":674,"o":"m 293 -358 l 177 -358 l 306 -35 l 38 667 l 156 667 l 361 115 l 566 667 l 674 667 l 293 -358 z "},"ý":{"ha":715,"x_min":38,"x_max":674,"o":"m 38 0 m 293 -358 l 177 -358 l 306 -35 l 38 667 l 156 667 l 361 115 l 566 667 l 674 667 l 293 -358 m 495 955 l 234 741 l 177 807 l 432 1030 l 495 955 z "},"ŷ":{"ha":715,"x_min":38,"x_max":674,"o":"m 38 0 m 293 -358 l 177 -358 l 306 -35 l 38 667 l 156 667 l 361 115 l 566 667 l 674 667 l 293 -358 m 491 755 l 351 898 l 210 755 l 148 816 l 351 1028 l 554 816 l 491 755 z "},"ÿ":{"ha":715,"x_min":38,"x_max":674,"o":"m 38 0 m 293 -358 l 177 -358 l 306 -35 l 38 667 l 156 667 l 361 115 l 566 667 l 674 667 l 293 -358 m 231 807 q 186 826 205 807 q 167 872 167 845 q 186 917 167 898 q 231 936 205 936 q 276 917 257 936 q 295 872 295 898 q 276 826 295 845 q 231 807 257 807 m 470 807 q 425 826 444 807 q 406 872 406 845 q 425 917 406 898 q 470 936 444 936 q 516 917 497 936 q 535 872 535 898 q 516 826 535 845 q 470 807 497 807 z "},"z":{"ha":668,"x_min":80,"x_max":604,"o":"m 585 608 l 224 85 l 604 85 l 604 0 l 80 0 l 80 57 l 438 578 l 80 578 l 80 667 l 585 667 l 585 608 z "},"ź":{"ha":668,"x_min":80,"x_max":604,"o":"m 80 0 m 585 608 l 224 85 l 604 85 l 604 0 l 80 0 l 80 57 l 438 578 l 80 578 l 80 667 l 585 667 l 585 608 m 477 955 l 217 741 l 160 807 l 415 1030 l 477 955 z "},"ž":{"ha":668,"x_min":80,"x_max":604,"o":"m 80 0 m 585 608 l 224 85 l 604 85 l 604 0 l 80 0 l 80 57 l 438 578 l 80 578 l 80 667 l 585 667 l 585 608 m 130 967 l 193 1028 l 333 885 l 474 1028 l 536 967 l 333 755 l 130 967 z "},"ż":{"ha":668,"x_min":80,"x_max":604,"o":"m 80 0 m 585 608 l 224 85 l 604 85 l 604 0 l 80 0 l 80 57 l 438 578 l 80 578 l 80 667 l 585 667 l 585 608 m 332 809 q 280 831 302 809 q 259 882 259 852 q 280 933 259 911 q 332 955 302 955 q 383 933 361 955 q 405 882 405 911 q 383 831 405 852 q 332 809 361 809 z "},"ﬁ":{"ha":814,"x_min":49,"x_max":729,"o":"m 401 873 q 297 844 335 873 q 259 740 259 814 l 259 667 l 462 667 l 462 578 l 260 578 l 260 0 l 148 0 l 148 578 l 49 578 l 49 667 l 144 667 l 144 734 q 167 859 144 819 q 366 962 224 962 q 493 944 427 962 l 470 863 q 401 873 418 873 m 658 795 q 606 817 627 795 q 585 868 585 839 q 606 918 585 896 q 658 939 627 939 q 708 918 688 939 q 729 868 729 896 q 709 817 729 839 q 658 795 689 795 m 714 0 l 601 0 l 601 667 l 714 667 l 714 0 z "},"ﬂ":{"ha":884,"x_min":49,"x_max":875,"o":"m 401 873 q 297 844 335 873 q 259 740 259 814 l 259 667 l 462 667 l 462 578 l 260 578 l 260 0 l 148 0 l 148 578 l 49 578 l 49 667 l 144 667 l 144 734 q 167 859 144 819 q 366 962 224 962 q 493 944 427 962 l 470 863 q 401 873 418 873 m 795 89 q 854 99 821 89 l 875 17 q 833 0 870 16 q 740 -16 797 -16 q 637 29 675 -16 q 597 144 599 73 l 597 925 l 707 925 l 707 184 q 722 113 707 137 q 795 89 738 89 z "},"´":{"ha":335,"x_min":9,"x_max":326,"o":"m 326 955 l 66 741 l 9 807 l 264 1030 l 326 955 z "},"˘":{"ha":425,"x_min":9,"x_max":417,"o":"m 214 839 q 292 867 262 839 q 342 944 321 896 l 417 911 q 342 799 392 845 q 214 753 292 753 q 86 799 137 753 q 9 911 35 845 l 83 944 q 135 867 106 896 q 214 839 165 839 z "},"ˇ":{"ha":424,"x_min":9,"x_max":415,"o":"m 9 967 l 71 1028 l 212 885 l 352 1028 l 415 967 l 212 755 l 9 967 z "},"¸":{"ha":337,"x_min":9,"x_max":328,"o":"m 172 -280 q 222 -268 203 -281 q 241 -227 241 -255 q 172 -167 241 -182 l 76 -141 l 118 19 l 203 19 l 175 -85 l 203 -92 q 294 -142 260 -111 q 328 -236 328 -174 q 288 -326 328 -292 q 174 -359 248 -359 q 114 -352 142 -359 q 31 -330 85 -345 l 9 -326 l 35 -247 l 54 -252 q 172 -280 134 -276 z "},"ˆ":{"ha":424,"x_min":9,"x_max":415,"o":"m 352 755 l 212 898 l 71 755 l 9 816 l 212 1028 l 415 816 l 352 755 z "},"¨":{"ha":368,"x_min":0,"x_max":368,"o":"m 64 807 q 19 826 38 807 q 0 872 0 845 q 19 917 0 898 q 64 936 38 936 q 109 917 90 936 q 128 872 128 898 q 109 826 128 845 q 64 807 90 807 m 304 807 q 259 826 278 807 q 240 872 240 845 q 259 917 240 898 q 304 936 278 936 q 349 917 330 936 q 368 872 368 898 q 349 826 368 845 q 304 807 330 807 z "},"˙":{"ha":148,"x_min":0,"x_max":146,"o":"m 73 809 q 22 831 43 809 q 0 882 0 852 q 22 933 0 911 q 73 955 43 955 q 124 933 102 955 q 146 882 146 911 q 124 831 146 852 q 73 809 102 809 z "},"`":{"ha":335,"x_min":9,"x_max":326,"o":"m 269 741 l 9 955 l 71 1030 l 326 807 l 269 741 z "},"˝":{"ha":595,"x_min":9,"x_max":587,"o":"m 9 741 m 326 955 l 66 741 l 9 807 l 264 1030 l 326 955 m 587 955 l 326 741 l 269 807 l 524 1030 l 587 955 z "},"¯":{"ha":377,"x_min":9,"x_max":368,"o":"m 368 809 l 9 809 l 9 899 l 368 899 l 368 809 z "},"˛":{"ha":354,"x_min":9,"x_max":345,"o":"m 345 23 q 266 -25 333 16 q 155 -115 198 -66 q 113 -208 113 -163 q 186 -285 113 -285 q 242 -273 210 -285 q 297 -247 274 -262 l 326 -304 q 158 -366 236 -366 q 47 -326 85 -366 q 9 -226 9 -286 q 60 -95 9 -155 q 161 -2 111 -35 q 307 87 210 31 l 345 23 z "},"˚":{"ha":314,"x_min":9,"x_max":306,"o":"m 9 906 q 53 1012 9 967 q 158 1057 97 1057 q 261 1012 217 1057 q 306 906 306 967 q 262 800 306 845 q 158 755 219 755 q 53 800 97 755 q 9 906 9 845 m 238 906 q 215 964 238 941 q 158 988 193 988 q 100 965 122 988 q 78 906 78 943 q 100 848 78 872 q 156 825 122 825 q 215 848 193 825 q 238 906 238 872 z "},"˜":{"ha":483,"x_min":9,"x_max":474,"o":"m 155 931 q 201 919 179 931 q 253 885 222 908 q 319 852 300 852 q 367 872 351 852 q 394 931 384 891 l 474 905 q 422 806 462 844 q 323 769 382 769 q 266 782 292 769 q 214 816 240 795 q 188 832 207 819 q 156 844 170 844 q 114 826 128 844 q 87 767 99 807 l 9 793 q 61 893 23 856 q 155 931 99 931 z "},"̦":{"ha":0,"x_min":9,"x_max":186,"o":"m 101 -345 l 9 -345 l 69 -83 l 186 -83 l 101 -345 z "},"ˉ":{"ha":554,"x_min":97,"x_max":457,"o":"m 457 809 l 457 899 l 97 899 l 97 809 l 457 809 z "},"ª":{"ha":458,"x_min":69,"x_max":389,"o":"m 212 877 q 288 852 267 877 q 309 776 309 828 l 309 774 q 149 760 200 778 q 69 651 69 733 q 102 566 69 601 q 193 531 134 531 q 313 576 252 531 l 326 542 l 389 542 l 389 790 q 326 920 389 877 q 226 944 286 944 q 158 935 198 944 q 83 913 118 925 l 101 854 q 212 877 172 877 m 203 597 q 162 615 177 597 q 148 658 148 632 q 175 703 148 693 q 255 714 203 714 l 309 714 l 309 642 q 203 597 264 597 z "},"º":{"ha":521,"x_min":69,"x_max":451,"o":"m 259 533 q 401 588 351 533 q 451 738 451 642 q 402 888 451 833 q 260 943 352 943 q 121 887 172 943 q 69 738 69 832 q 119 588 69 642 q 259 533 168 533 m 260 878 q 342 840 311 878 q 373 738 373 802 q 343 635 373 672 q 260 597 313 597 q 179 635 210 597 q 148 738 148 674 q 179 840 148 802 q 260 878 210 878 z "},"⁄":{"ha":486,"x_min":-87,"x_max":573,"o":"m 26 0 l 573 955 l 465 955 l -87 0 l 26 0 z "},"½":{"ha":1198,"x_min":82,"x_max":1094,"o":"m 82 908 l 115 839 l 212 865 l 212 415 l 304 415 l 304 955 l 227 955 l 82 908 m 295 0 l 903 955 l 797 955 l 188 0 l 295 0 m 764 418 q 841 447 809 438 q 903 457 873 457 q 1002 372 1002 457 q 973 293 1002 333 q 882 189 944 252 l 738 56 l 738 0 l 1092 0 l 1092 85 l 894 85 q 987 180 944 135 q 1050 255 1030 224 q 1094 375 1094 318 q 1038 503 1094 457 q 908 542 991 542 q 827 531 866 542 q 738 500 788 521 l 764 418 z "},"¼":{"ha":1170,"x_min":82,"x_max":1075,"o":"m 82 910 l 115 839 l 212 865 l 212 417 l 304 417 l 304 955 l 227 955 l 82 910 m 295 0 l 903 955 l 797 955 l 188 0 l 295 0 m 632 186 l 632 115 l 892 115 l 892 0 l 981 0 l 981 115 l 1075 115 l 1075 196 l 981 196 l 981 536 l 873 536 l 632 186 m 892 417 l 892 196 l 741 196 l 892 417 z "},"¾":{"ha":1252,"x_min":99,"x_max":1148,"o":"m 266 965 q 108 929 200 965 l 139 854 q 262 885 207 885 q 327 868 304 885 q 351 807 351 851 q 219 726 351 726 l 207 726 l 207 653 l 226 653 q 337 635 302 653 q 372 571 372 616 q 344 505 372 526 q 252 484 316 484 q 122 510 207 484 l 99 436 q 176 414 130 424 q 269 405 222 405 q 406 446 358 405 q 455 552 455 488 q 436 641 455 611 q 372 694 417 670 q 420 749 406 720 q 434 814 434 778 q 387 926 434 887 q 266 965 340 965 m 378 0 l 986 955 l 878 955 l 271 0 l 378 0 m 712 186 l 712 115 l 976 115 l 976 0 l 1064 0 l 1064 115 l 1148 115 l 1148 196 l 1064 196 l 1064 536 l 955 536 l 712 186 m 976 417 l 976 196 l 826 196 l 976 417 z "},"¹":{"ha":311,"x_min":42,"x_max":262,"o":"m 42 964 l 75 892 l 172 920 l 172 477 l 262 477 l 262 1010 l 186 1010 l 42 964 z "},"²":{"ha":519,"x_min":82,"x_max":438,"o":"m 108 896 q 185 924 153 915 q 247 934 217 934 q 345 849 345 934 q 317 770 345 811 q 226 667 288 729 l 82 533 l 82 477 l 436 477 l 436 563 l 238 563 q 331 657 288 613 q 394 733 373 701 q 438 852 438 795 q 382 981 438 934 q 252 1019 335 1019 q 171 1009 210 1019 q 82 977 132 998 l 108 896 z "},"³":{"ha":507,"x_min":68,"x_max":424,"o":"m 234 1026 q 76 990 168 1026 l 108 915 q 231 946 175 946 q 296 929 273 946 q 319 868 319 911 q 188 786 319 786 l 175 786 l 175 714 l 194 714 q 306 695 271 714 q 340 632 340 677 q 313 566 340 587 q 220 545 285 545 q 90 571 175 545 l 68 497 q 145 475 99 484 q 238 465 191 465 q 375 507 326 465 q 424 613 424 549 q 405 701 424 672 q 340 755 385 731 q 389 810 375 781 q 403 875 403 839 q 356 987 403 948 q 234 1026 309 1026 z "},"ऄ":{"ha":1016,"x_min":31,"x_max":1057,"o":"m 887 708 l 887 0 l 793 0 l 793 335 q 674 316 729 316 q 604 323 637 316 q 622 238 622 293 q 553 100 622 156 q 385 43 484 43 q 189 109 269 43 q 31 313 109 174 l 108 359 q 233 189 170 245 q 384 134 295 134 q 490 165 450 134 q 531 255 531 196 q 309 392 531 401 l 276 392 l 276 477 l 316 477 q 505 602 505 476 q 471 678 505 651 q 384 705 438 705 q 299 687 333 705 q 229 635 266 668 l 177 707 q 271 769 226 745 q 385 793 316 793 q 537 742 479 793 q 595 613 595 691 q 568 513 595 557 q 484 441 540 469 q 651 399 583 399 q 730 408 698 399 q 793 434 762 417 l 793 708 l 630 708 l 630 792 l 809 792 q 758 871 800 845 q 630 896 715 896 q 399 1078 411 896 l 481 1108 q 520 1013 491 1038 q 611 981 549 988 q 668 979 628 979 q 819 938 750 979 q 899 792 889 896 l 1057 792 l 1057 708 l 887 708 z "},"ॲ":{"ha":1016,"x_min":31,"x_max":1071,"o":"m 31 0 m 887 708 l 887 0 l 793 0 l 793 335 q 674 316 729 316 q 604 323 637 316 q 622 238 622 293 q 553 100 622 156 q 385 43 484 43 q 189 109 269 43 q 31 313 109 174 l 108 359 q 233 189 170 245 q 384 134 295 134 q 490 165 450 134 q 531 255 531 196 q 309 392 531 401 l 276 392 l 276 477 l 316 477 q 505 602 505 476 q 471 678 505 651 q 384 705 438 705 q 299 687 333 705 q 229 635 266 668 l 177 707 q 271 769 226 745 q 385 793 316 793 q 537 742 479 793 q 595 613 595 691 q 568 513 595 557 q 484 441 540 469 q 651 399 583 399 q 730 408 698 399 q 793 434 762 417 l 793 708 l 630 708 l 630 792 l 1057 792 l 1057 708 l 887 708 m 840 884 q 690 931 750 884 q 608 1056 630 977 l 684 1089 q 743 997 708 1026 q 840 967 778 967 q 938 997 903 967 q 998 1089 974 1026 l 1071 1056 q 990 931 1050 977 q 840 884 931 884 z "},"अ":{"ha":1016,"x_min":31,"x_max":1057,"o":"m 887 708 l 887 0 l 793 0 l 793 335 q 674 316 729 316 q 604 323 637 316 q 622 238 622 293 q 553 100 622 156 q 385 43 484 43 q 189 109 269 43 q 31 313 109 174 l 108 359 q 233 189 170 245 q 384 134 295 134 q 490 165 450 134 q 531 255 531 196 q 309 392 531 401 l 276 392 l 276 477 l 316 477 q 505 602 505 476 q 471 678 505 651 q 384 705 438 705 q 299 687 333 705 q 229 635 266 668 l 177 707 q 271 769 226 745 q 385 793 316 793 q 537 742 479 793 q 595 613 595 691 q 568 513 595 557 q 484 441 540 469 q 651 399 583 399 q 730 408 698 399 q 793 434 762 417 l 793 708 l 630 708 l 630 792 l 1057 792 l 1057 708 l 887 708 z "},"आ":{"ha":1378,"x_min":31,"x_max":1420,"o":"m 1252 708 l 1252 0 l 1156 0 l 1156 708 l 887 708 l 887 0 l 793 0 l 793 335 q 674 316 729 316 q 604 323 637 316 q 622 238 622 293 q 553 100 622 156 q 385 43 484 43 q 189 109 269 43 q 31 313 109 174 l 108 359 q 233 189 170 245 q 384 134 295 134 q 490 165 450 134 q 531 255 531 196 q 309 392 531 401 l 276 392 l 276 477 l 316 477 q 505 602 505 476 q 471 678 505 651 q 384 705 438 705 q 299 687 333 705 q 229 635 266 668 l 177 707 q 271 769 226 745 q 385 793 316 793 q 537 742 479 793 q 595 613 595 691 q 568 513 595 557 q 484 441 540 469 q 651 399 583 399 q 730 408 698 399 q 793 434 762 417 l 793 708 l 630 708 l 630 792 l 1420 792 l 1420 708 l 1252 708 z "},"इ":{"ha":653,"x_min":-49,"x_max":694,"o":"m 297 510 q 168 444 168 510 q 200 388 168 405 q 300 372 231 372 l 370 373 q 512 329 457 373 q 568 200 568 285 q 501 66 568 116 q 328 16 434 16 l 311 16 l 415 -120 l 330 -172 l 179 38 q 95 85 127 56 q 63 156 63 115 q 83 207 63 186 q 153 227 104 227 l 241 111 q 321 102 269 102 q 430 128 385 102 q 474 201 474 153 q 446 264 474 241 q 358 286 418 286 l 285 285 q 144 314 210 285 q 78 443 78 344 q 138 561 78 523 q 302 599 198 599 q 415 592 354 599 l 415 708 l -49 708 l -49 792 l 694 792 l 694 708 l 512 708 l 512 507 l 495 495 l 455 500 q 297 510 375 510 z "},"ई":{"ha":653,"x_min":-49,"x_max":694,"o":"m 297 510 q 168 444 168 510 q 200 388 168 405 q 300 372 231 372 l 370 373 q 512 329 457 373 q 568 200 568 285 q 501 66 568 116 q 328 16 434 16 l 311 16 l 415 -120 l 330 -172 l 179 38 q 95 85 127 56 q 63 156 63 115 q 83 207 63 186 q 153 227 104 227 l 241 111 q 321 102 269 102 q 430 128 385 102 q 474 201 474 153 q 446 264 474 241 q 358 286 418 286 l 285 285 q 144 314 210 285 q 78 443 78 344 q 138 561 78 523 q 302 599 198 599 q 415 592 354 599 l 415 708 l -49 708 l -49 792 l 394 792 q 326 871 351 825 q 300 967 300 917 q 359 1091 300 1047 q 502 1135 417 1135 q 677 1080 589 1135 l 628 1003 q 566 1032 601 1019 q 500 1045 531 1045 q 392 955 392 1045 q 427 868 392 906 q 521 792 462 830 l 694 792 l 694 708 l 512 708 l 512 507 l 495 495 l 455 500 q 297 510 375 510 z "},"उ":{"ha":745,"x_min":-42,"x_max":786,"o":"m 552 708 q 595 589 595 663 q 569 490 595 531 q 486 420 543 450 q 587 350 552 398 q 622 219 622 302 q 554 68 622 127 q 385 9 486 9 q 189 74 269 9 q 31 278 109 139 l 108 325 q 233 155 170 210 q 384 99 295 99 q 490 132 450 99 q 531 229 531 165 q 484 339 531 299 q 309 375 438 380 l 293 375 l 293 460 l 316 460 q 510 589 510 458 q 484 669 510 641 q 399 708 458 698 l -42 708 l -42 792 l 786 792 l 786 708 l 552 708 z "},"ऊ":{"ha":1010,"x_min":-42,"x_max":1052,"o":"m 552 708 q 595 589 595 663 q 569 490 595 531 q 486 420 543 450 q 557 382 526 408 q 641 450 592 418 q 747 481 691 481 q 878 432 825 481 q 931 304 931 384 q 804 92 931 182 l 745 158 q 781 187 752 163 q 826 239 811 210 q 840 304 840 267 q 819 367 840 340 q 750 394 799 394 q 608 307 677 394 q 622 219 622 269 q 554 68 622 127 q 385 9 486 9 q 189 74 269 9 q 31 278 109 139 l 108 325 q 233 155 170 210 q 384 99 295 99 q 490 132 450 99 q 531 229 531 165 q 484 339 531 299 q 309 375 438 380 l 293 375 l 293 460 l 316 460 q 510 589 510 458 q 484 669 510 641 q 399 708 458 698 l -42 708 l -42 792 l 1052 792 l 1052 708 l 552 708 z "},"ऋ":{"ha":1094,"x_min":-42,"x_max":1135,"o":"m 635 415 q 688 391 663 399 q 745 384 714 384 q 849 431 807 384 l 771 545 q 870 594 813 594 q 930 563 903 594 q 957 486 957 533 q 944 431 957 455 l 1042 259 l 1042 257 l 1017 181 l 984 181 q 906 161 934 181 q 878 111 878 142 q 901 57 878 75 q 960 40 924 40 q 1042 59 1003 40 l 1073 -10 q 960 -36 1023 -36 q 838 5 880 -36 q 795 109 795 47 q 836 207 795 165 q 950 257 877 248 l 894 354 q 747 299 833 299 q 635 323 684 299 l 635 0 l 538 0 l 538 306 l 205 21 l 139 90 l 486 384 q 307 491 394 491 q 211 461 255 493 q 102 363 167 429 l 33 427 q 168 546 109 507 q 311 585 227 585 q 425 556 372 585 q 538 465 479 526 l 538 708 l -42 708 l -42 792 l 1135 792 l 1135 708 l 635 708 l 635 415 z "},"ॠ":{"ha":1094,"x_min":-42,"x_max":1135,"o":"m 635 415 q 688 391 663 399 q 745 384 714 384 q 849 431 807 384 l 771 545 q 870 594 813 594 q 930 563 903 594 q 957 486 957 533 q 944 431 957 455 l 1042 259 l 1042 257 l 1017 181 l 984 181 q 906 161 934 181 q 878 111 878 142 q 906 56 878 75 q 977 36 934 36 l 1057 36 l 1057 -50 l 993 -50 q 915 -69 944 -50 q 885 -128 885 -89 q 911 -187 885 -168 q 976 -205 936 -205 q 1090 -172 1035 -205 l 1132 -245 q 1055 -278 1092 -267 q 964 -288 1017 -288 q 839 -246 884 -288 q 795 -139 795 -203 q 868 -12 795 -52 q 795 109 795 28 q 836 207 795 165 q 950 257 877 248 l 894 354 q 747 299 833 299 q 635 323 684 299 l 635 0 l 538 0 l 538 306 l 205 21 l 139 90 l 486 384 q 307 491 394 491 q 211 461 255 493 q 102 363 167 429 l 33 427 q 168 546 109 507 q 311 585 227 585 q 425 556 372 585 q 538 465 479 526 l 538 708 l -42 708 l -42 792 l 1135 792 l 1135 708 l 635 708 l 635 415 z "},"ऌ":{"ha":920,"x_min":-42,"x_max":962,"o":"m 719 519 q 810 444 776 495 q 844 333 844 392 q 819 234 844 274 q 747 158 793 193 q 717 137 733 148 q 668 95 682 113 q 653 45 653 76 q 724 -19 653 -19 q 826 30 764 -19 l 872 -47 q 715 -108 799 -108 q 598 -64 637 -108 q 559 40 559 -21 q 588 138 559 101 q 672 215 616 175 q 729 265 708 241 q 750 328 750 288 q 718 410 750 375 q 625 444 686 444 q 533 399 566 444 q 500 281 500 354 q 507 191 500 260 l 415 205 q 410 245 411 222 q 408 285 408 267 q 417 368 408 328 q 306 444 372 444 q 210 404 245 444 q 175 299 175 363 q 220 155 175 220 q 330 19 264 90 l 238 -21 q 193 28 238 -26 q 112 152 148 82 q 76 299 76 222 q 139 472 76 406 q 307 538 201 538 q 465 462 398 538 q 622 535 523 530 l 622 708 l -42 708 l -42 792 l 962 792 l 962 708 l 719 708 l 719 519 z "},"ॡ":{"ha":920,"x_min":-42,"x_max":962,"o":"m 719 519 q 810 444 776 495 q 844 333 844 392 q 819 234 844 274 q 747 158 793 193 q 708 132 722 141 q 661 95 675 111 q 648 56 648 80 q 672 2 648 23 q 767 -19 696 -19 l 799 -17 l 799 -95 l 724 -95 q 653 -118 681 -97 q 625 -174 625 -139 q 646 -225 625 -207 q 707 -243 667 -243 q 821 -210 766 -243 l 863 -283 q 786 -315 828 -304 q 707 -326 745 -326 q 580 -284 622 -326 q 538 -181 538 -241 q 566 -100 538 -134 q 637 -54 594 -66 q 577 -8 597 -40 q 557 61 557 24 q 586 139 557 108 q 672 212 615 170 q 728 261 707 236 q 750 328 750 286 q 718 410 750 375 q 625 444 686 444 q 533 399 566 444 q 500 281 500 354 q 507 191 500 260 l 415 205 q 410 245 411 222 q 408 285 408 267 q 417 368 408 328 q 306 444 372 444 q 210 404 245 444 q 175 299 175 363 q 220 155 175 220 q 330 19 264 90 l 238 -21 q 193 28 238 -26 q 112 152 148 82 q 76 299 76 222 q 139 472 76 406 q 307 538 201 538 q 465 462 398 538 q 622 535 523 530 l 622 708 l -42 708 l -42 792 l 962 792 l 962 708 l 719 708 l 719 519 z "},"ऍ":{"ha":708,"x_min":-42,"x_max":750,"o":"m 0 0 m 413 295 q 477 332 458 313 q 498 372 495 351 q 503 450 502 392 l 503 708 l 182 708 l 182 337 l 604 -9 l 545 -76 l 89 299 l 87 708 l -42 708 l -42 792 l 750 792 l 750 708 l 594 708 l 594 431 q 565 297 594 347 q 457 215 536 247 l 413 295 m 347 884 q 197 931 257 884 q 115 1056 137 977 l 191 1089 q 250 997 215 1026 q 347 967 285 967 q 445 997 410 967 q 505 1089 481 1026 l 578 1056 q 497 931 557 977 q 347 884 438 884 z "},"ऎ":{"ha":708,"x_min":-42,"x_max":750,"o":"m 413 295 q 477 332 458 313 q 498 372 495 351 q 503 450 502 392 l 503 708 l 182 708 l 182 337 l 604 -9 l 545 -76 l 89 299 l 87 708 l -42 708 l -42 792 l 502 792 q 451 871 493 845 q 323 896 408 896 q 92 1078 104 896 l 174 1108 q 213 1013 184 1038 q 304 981 241 988 q 361 979 321 979 q 512 938 443 979 q 592 792 582 896 l 750 792 l 750 708 l 594 708 l 594 431 q 565 297 594 347 q 457 215 536 247 l 413 295 z "},"ए":{"ha":708,"x_min":-42,"x_max":750,"o":"m 413 295 q 477 332 458 313 q 498 372 495 351 q 503 450 502 392 l 503 708 l 182 708 l 182 337 l 604 -9 l 545 -76 l 89 299 l 87 708 l -42 708 l -42 792 l 750 792 l 750 708 l 594 708 l 594 431 q 565 297 594 347 q 457 215 536 247 l 413 295 z "},"ऐ":{"ha":708,"x_min":-42,"x_max":750,"o":"m 413 295 q 477 332 458 313 q 498 372 495 351 q 503 450 502 392 l 503 708 l 182 708 l 182 337 l 604 -9 l 545 -76 l 89 299 l 87 708 l -42 708 l -42 792 l 488 792 l 345 970 q 307 1007 323 997 q 266 1017 292 1017 q 220 1010 241 1017 q 194 998 200 1002 l 158 1080 q 177 1088 161 1082 q 217 1100 193 1094 q 266 1106 241 1106 q 344 1088 313 1106 q 417 1021 375 1069 l 595 792 l 750 792 l 750 708 l 594 708 l 594 431 q 565 297 594 347 q 457 215 536 247 l 413 295 z "},"ऑ":{"ha":1378,"x_min":31,"x_max":1436,"o":"m 31 0 m 1252 708 l 1252 0 l 1156 0 l 1156 708 l 887 708 l 887 0 l 793 0 l 793 335 q 674 316 729 316 q 604 323 637 316 q 622 238 622 293 q 553 100 622 156 q 385 43 484 43 q 189 109 269 43 q 31 313 109 174 l 108 359 q 233 189 170 245 q 384 134 295 134 q 490 165 450 134 q 531 255 531 196 q 309 392 531 401 l 276 392 l 276 477 l 316 477 q 505 602 505 476 q 471 678 505 651 q 384 705 438 705 q 299 687 333 705 q 229 635 266 668 l 177 707 q 271 769 226 745 q 385 793 316 793 q 537 742 479 793 q 595 613 595 691 q 568 513 595 557 q 484 441 540 469 q 651 399 583 399 q 730 408 698 399 q 793 434 762 417 l 793 708 l 630 708 l 630 792 l 1420 792 l 1420 708 l 1252 708 m 1205 884 q 1055 931 1115 884 q 972 1056 995 977 l 1049 1089 q 1108 997 1073 1026 q 1205 967 1142 967 q 1303 997 1267 967 q 1363 1089 1339 1026 l 1436 1056 q 1355 931 1415 977 q 1205 884 1295 884 z "},"ओ":{"ha":1380,"x_min":31,"x_max":1422,"o":"m 1253 708 l 1253 0 l 1158 0 l 1158 708 l 887 708 l 887 0 l 793 0 l 793 335 q 674 316 729 316 q 604 323 637 316 q 622 238 622 293 q 553 100 622 156 q 385 43 484 43 q 189 109 269 43 q 31 313 109 174 l 108 359 q 233 189 170 245 q 384 134 295 134 q 490 165 450 134 q 531 255 531 196 q 309 392 531 401 l 276 392 l 276 477 l 316 477 q 505 602 505 476 q 471 678 505 651 q 384 705 438 705 q 299 687 333 705 q 229 635 266 668 l 177 707 q 271 769 226 745 q 385 793 316 793 q 537 742 479 793 q 595 613 595 691 q 568 513 595 557 q 484 441 540 469 q 651 399 583 399 q 730 408 698 399 q 793 434 762 417 l 793 708 l 630 708 l 630 792 l 1148 792 l 1005 970 q 970 1007 986 997 q 927 1017 955 1017 q 881 1010 903 1017 q 854 998 859 1002 l 818 1080 q 837 1088 821 1082 q 877 1100 852 1094 q 927 1106 901 1106 q 1005 1088 974 1106 q 1076 1021 1036 1069 l 1257 792 l 1422 792 l 1422 708 l 1253 708 z "},"औ":{"ha":1380,"x_min":31,"x_max":1422,"o":"m 1253 708 l 1253 0 l 1158 0 l 1158 708 l 887 708 l 887 0 l 793 0 l 793 335 q 674 316 729 316 q 604 323 637 316 q 622 238 622 293 q 553 100 622 156 q 385 43 484 43 q 189 109 269 43 q 31 313 109 174 l 108 359 q 233 189 170 245 q 384 134 295 134 q 490 165 450 134 q 531 255 531 196 q 309 392 531 401 l 276 392 l 276 477 l 316 477 q 505 602 505 476 q 471 678 505 651 q 384 705 438 705 q 299 687 333 705 q 229 635 266 668 l 177 707 q 271 769 226 745 q 385 793 316 793 q 537 742 479 793 q 595 613 595 691 q 568 513 595 557 q 484 441 540 469 q 651 399 583 399 q 730 408 698 399 q 793 434 762 417 l 793 708 l 630 708 l 630 792 l 1122 792 l 1017 865 q 971 898 1003 875 q 918 932 939 922 q 880 943 898 943 q 841 937 865 943 q 811 927 818 931 l 785 1010 q 827 1023 795 1014 q 884 1033 859 1033 q 946 1018 918 1033 q 1017 967 974 1003 l 1052 939 l 1196 814 l 1116 983 q 1070 1064 1089 1040 q 1019 1089 1052 1089 q 980 1084 1003 1089 q 950 1078 957 1080 l 934 1163 q 971 1171 943 1165 q 1028 1177 1000 1177 q 1117 1142 1087 1177 q 1175 1043 1148 1108 l 1278 792 l 1422 792 l 1422 708 l 1253 708 z "},"ॳ":{"ha":1042,"x_min":31,"x_max":1057,"o":"m 887 708 l 887 0 l 793 0 l 793 335 q 674 316 729 316 q 604 323 637 316 q 622 238 622 293 q 553 100 622 156 q 385 43 484 43 q 189 109 269 43 q 31 313 109 174 l 108 359 q 233 189 170 245 q 384 134 295 134 q 490 165 450 134 q 531 255 531 196 q 309 392 531 401 l 276 392 l 276 477 l 316 477 q 505 602 505 476 q 471 678 505 651 q 384 705 438 705 q 299 687 333 705 q 229 635 266 668 l 177 707 q 271 769 226 745 q 385 793 316 793 q 537 742 479 793 q 595 613 595 691 q 568 513 595 557 q 484 441 540 469 q 651 399 583 399 q 730 408 698 399 q 793 434 762 417 l 793 708 l 630 708 l 630 792 l 793 792 l 793 955 l 887 955 l 887 792 l 1057 792 l 1057 708 l 887 708 z "},"ॴ":{"ha":1387,"x_min":31,"x_max":1420,"o":"m 1252 708 l 1252 0 l 1156 0 l 1156 708 l 887 708 l 887 0 l 793 0 l 793 335 q 674 316 729 316 q 604 323 637 316 q 622 238 622 293 q 553 100 622 156 q 385 43 484 43 q 189 109 269 43 q 31 313 109 174 l 108 359 q 233 189 170 245 q 384 134 295 134 q 490 165 450 134 q 531 255 531 196 q 309 392 531 401 l 276 392 l 276 477 l 316 477 q 505 602 505 476 q 471 678 505 651 q 384 705 438 705 q 299 687 333 705 q 229 635 266 668 l 177 707 q 271 769 226 745 q 385 793 316 793 q 537 742 479 793 q 595 613 595 691 q 568 513 595 557 q 484 441 540 469 q 651 399 583 399 q 730 408 698 399 q 793 434 762 417 l 793 708 l 630 708 l 630 792 l 1165 792 l 1165 955 l 1259 955 l 1259 792 l 1420 792 l 1420 708 l 1252 708 z "},"ॵ":{"ha":1387,"x_min":31,"x_max":1420,"o":"m 1252 708 l 1252 0 l 1156 0 l 1156 708 l 887 708 l 887 0 l 793 0 l 793 335 q 674 316 729 316 q 604 323 637 316 q 622 238 622 292 q 553 100 622 156 q 385 43 484 43 q 189 109 269 43 q 31 313 109 174 l 108 359 q 233 189 170 245 q 384 134 295 134 q 490 165 450 134 q 531 255 531 196 q 309 392 531 401 l 276 392 l 276 477 l 316 477 q 505 602 505 476 q 471 678 505 651 q 384 705 438 705 q 299 687 333 705 q 229 635 266 668 l 177 707 q 271 769 226 745 q 385 793 316 793 q 537 742 479 793 q 595 613 595 691 q 568 513 595 557 q 484 441 540 469 q 651 399 583 399 q 730 408 698 399 q 793 434 762 417 l 793 708 l 630 708 l 630 792 l 1135 792 q 1082 872 1127 849 q 944 896 1038 896 q 714 1078 726 896 l 795 1108 q 835 1010 806 1036 q 925 981 865 984 q 1057 966 1003 977 q 1159 915 1111 955 q 1215 792 1207 875 l 1224 811 q 1236 870 1236 840 q 1206 947 1236 918 q 1104 1003 1175 976 q 943 1188 943 1064 q 955 1259 943 1222 l 1040 1255 q 1033 1201 1033 1227 q 1053 1137 1033 1161 q 1116 1092 1073 1113 l 1149 1076 q 1240 1029 1207 1050 q 1297 970 1274 1007 q 1319 873 1319 932 q 1302 792 1319 833 l 1420 792 l 1420 708 l 1252 708 z "},"ॶ":{"ha":1042,"x_min":31,"x_max":1057,"o":"m 887 708 l 887 0 l 793 0 l 793 335 q 674 316 729 316 q 604 323 637 316 q 622 238 622 293 q 553 100 622 156 q 385 43 484 43 q 189 109 269 43 q 31 313 109 174 l 108 359 q 233 189 170 245 q 384 134 295 134 q 490 165 450 134 q 531 255 531 196 q 309 392 531 401 l 276 392 l 276 477 l 316 477 q 505 602 505 476 q 471 678 505 651 q 384 705 438 705 q 299 687 333 705 q 229 635 266 668 l 177 707 q 271 769 226 745 q 385 793 316 793 q 537 742 479 793 q 595 613 595 691 q 568 513 595 557 q 484 441 540 469 q 651 399 583 399 q 730 408 698 399 q 793 434 762 417 l 793 708 l 630 708 l 630 792 l 1057 792 l 1057 708 l 887 708 m 606 -144 q 695 -123 660 -144 q 753 -57 731 -102 l 823 -99 q 740 -194 799 -161 q 606 -227 681 -227 q 472 -194 531 -227 q 389 -99 413 -161 l 458 -57 q 516 -123 481 -102 q 606 -144 552 -144 z "},"ॷ":{"ha":1042,"x_min":31,"x_max":1057,"o":"m 887 708 l 887 0 l 793 0 l 793 335 q 674 316 729 316 q 604 323 637 316 q 622 238 622 293 q 553 100 622 156 q 385 43 484 43 q 189 109 269 43 q 31 313 109 174 l 108 359 q 233 189 170 245 q 384 134 295 134 q 490 165 450 134 q 531 255 531 196 q 309 392 531 401 l 276 392 l 276 477 l 316 477 q 505 602 505 476 q 471 678 505 651 q 384 705 438 705 q 299 687 333 705 q 229 635 266 668 l 177 707 q 271 769 226 745 q 385 793 316 793 q 537 742 479 793 q 595 613 595 691 q 568 513 595 557 q 484 441 540 469 q 651 399 583 399 q 730 408 698 399 q 793 434 762 417 l 793 708 l 630 708 l 630 792 l 1057 792 l 1057 708 l 887 708 m 606 -144 q 695 -123 660 -144 q 753 -57 731 -102 l 823 -99 q 740 -194 799 -161 q 606 -227 681 -227 q 472 -194 531 -227 q 389 -99 413 -161 l 458 -57 q 516 -123 481 -102 q 606 -144 552 -144 m 606 -318 q 695 -297 660 -318 q 753 -231 731 -276 l 823 -273 q 740 -368 799 -335 q 606 -401 681 -401 q 472 -368 531 -401 q 389 -273 413 -335 l 458 -231 q 516 -297 481 -276 q 606 -318 552 -318 z "},"ऀ":{"ha":0,"x_min":26,"x_max":490,"o":"m 26 885 m 255 995 q 294 979 280 995 q 309 941 309 964 q 294 901 309 917 q 255 885 280 885 q 214 901 229 885 q 200 941 200 917 q 214 979 200 964 q 255 995 229 995 m 257 1177 q 407 1130 347 1177 q 490 1005 467 1083 l 413 972 q 354 1064 389 1035 q 257 1094 319 1094 q 159 1064 194 1094 q 99 972 123 1035 l 26 1005 q 107 1130 47 1083 q 257 1177 167 1177 z "},"ँ":{"ha":0,"x_min":26,"x_max":490,"o":"m 260 1066 q 221 1082 236 1066 q 207 1120 207 1097 q 221 1160 207 1144 q 260 1175 236 1175 q 301 1160 286 1175 q 316 1120 316 1144 q 301 1082 316 1097 q 260 1066 286 1066 m 259 884 q 109 931 168 884 q 26 1056 49 977 l 102 1089 q 161 997 127 1026 q 259 967 196 967 q 357 997 321 967 q 417 1089 392 1026 l 490 1056 q 409 931 469 977 q 259 884 349 884 z "},"ं":{"ha":0,"x_min":-207,"x_max":-80,"o":"m -144 901 q -189 919 -172 901 q -207 964 -207 938 q -189 1010 -207 991 q -144 1028 -172 1028 q -97 1010 -115 1028 q -80 964 -80 991 q -97 919 -80 938 q -144 901 -115 901 z "},"ः":{"ha":300,"x_min":87,"x_max":214,"o":"m 149 446 q 104 464 122 446 q 87 509 87 483 q 104 555 87 536 q 149 573 122 573 q 196 555 179 573 q 214 509 214 536 q 196 464 214 483 q 149 446 179 446 m 149 99 q 104 117 122 99 q 87 161 87 135 q 104 207 87 189 q 149 226 122 226 q 196 207 179 226 q 214 161 214 189 q 196 117 214 135 q 149 99 179 99 z "},"ा":{"ha":370,"x_min":-42,"x_max":411,"o":"m 234 708 l 234 0 l 139 0 l 139 708 l -42 708 l -42 792 l 411 792 l 411 708 l 234 708 z "},"ि":{"ha":361,"x_min":-42,"x_max":1030,"o":"m 373 1127 q 729 1036 575 1127 q 1030 757 884 946 l 911 757 q 375 1040 688 1040 q 235 1001 285 1040 q 186 898 186 962 q 227 792 186 833 l 401 792 l 401 708 l 226 708 l 226 0 l 130 0 l 130 708 l -42 708 l -42 792 l 122 792 q 92 905 92 847 q 165 1064 92 1002 q 373 1127 238 1127 z "},"ी":{"ha":361,"x_min":-299,"x_max":403,"o":"m 234 708 l 234 0 l 139 0 l 139 708 l -42 708 l -42 792 l 134 792 q 33 977 97 920 q -97 1035 -31 1035 q -178 1007 -151 1035 q -205 927 -205 979 q -168 831 -205 877 q -94 762 -132 785 l -205 762 q -235 784 -212 762 q -279 844 -259 806 q -299 934 -299 882 q -248 1073 -299 1019 q -92 1127 -198 1127 q 43 1085 -23 1127 q 159 967 109 1043 q 231 792 208 891 l 403 792 l 403 708 l 234 708 z "},"ु":{"ha":0,"x_min":-543,"x_max":-21,"o":"m -314 -12 q -253 11 -290 0 q -177 23 -217 23 q -64 -27 -108 23 q -21 -144 -21 -76 q -78 -273 -21 -226 q -222 -321 -135 -321 q -393 -272 -319 -321 q -543 -146 -467 -222 l -484 -82 q -351 -194 -408 -155 q -227 -233 -293 -233 q -147 -210 -181 -233 q -113 -146 -113 -187 q -132 -89 -113 -109 q -187 -69 -151 -69 q -241 -80 -212 -69 q -280 -95 -271 -90 l -314 -12 z "},"ू":{"ha":0,"x_min":-356,"x_max":167,"o":"m -75 -288 q -194 -321 -128 -321 q -312 -271 -267 -321 q -356 -151 -356 -220 q -302 -24 -356 -68 q -174 19 -248 19 q -43 -30 -109 19 q 59 -121 23 -78 q 167 -252 95 -163 l 97 -307 q -60 -128 -2 -184 q -174 -71 -118 -71 q -240 -92 -214 -71 q -266 -151 -266 -113 q -245 -211 -266 -189 q -193 -233 -224 -233 q -111 -208 -151 -233 l -75 -288 z "},"ृ":{"ha":0,"x_min":24,"x_max":370,"o":"m 214 -347 q 75 -297 125 -347 q 24 -170 24 -247 q 78 -35 24 -87 q 231 17 132 17 l 330 17 l 330 -73 l 231 -73 q 115 -168 115 -73 q 143 -240 115 -215 q 214 -264 172 -264 q 328 -231 273 -264 l 370 -304 q 297 -337 332 -326 q 214 -347 262 -347 z "},"ॄ":{"ha":0,"x_min":24,"x_max":370,"o":"m 201 -564 q 72 -521 120 -564 q 24 -408 24 -477 q 118 -273 24 -314 q 24 -132 24 -224 q 78 -23 24 -64 q 231 17 132 17 l 330 17 l 330 -73 l 231 -73 q 144 -89 172 -73 q 116 -144 116 -106 q 149 -205 116 -184 q 231 -226 182 -226 l 295 -226 l 295 -312 l 231 -312 q 147 -333 179 -312 q 115 -399 115 -354 q 214 -481 115 -481 q 328 -448 273 -481 l 370 -521 q 293 -554 330 -543 q 201 -564 257 -564 z "},"ॢ":{"ha":0,"x_min":26,"x_max":714,"o":"m 714 -573 q 640 -616 681 -599 q 557 -634 599 -634 q 446 -594 484 -634 q 408 -498 408 -554 q 426 -431 408 -460 q 470 -377 444 -403 q 505 -340 495 -351 q 566 -270 549 -295 q 583 -207 583 -245 q 561 -145 583 -168 q 490 -122 538 -122 q 402 -162 431 -122 q 373 -274 373 -203 q 377 -339 373 -304 l 292 -325 q 286 -271 286 -299 q 304 -168 286 -217 q 215 -123 266 -123 q 120 -227 120 -123 q 139 -317 120 -276 q 198 -424 158 -358 l 115 -458 q 49 -339 73 -391 q 26 -224 26 -286 q 78 -87 26 -139 q 217 -35 130 -35 q 351 -94 288 -35 q 416 -49 380 -64 q 488 -35 451 -35 q 592 -62 552 -35 q 650 -128 632 -89 q 668 -203 668 -167 q 648 -295 668 -260 q 583 -373 627 -330 q 546 -410 573 -384 q 506 -456 519 -436 q 493 -495 493 -476 q 511 -537 493 -523 q 557 -552 530 -552 q 670 -503 608 -552 l 714 -573 z "},"ॣ":{"ha":0,"x_min":26,"x_max":738,"o":"m 217 -35 q 351 -94 292 -35 q 490 -35 408 -35 q 625 -89 582 -35 q 668 -203 668 -142 q 648 -296 668 -260 q 583 -373 627 -332 q 548 -409 575 -382 q 508 -456 521 -436 q 495 -495 495 -476 q 510 -543 495 -524 q 557 -561 526 -561 l 646 -561 l 646 -642 l 575 -642 q 504 -661 531 -644 q 477 -712 477 -677 q 582 -783 477 -783 q 696 -750 641 -783 l 738 -823 q 661 -856 698 -845 q 569 -866 625 -866 q 441 -824 490 -866 q 392 -719 392 -781 q 411 -653 392 -679 q 460 -606 429 -627 q 410 -498 410 -569 q 428 -430 410 -458 q 471 -376 446 -401 q 505 -340 497 -351 q 565 -272 547 -299 q 583 -207 583 -245 q 562 -145 583 -168 q 491 -122 540 -122 q 403 -162 432 -122 q 373 -274 373 -203 q 377 -339 373 -304 l 292 -325 q 286 -271 286 -299 q 304 -168 286 -215 q 215 -123 266 -123 q 122 -227 122 -123 q 142 -321 122 -276 q 200 -424 163 -366 l 116 -458 q 51 -342 76 -398 q 26 -224 26 -286 q 78 -87 26 -139 q 217 -35 130 -35 z "},"ॅ":{"ha":0,"x_min":26,"x_max":490,"o":"m 259 884 q 109 931 168 884 q 26 1056 49 977 l 102 1089 q 161 997 127 1026 q 259 967 196 967 q 357 997 321 967 q 417 1089 392 1026 l 490 1056 q 409 931 469 977 q 259 884 349 884 z "},"ॆ":{"ha":0,"x_min":-622,"x_max":-120,"o":"m -210 759 q -252 863 -210 830 q -391 896 -293 896 q -622 1078 -609 896 l -540 1108 q -501 1013 -530 1038 q -410 981 -472 988 q -352 979 -392 979 q -192 930 -264 979 q -120 759 -120 880 l -210 759 z "},"े":{"ha":0,"x_min":-566,"x_max":-102,"o":"m -378 970 q -417 1007 -401 997 q -458 1017 -432 1017 q -503 1010 -483 1017 q -530 998 -524 1002 l -566 1080 q -547 1088 -562 1082 q -507 1100 -531 1094 q -458 1106 -483 1106 q -380 1088 -411 1106 q -307 1021 -349 1069 l -102 759 l -210 759 l -378 970 z "},"ै":{"ha":0,"x_min":-597,"x_max":-90,"o":"m -365 865 l -399 891 q -464 934 -443 922 q -503 946 -484 946 q -543 940 -519 946 q -573 931 -566 934 l -597 1010 q -555 1023 -587 1014 q -498 1033 -523 1033 q -433 1018 -460 1033 q -359 964 -406 1003 q -330 939 -361 965 l -182 811 l -266 983 q -286 1024 -269 991 q -321 1075 -302 1057 q -363 1092 -340 1092 q -402 1088 -378 1092 q -432 1082 -425 1083 l -451 1165 q -414 1173 -443 1167 q -358 1179 -385 1179 q -266 1143 -299 1179 q -207 1043 -234 1108 l -90 759 l -214 759 l -365 865 z "},"ॉ":{"ha":370,"x_min":-45,"x_max":418,"o":"m 0 0 m 234 708 l 234 0 l 139 0 l 139 708 l -42 708 l -42 792 l 411 792 l 411 708 l 234 708 m 188 884 q 37 931 97 884 q -45 1056 -23 977 l 31 1089 q 90 997 56 1026 q 188 967 125 967 q 286 997 250 967 q 345 1089 321 1026 l 418 1056 q 338 931 398 977 q 188 884 278 884 z "},"ॊ":{"ha":370,"x_min":-253,"x_max":411,"o":"m 234 708 l 234 0 l 139 0 l 139 708 l -42 708 l -42 792 l 156 792 q 105 871 148 845 q -23 896 63 896 q -253 1078 -241 896 l -172 1108 q -133 1013 -161 1038 q -42 981 -104 988 q 16 979 -24 979 q 167 938 97 979 q 247 792 236 896 l 411 792 l 411 708 l 234 708 z "},"ो":{"ha":370,"x_min":-198,"x_max":411,"o":"m 234 708 l 234 0 l 139 0 l 139 708 l -42 708 l -42 792 l 132 792 l -10 970 q -49 1007 -33 997 q -90 1017 -64 1017 q -135 1010 -115 1017 q -161 998 -156 1002 l -198 1080 q -179 1088 -194 1082 q -139 1100 -163 1094 q -90 1106 -115 1106 q -12 1088 -43 1106 q 61 1021 19 1069 l 240 792 l 411 792 l 411 708 l 234 708 z "},"ौ":{"ha":370,"x_min":-231,"x_max":411,"o":"m 234 708 l 234 0 l 139 0 l 139 708 l -42 708 l -42 792 l 106 792 l 2 865 l -33 891 q -97 934 -76 922 q -137 946 -118 946 q -176 940 -153 946 q -207 931 -200 934 l -231 1010 q -188 1023 -220 1014 q -132 1033 -156 1033 q -67 1017 -94 1033 q 7 964 -40 1002 q 36 939 5 965 l 184 811 l 101 983 q 81 1024 97 991 q 45 1075 64 1057 q 3 1092 26 1092 q -36 1088 -12 1092 q -66 1082 -59 1083 l -85 1165 q -48 1173 -76 1167 q 9 1179 -19 1179 q 100 1143 68 1179 q 160 1043 132 1108 l 262 792 l 411 792 l 411 708 l 234 708 z "},"ऻ":{"ha":370,"x_min":-42,"x_max":411,"o":"m 234 708 l 234 0 l 139 0 l 139 708 l -42 708 l -42 792 l 141 792 l 141 955 l 234 955 l 234 792 l 411 792 l 411 708 l 234 708 z "},"ॏ":{"ha":370,"x_min":-307,"x_max":411,"o":"m 234 708 l 234 0 l 139 0 l 139 708 l -42 708 l -42 792 l 115 792 q 62 872 106 849 q -76 896 17 896 q -307 1078 -295 896 l -226 1108 q -186 1010 -215 1036 q -95 981 -156 984 q 36 966 -17 977 q 137 915 90 955 q 193 792 184 875 l 203 811 q 215 870 215 840 q 185 947 215 918 q 83 1003 155 976 q -78 1188 -78 1064 q -66 1259 -78 1222 l 19 1255 q 12 1201 12 1227 q 32 1137 12 1161 q 95 1092 52 1113 l 128 1076 q 220 1029 186 1050 q 276 970 253 1007 q 299 873 299 932 q 281 792 299 833 l 411 792 l 411 708 l 234 708 z "},"ॕ":{"ha":0,"x_min":26,"x_max":490,"o":"m 259 1023 q 109 1069 168 1023 q 26 1194 49 1116 l 102 1227 q 161 1135 127 1165 q 259 1106 196 1106 q 357 1135 321 1106 q 417 1227 392 1165 l 490 1194 q 409 1069 469 1116 q 259 1023 349 1023 m 26 882 l 26 957 l 490 957 l 490 882 l 26 882 z "},"ऺ":{"ha":0,"x_min":17,"x_max":111,"o":"m 111 764 l 17 764 l 17 955 l 111 955 l 111 764 z "},"ॖ":{"ha":0,"x_min":35,"x_max":469,"o":"m 252 -227 q 118 -194 177 -227 q 35 -99 59 -161 l 104 -57 q 162 -123 127 -102 q 252 -144 198 -144 q 341 -123 306 -144 q 399 -57 377 -102 l 469 -99 q 385 -194 444 -161 q 252 -227 326 -227 z "},"ॗ":{"ha":0,"x_min":35,"x_max":469,"o":"m 252 -227 q 118 -194 177 -227 q 35 -99 59 -161 l 104 -57 q 162 -123 127 -102 q 252 -144 198 -144 q 341 -123 306 -144 q 399 -57 377 -102 l 469 -99 q 385 -194 444 -161 q 252 -227 326 -227 m 252 -401 q 118 -368 177 -401 q 35 -273 59 -335 l 104 -231 q 162 -297 127 -276 q 252 -318 198 -318 q 341 -297 306 -318 q 399 -231 377 -276 l 469 -273 q 385 -368 444 -335 q 252 -401 326 -401 z "},"॑":{"ha":0,"x_min":17,"x_max":111,"o":"m 111 764 l 17 764 l 17 1042 l 111 1042 l 111 764 z "},"॒":{"ha":0,"x_min":35,"x_max":675,"o":"m 35 -170 l 35 -87 l 675 -87 l 675 -170 l 35 -170 z "},"्":{"ha":0,"x_min":17,"x_max":408,"o":"m 17 -210 q 194 -243 127 -210 q 335 -377 262 -276 l 408 -316 q 317 -214 356 -250 q 204 -148 278 -177 q 17 -120 130 -120 l 17 -210 z "},"़":{"ha":0,"x_min":-116,"x_max":3,"o":"m -57 -181 q -100 -164 -83 -181 q -116 -122 -116 -148 q -100 -77 -116 -94 q -57 -61 -83 -61 q -13 -77 -30 -61 q 3 -122 3 -94 q -13 -164 3 -148 q -57 -181 -30 -181 z "},"॓":{"ha":0,"x_min":9,"x_max":326,"o":"m 9 845 m 269 845 l 9 1059 l 71 1134 l 326 911 l 269 845 z "},"॔":{"ha":0,"x_min":9,"x_max":326,"o":"m 9 845 m 326 1059 l 66 845 l 9 911 l 264 1134 l 326 1059 z "},"क":{"ha":953,"x_min":-42,"x_max":995,"o":"m 538 545 q 655 578 599 578 q 827 515 762 578 q 892 349 892 451 q 748 108 892 220 l 681 175 q 722 214 688 182 q 776 282 757 245 q 795 359 795 319 q 756 455 795 420 q 648 490 717 490 q 538 450 597 490 l 538 0 l 446 0 l 446 165 q 297 127 378 127 q 118 189 188 127 q 49 356 49 252 q 118 523 49 460 q 297 585 188 585 q 446 545 366 585 l 446 708 l -42 708 l -42 792 l 995 792 l 995 708 l 538 708 l 538 545 m 313 215 q 446 262 385 215 l 446 448 q 304 497 375 497 q 188 460 231 497 q 146 356 146 424 q 190 251 146 286 q 313 215 234 215 z "},"ख":{"ha":1007,"x_min":-42,"x_max":1049,"o":"m 878 708 l 878 0 l 786 0 l 786 144 q 653 122 727 122 q 490 185 556 122 q 425 351 425 248 q 490 516 425 453 q 653 580 556 580 q 786 552 722 580 l 786 708 l 313 708 q 368 528 368 637 q 322 380 368 438 q 210 295 276 323 l 439 31 l 363 -30 l 24 368 l 94 427 l 144 370 q 236 424 198 385 q 274 531 274 462 q 203 708 274 644 l -42 708 l -42 792 l 1049 792 l 1049 708 l 878 708 m 668 210 q 786 240 734 210 l 786 455 q 660 491 731 491 q 562 454 601 491 q 523 351 523 417 q 563 247 523 283 q 668 210 602 210 z "},"ग":{"ha":769,"x_min":-42,"x_max":811,"o":"m 641 708 l 641 0 l 543 0 l 543 708 l 255 708 l 255 156 l 189 156 l 59 314 l 59 373 l 160 373 l 160 708 l -42 708 l -42 792 l 811 792 l 811 708 l 641 708 z "},"घ":{"ha":856,"x_min":-42,"x_max":898,"o":"m 727 708 l 727 0 l 630 0 l 630 208 q 536 156 597 182 q 394 130 474 130 q 208 187 281 130 q 135 332 135 243 q 181 443 135 399 q 90 615 90 514 q 115 708 90 663 l -42 708 l -42 792 l 898 792 l 898 708 l 727 708 m 219 708 q 189 615 189 667 q 266 491 189 538 q 408 517 323 512 l 432 431 q 284 400 335 424 q 233 326 233 377 q 282 250 233 278 q 389 222 332 222 q 535 255 474 222 q 630 323 595 288 l 630 708 l 219 708 z "},"ङ":{"ha":825,"x_min":-42,"x_max":868,"o":"m 868 708 l 573 708 l 573 507 l 556 495 l 516 500 q 358 510 436 510 q 261 496 292 510 q 231 444 231 481 q 264 388 231 403 q 354 373 297 373 l 431 375 q 575 329 519 375 q 630 208 630 283 q 563 56 630 113 q 391 0 497 0 q 59 158 214 0 l 118 222 q 250 124 184 158 q 389 90 316 90 q 493 119 450 90 q 536 201 536 148 q 418 288 536 288 q 382 286 396 288 q 342 285 372 285 q 201 320 262 285 q 139 450 139 356 q 361 601 139 601 q 476 595 420 601 l 476 708 l -42 708 l -42 792 l 868 792 l 868 708 m 696 470 q 740 454 724 470 q 757 410 757 438 q 740 367 757 384 q 696 351 724 351 q 654 367 670 351 q 637 410 637 384 q 654 454 637 438 q 696 470 670 470 z "},"च":{"ha":816,"x_min":-42,"x_max":858,"o":"m 688 708 l 688 0 l 590 0 l 590 182 q 411 135 514 135 q 220 194 290 135 q 151 337 151 253 q 179 439 151 403 l 36 439 l 36 523 l 439 523 l 439 439 l 290 439 q 248 347 248 405 q 294 258 248 290 q 413 226 340 226 q 590 288 514 226 l 590 708 l -42 708 l -42 792 l 858 792 l 858 708 l 688 708 z "},"छ":{"ha":927,"x_min":-42,"x_max":969,"o":"m 748 597 q 836 519 802 576 q 870 382 870 462 q 804 167 870 250 q 640 47 738 83 q 441 10 542 10 q 202 81 293 10 q 111 266 111 151 q 143 368 111 328 q 234 438 175 408 q 151 506 177 467 q 125 597 125 545 q 168 708 125 663 l -42 708 l -42 792 l 969 792 l 969 708 l 748 708 l 748 597 m 328 708 q 245 670 271 698 q 219 597 219 642 q 256 514 219 552 q 411 477 293 476 l 427 477 l 427 392 l 418 392 q 248 359 292 398 q 205 255 205 319 q 275 142 205 184 q 441 101 345 101 q 616 132 543 101 q 544 254 571 198 q 517 396 517 311 q 558 532 517 476 q 661 602 599 589 l 661 708 l 328 708 m 694 179 q 781 375 781 255 q 754 477 781 443 q 694 512 727 512 q 635 478 660 512 q 609 396 609 444 q 635 267 609 321 q 694 179 661 214 z "},"ज":{"ha":936,"x_min":-42,"x_max":977,"o":"m 807 708 l 807 0 l 710 0 l 710 410 l 533 410 q 580 271 580 351 q 544 149 580 196 q 457 82 509 102 q 356 61 406 61 q 157 146 241 61 q 24 391 73 231 l 106 425 q 211 223 144 295 q 354 151 278 151 q 451 184 413 151 q 490 278 490 217 q 456 373 490 332 q 344 415 422 415 l 344 493 l 418 493 l 710 493 l 710 708 l -42 708 l -42 792 l 977 792 l 977 708 l 807 708 z "},"झ":{"ha":974,"x_min":-42,"x_max":1016,"o":"m 851 708 l 851 0 l 753 0 l 753 257 q 663 236 712 236 q 580 247 622 236 q 583 200 583 219 q 516 66 583 116 q 342 16 448 16 l 328 16 l 429 -130 l 345 -168 l 217 36 q 118 88 156 56 q 80 167 80 120 q 107 217 80 198 q 170 233 134 236 l 262 113 q 305 104 281 106 q 352 102 328 102 q 447 128 405 102 q 490 201 490 155 q 464 268 490 243 q 387 293 439 293 q 333 288 361 293 q 300 286 323 288 q 260 283 278 283 q 140 325 189 283 q 90 451 90 366 q 150 564 90 530 q 313 599 210 599 q 429 592 368 599 l 429 708 l -42 708 l -42 792 l 1016 792 l 1016 708 l 851 708 m 526 708 l 526 507 l 509 495 l 469 500 q 311 510 389 510 q 214 496 245 510 q 182 444 182 481 q 207 390 182 405 q 278 375 231 375 q 335 380 307 375 q 359 384 345 382 q 391 385 373 385 q 523 345 472 385 q 578 331 535 342 q 644 319 622 319 q 753 342 701 319 l 753 708 l 526 708 z "},"ञ":{"ha":915,"x_min":-42,"x_max":957,"o":"m 786 708 l 786 0 l 689 0 l 689 283 q 623 274 655 274 q 554 283 589 274 q 479 155 538 200 q 342 109 420 109 q 151 194 231 109 q 10 444 71 280 l 92 477 q 205 269 148 337 q 339 201 262 201 q 431 236 396 201 q 465 330 465 271 q 438 414 465 382 q 347 446 410 446 q 302 438 325 446 q 264 422 280 431 q 245 410 248 413 l 205 493 q 356 538 274 538 q 488 492 436 538 q 556 372 540 446 q 623 361 582 361 q 689 372 660 361 l 689 708 l -42 708 l -42 792 l 957 792 l 957 708 l 786 708 z "},"ट":{"ha":677,"x_min":-42,"x_max":719,"o":"m 361 460 q 215 411 264 460 q 167 280 167 363 q 221 141 167 191 q 372 90 276 90 q 474 109 429 90 q 575 160 519 128 l 616 80 q 506 24 571 49 q 365 0 441 0 q 154 77 236 0 q 71 283 71 155 q 142 473 71 396 q 347 550 214 550 l 450 547 l 450 708 l -42 708 l -42 792 l 719 792 l 719 708 l 547 708 l 547 457 l 531 444 l 484 450 q 361 460 405 460 z "},"ठ":{"ha":747,"x_min":-42,"x_max":788,"o":"m 533 524 q 635 416 595 479 q 674 274 674 352 q 602 81 674 161 q 359 0 530 0 q 154 76 233 0 q 75 274 75 153 q 145 472 75 394 q 351 550 215 550 l 436 550 l 436 708 l -42 708 l -42 792 l 788 792 l 788 708 l 533 708 l 533 524 m 370 92 q 521 136 465 92 q 576 264 576 181 q 544 384 576 333 q 465 458 512 434 l 365 458 q 220 411 269 458 q 170 280 170 365 q 222 142 170 193 q 370 92 274 92 z "},"ड":{"ha":703,"x_min":-49,"x_max":745,"o":"m 358 510 q 261 496 292 510 q 231 444 231 481 q 264 388 231 403 q 354 373 297 373 l 431 375 q 575 329 519 375 q 630 208 630 283 q 563 56 630 113 q 391 0 497 0 q 59 158 214 0 l 118 222 q 250 124 184 158 q 389 90 316 90 q 493 119 450 90 q 536 201 536 148 q 418 288 536 288 q 382 286 396 288 q 342 285 372 285 q 201 320 262 285 q 139 450 139 356 q 361 601 139 601 q 476 595 420 601 l 476 708 l -49 708 l -49 792 l 745 792 l 745 708 l 573 708 l 573 507 l 556 495 l 516 500 q 358 510 436 510 z "},"ढ":{"ha":688,"x_min":-42,"x_max":729,"o":"m 361 458 q 216 411 266 458 q 167 280 167 365 q 214 149 167 201 q 337 87 260 97 q 318 181 318 132 q 360 289 318 248 q 467 330 403 330 q 578 284 540 330 q 616 186 616 238 q 546 46 616 92 q 373 0 476 0 q 214 36 283 0 q 109 134 146 71 q 71 274 71 196 q 144 471 71 392 q 352 550 217 550 q 450 547 405 550 l 450 708 l -42 708 l -42 792 l 729 792 l 729 708 l 547 708 l 547 455 l 531 443 l 484 448 q 361 458 405 458 m 467 240 q 406 175 406 240 q 427 90 406 125 q 499 121 474 97 q 524 175 524 144 q 509 222 524 205 q 467 240 493 240 z "},"ण":{"ha":955,"x_min":-42,"x_max":997,"o":"m 826 708 l 826 0 l 729 0 l 729 708 l 550 708 l 550 389 q 492 202 550 266 q 332 139 434 139 q 166 201 222 139 q 109 389 109 264 l 109 708 l -42 708 l -42 792 l 997 792 l 997 708 l 826 708 m 207 708 l 207 396 q 235 271 207 311 q 330 231 264 231 q 424 271 396 231 q 453 396 453 311 l 453 708 l 207 708 z "},"त":{"ha":752,"x_min":-42,"x_max":793,"o":"m 623 708 l 623 0 l 526 0 l 526 418 l 326 418 q 210 394 245 418 q 175 304 175 370 q 211 176 175 252 q 295 19 247 101 l 214 -26 q 110 165 144 94 q 76 307 76 236 q 135 465 76 415 q 316 516 194 516 l 526 516 l 526 708 l -42 708 l -42 792 l 793 792 l 793 708 l 623 708 z "},"थ":{"ha":849,"x_min":95,"x_max":891,"o":"m 720 708 l 720 0 l 623 0 l 623 207 q 537 165 590 184 q 424 146 484 146 q 234 196 314 146 q 113 316 153 247 l 132 370 q 201 405 141 375 q 305 485 260 434 q 349 594 349 536 q 325 682 349 646 q 257 719 300 719 q 210 701 231 719 q 189 658 189 684 q 211 602 189 625 q 271 557 233 580 l 220 484 q 127 560 158 514 q 95 658 95 606 q 146 769 95 727 q 260 811 196 811 q 393 746 347 811 q 439 594 439 681 q 390 451 439 507 q 260 339 340 394 q 229 318 241 328 q 310 260 260 280 q 415 240 359 240 q 530 261 474 240 q 623 321 587 283 l 623 708 l 502 708 l 502 792 l 891 792 l 891 708 l 720 708 z "},"द":{"ha":703,"x_min":-42,"x_max":745,"o":"m 365 458 q 216 415 267 458 q 165 288 165 372 q 219 166 165 210 q 370 122 273 122 q 458 139 413 122 l 418 226 q 433 241 422 229 q 465 264 444 253 q 512 274 486 274 q 582 247 556 274 q 608 179 608 220 q 575 106 608 139 l 672 -43 l 585 -92 q 553 -32 576 -76 q 505 59 530 12 q 366 30 436 30 q 153 100 234 30 q 71 299 71 170 q 146 482 71 413 q 351 550 220 550 l 453 547 l 453 708 l -42 708 l -42 792 l 745 792 l 745 708 l 550 708 l 550 455 l 535 443 l 488 448 q 365 458 408 458 z "},"ध":{"ha":849,"x_min":87,"x_max":891,"o":"m 720 708 l 720 0 l 623 0 l 623 165 q 420 109 524 109 q 232 160 302 109 q 161 302 161 210 q 210 413 161 372 q 87 630 87 509 q 131 760 87 712 q 250 809 175 809 q 362 772 321 809 q 403 677 403 734 q 381 598 403 632 q 307 540 359 564 l 264 609 q 303 638 290 625 q 316 675 316 651 q 300 713 316 700 q 260 726 285 726 q 203 703 226 726 q 181 630 181 681 q 220 528 181 571 q 302 464 260 484 q 432 490 354 479 l 458 405 q 308 366 358 389 q 259 297 259 344 q 305 225 259 248 q 415 201 351 201 q 623 273 528 201 l 623 708 l 490 708 l 490 792 l 891 792 l 891 708 l 720 708 z "},"न":{"ha":710,"x_min":-42,"x_max":752,"o":"m 582 708 l 582 0 l 484 0 l 484 352 l 240 352 l 240 194 l 170 194 l 59 372 l 59 436 l 484 436 l 484 708 l -42 708 l -42 792 l 752 792 l 752 708 l 582 708 z "},"ऩ":{"ha":710,"x_min":-42,"x_max":752,"o":"m 0 0 m 582 708 l 582 0 l 484 0 l 484 352 l 240 352 l 240 194 l 170 194 l 59 372 l 59 436 l 484 436 l 484 708 l -42 708 l -42 792 l 752 792 l 752 708 l 582 708 m 257 -10 q 214 6 231 -10 q 198 49 198 23 q 214 93 198 76 q 257 109 231 109 q 301 93 285 109 q 318 49 318 76 q 301 6 318 23 q 257 -10 285 -10 z "},"प":{"ha":759,"x_min":-42,"x_max":800,"o":"m 630 708 l 630 0 l 533 0 l 533 208 q 359 179 434 179 q 168 247 234 179 q 101 424 101 314 l 101 708 l -42 708 l -42 792 l 800 792 l 800 708 l 630 708 m 198 708 l 198 424 q 241 308 198 351 q 356 266 285 266 q 533 300 432 266 l 533 708 l 198 708 z "},"फ":{"ha":1047,"x_min":-42,"x_max":1089,"o":"m 606 524 q 766 578 696 578 q 938 515 873 578 q 1003 349 1003 451 q 859 108 1003 220 l 792 175 q 833 214 799 182 q 887 282 868 245 q 906 359 906 319 q 867 455 906 420 q 759 490 828 490 q 682 469 719 490 q 606 417 646 448 l 606 0 l 510 0 l 510 203 q 351 179 417 179 q 163 247 226 179 q 101 424 101 314 l 101 708 l -42 708 l -42 792 l 1089 792 l 1089 708 l 606 708 l 606 524 m 198 708 l 198 424 q 238 308 198 351 q 347 266 278 266 q 510 295 425 266 l 510 708 l 198 708 z "},"ब":{"ha":717,"x_min":-42,"x_max":764,"o":"m 594 708 l 594 0 l 497 0 l 497 158 q 313 113 410 113 q 126 177 200 113 q 52 356 52 241 q 128 534 52 469 q 313 599 205 599 q 497 556 413 599 l 497 708 l -42 708 l -42 792 l 764 792 l 764 708 l 594 708 m 319 512 q 247 502 280 512 l 497 264 l 497 455 q 319 512 422 512 m 141 356 q 192 239 141 278 q 319 200 243 200 q 424 220 377 200 l 175 457 q 141 356 141 417 z "},"भ":{"ha":878,"x_min":54,"x_max":920,"o":"m 750 708 l 750 0 l 653 0 l 653 262 l 370 262 l 370 122 l 304 122 l 163 288 l 163 345 l 274 345 l 274 556 q 275 602 274 559 q 258 681 276 646 q 203 717 240 717 q 162 701 179 717 q 146 658 146 684 q 168 602 146 625 q 227 557 189 580 l 181 486 q 86 564 118 519 q 54 658 54 609 q 98 768 54 727 q 203 809 142 809 q 331 745 292 809 q 370 556 370 681 l 370 345 l 653 345 l 653 708 l 486 708 l 486 792 l 920 792 l 920 708 l 750 708 z "},"म":{"ha":804,"x_min":-42,"x_max":845,"o":"m 675 708 l 675 0 l 578 0 l 578 271 l 262 271 l 262 132 l 196 132 l 59 297 l 59 354 l 167 354 l 167 708 l -42 708 l -42 792 l 845 792 l 845 708 l 675 708 m 262 708 l 262 354 l 578 354 l 578 708 l 262 708 z "},"य":{"ha":773,"x_min":-42,"x_max":814,"o":"m 644 708 l 644 0 l 547 0 l 547 194 q 370 146 458 146 q 181 198 262 146 q 59 319 101 250 l 78 370 q 175 439 137 401 q 214 533 214 477 q 137 708 214 618 l -42 708 l -42 792 l 814 792 l 814 708 l 644 708 m 247 708 q 309 531 309 623 q 276 411 309 458 q 182 316 243 363 q 262 259 215 280 q 361 238 309 238 q 463 254 413 238 q 547 304 512 271 l 547 708 l 247 708 z "},"र":{"ha":476,"x_min":-42,"x_max":517,"o":"m 313 708 q 368 528 368 637 q 319 376 368 434 q 200 290 271 318 l 401 33 l 319 -23 l 24 368 l 95 424 l 139 368 q 234 422 194 384 q 274 531 274 460 q 203 708 274 644 l -42 708 l -42 792 l 517 792 l 517 708 l 313 708 z "},"ऱ":{"ha":476,"x_min":-42,"x_max":517,"o":"m 0 0 m 313 708 q 368 528 368 637 q 319 376 368 434 q 200 290 271 318 l 401 33 l 319 -23 l 24 368 l 95 424 l 139 368 q 234 422 194 384 q 274 531 274 460 q 203 708 274 644 l -42 708 l -42 792 l 517 792 l 517 708 l 313 708 m 66 -9 q 23 8 40 -9 q 7 50 7 24 q 23 95 7 78 q 66 111 40 111 q 110 95 94 111 q 127 50 127 78 q 110 8 127 24 q 66 -9 94 -9 z "},"ल":{"ha":934,"x_min":-42,"x_max":976,"o":"m 806 708 l 806 0 l 708 0 l 708 429 q 637 443 672 443 q 534 399 568 443 q 500 281 500 356 q 507 191 500 260 l 415 205 q 410 245 411 222 q 408 285 408 267 q 417 368 408 328 q 306 444 372 444 q 210 404 245 444 q 175 299 175 363 q 220 155 175 220 q 330 19 264 90 l 238 -21 q 193 28 238 -26 q 112 152 148 82 q 76 299 76 222 q 139 472 76 406 q 307 538 201 538 q 465 462 398 538 q 539 516 495 498 q 634 535 583 535 q 708 524 677 535 l 708 708 l -42 708 l -42 792 l 976 792 l 976 708 l 806 708 z "},"ळ":{"ha":988,"x_min":-42,"x_max":1030,"o":"m 762 514 q 873 435 833 497 q 913 290 913 373 q 858 122 913 191 q 705 54 802 54 q 586 98 635 54 q 498 210 536 142 q 400 92 450 127 q 278 57 351 57 q 128 124 181 57 q 75 290 75 191 q 128 457 75 391 q 285 524 182 524 q 403 481 354 524 q 490 370 451 438 q 575 476 531 441 q 670 519 618 510 l 670 708 l -42 708 l -42 792 l 1030 792 l 1030 708 l 762 708 l 762 514 m 276 142 q 372 179 332 142 q 443 278 411 215 q 369 392 405 351 q 283 434 333 434 q 199 393 229 434 q 168 290 168 352 q 197 186 168 229 q 276 142 226 142 m 821 288 q 790 393 821 352 q 708 434 759 434 q 616 398 653 434 q 545 299 580 363 q 619 187 580 233 q 707 141 658 141 q 791 183 760 141 q 821 288 821 226 z "},"ऴ":{"ha":988,"x_min":-42,"x_max":1030,"o":"m 0 0 m 762 514 q 873 435 833 497 q 913 290 913 373 q 858 122 913 191 q 705 54 802 54 q 586 98 635 54 q 498 210 536 142 q 400 92 450 127 q 278 57 351 57 q 128 124 181 57 q 75 290 75 191 q 128 457 75 391 q 285 524 182 524 q 403 481 354 524 q 490 370 451 438 q 575 476 531 441 q 670 519 618 510 l 670 708 l -42 708 l -42 792 l 1030 792 l 1030 708 l 762 708 l 762 514 m 276 142 q 372 179 332 142 q 443 278 411 215 q 369 392 405 351 q 283 434 333 434 q 199 393 229 434 q 168 290 168 352 q 197 186 168 229 q 276 142 226 142 m 821 288 q 790 393 821 352 q 708 434 759 434 q 616 398 653 434 q 545 299 580 363 q 619 187 580 233 q 707 141 658 141 q 791 183 760 141 q 821 288 821 226 m 495 -75 q 452 -58 469 -75 q 436 -16 436 -42 q 452 29 436 12 q 495 45 469 45 q 539 29 523 45 q 556 -16 556 12 q 539 -58 556 -42 q 495 -75 523 -75 z "},"व":{"ha":714,"x_min":-42,"x_max":755,"o":"m 585 708 l 585 0 l 488 0 l 488 151 q 304 106 401 106 q 123 170 194 106 q 52 349 52 234 q 123 528 52 464 q 304 592 194 592 q 488 550 401 592 l 488 708 l -42 708 l -42 792 l 755 792 l 755 708 l 585 708 m 311 196 q 488 255 411 196 l 488 448 q 415 485 460 469 q 311 502 370 502 q 192 464 238 502 q 146 349 146 427 q 192 234 146 271 q 311 196 238 196 z "},"श":{"ha":943,"x_min":73,"x_max":984,"o":"m 502 576 q 444 392 502 464 q 290 260 387 321 l 500 36 l 434 -26 l 203 227 q 109 255 146 226 q 73 332 73 285 q 90 381 73 359 q 142 415 108 403 l 227 326 q 357 421 304 366 q 410 559 410 476 q 378 674 410 630 q 299 717 347 717 q 236 697 260 717 q 212 639 212 677 q 234 587 212 609 q 295 540 255 564 l 245 465 q 120 639 120 540 q 171 761 120 714 q 299 809 222 809 q 443 745 384 809 q 502 576 502 681 m 814 708 l 814 0 l 717 0 l 717 708 l 557 708 l 557 792 l 984 792 l 984 708 l 814 708 z "},"ष":{"ha":773,"x_min":-42,"x_max":814,"o":"m 644 708 l 644 0 l 547 0 l 547 214 q 359 179 443 179 q 168 247 234 179 q 101 424 101 314 l 101 708 l -42 708 l -42 792 l 814 792 l 814 708 l 644 708 m 243 708 l 547 337 l 547 708 l 243 708 m 356 266 q 488 286 422 266 l 194 639 q 198 592 198 608 l 198 424 q 241 308 198 351 q 356 266 285 266 z "},"स":{"ha":891,"x_min":-42,"x_max":932,"o":"m 762 708 l 762 0 l 665 0 l 665 302 q 465 281 573 281 q 253 318 373 281 q 198 290 226 300 l 405 24 l 323 -31 l 24 368 l 95 424 l 139 368 q 234 422 194 384 q 274 531 274 460 q 203 708 274 644 l -42 708 l -42 792 l 932 792 l 932 708 l 762 708 m 313 708 q 368 528 368 632 q 328 391 368 448 q 484 375 401 375 q 665 399 595 375 l 665 708 l 313 708 z "},"ह":{"ha":686,"x_min":-42,"x_max":727,"o":"m 342 512 q 239 493 273 512 q 205 432 205 474 q 243 356 205 389 q 372 377 302 377 q 530 330 472 377 q 589 193 589 283 q 573 130 589 161 q 530 73 557 99 l 458 123 q 471 137 460 125 q 490 164 483 149 q 497 194 497 179 q 467 264 497 236 q 375 293 438 292 q 234 253 285 293 q 182 156 182 214 q 279 16 182 66 q 521 -35 375 -35 l 500 -118 q 284 -84 377 -118 q 141 11 191 -50 q 90 153 90 73 q 109 235 90 194 q 160 307 128 276 q 119 371 130 342 q 108 432 108 399 q 168 559 108 517 q 330 601 229 601 q 402 598 378 601 q 436 594 425 595 l 436 708 l -42 708 l -42 792 l 727 792 l 727 708 l 533 708 l 533 509 l 516 497 q 470 503 486 500 q 429 509 462 505 q 342 512 396 512 z "},"क़":{"ha":953,"x_min":-42,"x_max":995,"o":"m 0 0 m 224 -38 q 181 -22 198 -38 q 165 21 165 -5 q 181 65 165 49 q 224 82 198 82 q 268 65 252 82 q 285 21 285 49 q 268 -22 285 -5 q 224 -38 252 -38 m 538 545 q 655 578 599 578 q 827 515 762 578 q 892 349 892 451 q 748 108 892 220 l 681 175 q 722 214 688 182 q 776 282 757 245 q 795 359 795 319 q 756 455 795 420 q 648 490 717 490 q 538 450 597 490 l 538 0 l 446 0 l 446 165 q 297 127 378 127 q 118 189 188 127 q 49 356 49 252 q 118 523 49 460 q 297 585 188 585 q 446 545 366 585 l 446 708 l -42 708 l -42 792 l 995 792 l 995 708 l 538 708 l 538 545 m 313 215 q 446 262 385 215 l 446 448 q 304 497 375 497 q 188 460 231 497 q 146 356 146 424 q 190 251 146 286 q 313 215 234 215 z "},"ख़":{"ha":1007,"x_min":-42,"x_max":1049,"o":"m 0 0 m 76 -5 q 34 11 50 -5 q 17 54 17 28 q 34 98 17 82 q 76 115 50 115 q 121 98 104 115 q 137 54 137 82 q 121 11 137 28 q 76 -5 104 -5 m 878 708 l 878 0 l 786 0 l 786 144 q 653 122 727 122 q 490 185 556 122 q 425 351 425 248 q 490 516 425 453 q 653 580 556 580 q 786 552 722 580 l 786 708 l 313 708 q 368 528 368 637 q 322 380 368 438 q 210 295 276 323 l 439 31 l 363 -30 l 24 368 l 94 427 l 144 370 q 236 424 198 385 q 274 531 274 462 q 203 708 274 644 l -42 708 l -42 792 l 1049 792 l 1049 708 l 878 708 m 668 210 q 786 240 734 210 l 786 455 q 660 491 731 491 q 562 454 601 491 q 523 351 523 417 q 563 247 523 283 q 668 210 602 210 z "},"ग़":{"ha":774,"x_min":-42,"x_max":816,"o":"m 648 708 l 648 0 l 550 0 l 550 708 l 262 708 l 262 196 l 196 196 l 75 354 l 75 413 l 167 413 l 167 708 l -42 708 l -42 792 l 816 792 l 816 708 l 648 708 m 295 120 q 339 103 323 120 q 356 59 356 87 q 339 16 356 33 q 295 0 323 0 q 253 16 269 0 q 236 59 236 33 q 253 103 236 87 q 295 120 269 120 z "},"ज़":{"ha":936,"x_min":-42,"x_max":977,"o":"m 807 708 l 807 0 l 710 0 l 710 427 l 533 427 q 580 288 580 368 q 544 167 580 214 q 457 99 509 120 q 356 78 406 78 q 157 163 241 78 q 24 408 73 248 l 106 443 q 211 240 144 313 q 354 168 278 168 q 451 201 413 168 q 490 295 490 234 q 456 391 490 349 q 344 432 422 432 l 344 510 l 418 510 l 710 510 l 710 708 l -42 708 l -42 792 l 977 792 l 977 708 l 807 708 m 269 9 q 313 -8 297 9 q 330 -52 330 -24 q 313 -95 330 -78 q 269 -111 297 -111 q 227 -95 243 -111 q 210 -52 210 -78 q 227 -8 210 -24 q 269 9 243 9 z "},"ड़":{"ha":703,"x_min":-49,"x_max":745,"o":"m 0 0 m 358 510 q 261 496 292 510 q 231 444 231 481 q 264 388 231 403 q 354 373 297 373 l 431 375 q 575 329 519 375 q 630 208 630 283 q 563 56 630 113 q 391 0 497 0 q 59 158 214 0 l 118 222 q 250 124 184 158 q 389 90 316 90 q 493 119 450 90 q 536 201 536 148 q 418 288 536 288 q 382 286 396 288 q 342 285 372 285 q 201 320 262 285 q 139 450 139 356 q 361 601 139 601 q 476 595 420 601 l 476 708 l -49 708 l -49 792 l 745 792 l 745 708 l 573 708 l 573 507 l 556 495 l 516 500 q 358 510 436 510 m 368 -193 q 326 -176 342 -193 q 309 -134 309 -160 q 326 -89 309 -106 q 368 -73 342 -73 q 412 -89 396 -73 q 429 -134 429 -106 q 412 -176 429 -160 q 368 -193 396 -193 z "},"ढ़":{"ha":688,"x_min":-42,"x_max":729,"o":"m 0 0 m 358 -196 q 315 -180 332 -196 q 299 -137 299 -163 q 315 -93 299 -109 q 358 -76 332 -76 q 402 -93 385 -76 q 418 -137 418 -109 q 402 -180 418 -163 q 358 -196 385 -196 m 361 458 q 216 411 266 458 q 167 280 167 365 q 214 149 167 201 q 337 87 260 97 q 318 181 318 132 q 360 289 318 248 q 467 330 403 330 q 578 284 540 330 q 616 186 616 238 q 546 46 616 92 q 373 0 476 0 q 214 36 283 0 q 109 134 146 71 q 71 274 71 196 q 144 471 71 392 q 352 550 217 550 q 450 547 405 550 l 450 708 l -42 708 l -42 792 l 729 792 l 729 708 l 547 708 l 547 455 l 531 443 l 484 448 q 361 458 405 458 m 467 240 q 406 175 406 240 q 427 90 406 125 q 499 121 474 97 q 524 175 524 144 q 509 222 524 205 q 467 240 493 240 z "},"फ़":{"ha":1047,"x_min":-42,"x_max":1089,"o":"m 0 0 m 266 -9 q 223 8 240 -9 q 207 50 207 24 q 223 95 207 78 q 266 111 240 111 q 310 95 293 111 q 326 50 326 78 q 310 8 326 24 q 266 -9 293 -9 m 606 524 q 766 578 696 578 q 938 515 873 578 q 1003 349 1003 451 q 859 108 1003 220 l 792 175 q 833 214 799 182 q 887 282 868 245 q 906 359 906 319 q 867 455 906 420 q 759 490 828 490 q 682 469 719 490 q 606 417 646 448 l 606 0 l 510 0 l 510 203 q 351 179 417 179 q 163 247 226 179 q 101 424 101 314 l 101 708 l -42 708 l -42 792 l 1089 792 l 1089 708 l 606 708 l 606 524 m 198 708 l 198 424 q 238 308 198 351 q 347 266 278 266 q 510 295 425 266 l 510 708 l 198 708 z "},"य़":{"ha":773,"x_min":-42,"x_max":814,"o":"m 0 0 m 179 -43 q 136 -27 153 -43 q 120 16 120 -10 q 136 60 120 43 q 179 76 153 76 q 223 60 207 76 q 240 16 240 43 q 223 -27 240 -10 q 179 -43 207 -43 m 644 708 l 644 0 l 547 0 l 547 194 q 370 146 458 146 q 181 198 262 146 q 59 319 101 250 l 78 370 q 175 439 137 401 q 214 533 214 477 q 137 708 214 618 l -42 708 l -42 792 l 814 792 l 814 708 l 644 708 m 247 708 q 309 531 309 623 q 276 411 309 458 q 182 316 243 363 q 262 259 215 280 q 361 238 309 238 q 463 254 413 238 q 547 304 512 271 l 547 708 l 247 708 z "},"ॹ":{"ha":936,"x_min":-42,"x_max":977,"o":"m 0 0 m 807 708 l 807 0 l 710 0 l 710 410 l 533 410 q 580 271 580 351 q 544 149 580 196 q 457 82 509 102 q 356 61 406 61 q 157 146 241 61 q 24 391 73 231 l 106 425 q 211 223 144 295 q 354 151 278 151 q 451 184 413 151 q 490 278 490 217 q 456 373 490 332 q 344 415 422 415 l 344 493 l 418 493 l 710 493 l 710 708 l -42 708 l -42 792 l 977 792 l 977 708 l 807 708 m 236 -120 q 194 -103 210 -120 q 177 -61 177 -87 q 194 -16 177 -33 q 236 0 210 0 q 280 -16 264 0 q 297 -61 297 -33 q 280 -103 297 -87 q 236 -120 264 -120 m 444 -120 q 402 -103 418 -120 q 385 -61 385 -87 q 402 -16 385 -33 q 444 0 418 0 q 489 -16 472 0 q 505 -61 505 -33 q 489 -103 505 -87 q 444 -120 472 -120 m 337 -259 q 294 -242 311 -259 q 278 -200 278 -226 q 294 -155 278 -172 q 337 -139 311 -139 q 381 -155 365 -139 q 398 -200 398 -172 q 381 -242 398 -226 q 337 -259 365 -259 z "},"ॺ":{"ha":773,"x_min":-42,"x_max":814,"o":"m 644 708 l 644 0 l 547 0 l 547 194 q 370 146 458 146 q 181 198 262 146 q 59 319 101 250 l 78 370 q 175 439 137 401 q 214 533 214 477 q 137 708 214 618 l -42 708 l -42 792 l 814 792 l 814 708 l 644 708 m 248 708 l 547 344 l 547 708 l 248 708 m 361 238 q 505 273 439 238 l 307 509 q 271 404 302 446 q 182 316 240 361 q 262 259 215 280 q 361 238 309 238 z "},"ॻ":{"ha":769,"x_min":-42,"x_max":811,"o":"m 641 708 l 641 -83 l 59 -83 l 59 0 l 543 0 l 543 708 l 255 708 l 255 156 l 189 156 l 59 314 l 59 373 l 160 373 l 160 708 l -42 708 l -42 792 l 811 792 l 811 708 l 641 708 z "},"ॼ":{"ha":936,"x_min":-42,"x_max":977,"o":"m 807 708 l 807 -83 l 36 -83 l 36 0 l 710 0 l 710 446 l 533 446 q 580 307 580 387 q 544 186 580 233 q 457 118 509 139 q 356 97 406 97 q 157 182 241 97 q 24 427 73 267 l 106 462 q 211 260 144 332 q 354 188 278 188 q 451 220 413 188 q 490 314 490 253 q 456 410 490 368 q 344 451 422 451 l 344 530 l 418 530 l 710 530 l 710 708 l -42 708 l -42 792 l 977 792 l 977 708 l 807 708 z "},"ॾ":{"ha":703,"x_min":-49,"x_max":745,"o":"m 358 510 q 261 496 292 510 q 231 444 231 481 q 264 388 231 403 q 354 373 297 373 l 431 375 q 575 329 519 375 q 630 208 630 283 q 563 56 630 113 q 391 0 497 0 q 59 158 214 0 l 118 222 q 250 124 184 158 q 389 90 316 90 q 493 119 450 90 q 536 201 536 148 q 418 288 536 288 q 382 286 396 288 q 342 285 372 285 q 201 320 262 285 q 139 450 139 356 q 361 601 139 601 q 476 595 420 601 l 476 708 l -49 708 l -49 792 l 745 792 l 745 708 l 573 708 l 573 507 l 556 495 l 516 500 q 358 510 436 510 m 630 -87 l 630 -170 l 59 -170 l 59 -87 l 630 -87 z "},"ॿ":{"ha":722,"x_min":-42,"x_max":764,"o":"m 594 708 l 594 -83 l 52 -83 l 52 0 l 497 0 l 497 158 q 313 113 410 113 q 126 177 200 113 q 52 356 52 241 q 128 534 52 469 q 313 599 205 599 q 497 556 413 599 l 497 708 l -42 708 l -42 792 l 764 792 l 764 708 l 594 708 m 319 512 q 247 502 280 512 l 497 264 l 497 455 q 319 512 422 512 m 141 356 q 192 239 141 278 q 319 200 243 200 q 424 220 377 200 l 175 457 q 141 356 141 417 z "},"ॸ":{"ha":682,"x_min":-42,"x_max":724,"o":"m 262 424 l 345 424 l 394 424 q 577 372 516 424 q 639 215 639 321 q 616 102 639 161 q 556 -28 594 43 l 467 23 q 520 134 502 89 q 538 212 538 179 q 504 302 538 278 q 382 326 470 326 l 262 326 l 262 201 l 196 201 l 59 366 l 59 424 l 167 424 l 167 708 l -42 708 l -42 792 l 724 792 l 724 708 l 262 708 l 262 424 z "},"०":{"ha":628,"x_min":52,"x_max":576,"o":"m 576 385 q 503 188 576 264 q 316 113 429 113 q 127 188 201 113 q 52 385 52 262 q 127 583 52 509 q 316 658 201 658 q 503 583 431 658 q 576 385 576 509 m 481 385 q 434 521 481 472 q 314 569 387 569 q 196 520 243 569 q 149 385 149 470 q 196 250 149 299 q 314 201 243 201 q 434 250 387 201 q 481 385 481 299 z "},"१":{"ha":521,"x_min":78,"x_max":469,"o":"m 469 575 q 436 446 469 502 q 349 347 403 391 q 207 250 295 304 l 439 43 l 375 -24 l 95 231 l 111 300 q 253 389 224 366 q 128 482 177 431 q 78 604 78 533 q 132 739 78 686 q 273 792 186 792 q 412 730 356 792 q 469 575 469 668 m 175 608 q 215 522 175 557 q 325 451 255 486 q 372 573 372 503 q 345 665 372 627 q 269 703 319 703 q 201 674 227 703 q 175 608 175 646 z "},"२":{"ha":623,"x_min":56,"x_max":554,"o":"m 554 540 q 490 366 554 443 q 321 243 425 290 l 524 47 l 458 -14 l 220 226 q 121 248 158 219 q 83 326 83 278 q 102 372 83 351 q 155 401 120 392 l 252 309 q 392 391 328 328 q 457 538 457 453 q 413 658 457 611 q 292 705 370 705 q 108 628 203 705 l 56 705 q 299 793 163 793 q 481 726 408 793 q 554 540 554 658 z "},"३":{"ha":601,"x_min":69,"x_max":531,"o":"m 531 285 q 475 174 531 224 q 326 116 418 125 l 448 0 l 370 -57 l 224 115 q 110 160 151 128 q 69 234 69 191 q 87 280 69 260 q 137 306 104 299 l 233 200 q 285 196 271 196 q 396 225 358 196 q 434 293 434 253 q 381 383 434 354 q 234 411 328 411 l 200 411 l 200 498 l 234 498 q 362 526 309 498 q 415 609 415 554 q 380 681 415 658 q 295 705 345 705 q 139 661 214 705 l 95 741 q 192 781 146 769 q 299 793 238 793 q 449 751 385 793 q 512 622 512 708 q 472 516 512 557 q 361 457 432 474 q 483 405 434 451 q 531 285 531 359 z "},"४":{"ha":658,"x_min":52,"x_max":606,"o":"m 406 377 q 514 283 477 326 q 550 188 550 240 q 489 64 550 113 q 326 16 427 16 q 167 64 227 16 q 106 188 106 113 q 142 283 106 240 q 250 377 179 326 q 151 451 188 422 q 83 535 115 481 q 52 658 52 589 q 95 783 52 719 l 179 734 q 167 713 175 729 q 154 680 158 696 q 149 644 149 663 q 185 545 149 585 q 293 457 220 505 l 328 432 l 365 458 q 474 547 439 509 q 509 644 509 585 q 502 687 509 668 q 487 718 495 705 q 477 734 479 731 l 561 783 q 606 658 606 722 q 574 536 606 589 q 504 451 542 483 q 406 377 467 418 m 328 104 q 420 128 385 104 q 455 188 455 153 q 422 252 455 220 q 328 323 389 283 q 234 250 266 280 q 203 188 203 220 q 237 128 203 153 q 328 104 271 104 z "},"५":{"ha":628,"x_min":61,"x_max":594,"o":"m 434 220 q 304 191 372 191 q 123 260 186 191 q 61 432 61 328 q 89 587 61 516 q 174 760 116 658 l 191 792 l 276 752 l 253 710 q 181 565 205 623 q 158 438 158 507 q 194 324 158 368 q 302 280 229 280 q 408 302 358 280 l 378 406 q 457 438 417 438 q 519 411 495 438 q 543 342 543 384 q 532 298 543 319 q 503 260 521 276 l 594 12 l 503 -14 l 434 220 z "},"६":{"ha":597,"x_min":69,"x_max":563,"o":"m 432 108 q 330 94 389 94 q 193 122 252 94 q 102 194 134 149 q 69 292 69 240 q 119 405 69 363 q 238 458 168 446 q 89 622 89 497 q 153 751 89 708 q 300 793 217 793 q 503 741 408 793 l 462 661 q 304 705 387 705 q 220 681 253 705 q 188 609 188 658 q 239 526 188 554 q 365 498 290 498 l 401 498 l 401 411 l 365 411 q 167 293 167 411 q 210 213 167 248 q 344 177 253 177 q 408 188 382 177 l 382 276 q 453 290 418 290 q 520 267 497 290 q 543 217 543 245 q 500 139 543 170 l 563 -9 l 476 -38 l 432 108 z "},"७":{"ha":811,"x_min":52,"x_max":759,"o":"m 531 700 q 695 612 632 700 q 759 380 759 524 q 721 211 759 293 q 606 76 684 128 q 410 23 528 23 q 219 76 300 23 q 95 220 137 128 q 52 425 52 313 q 69 576 52 507 q 105 682 87 644 q 151 773 123 720 l 236 733 q 174 597 200 670 q 149 427 149 524 q 220 198 149 283 q 408 113 292 113 q 586 176 519 113 q 661 344 653 240 q 538 311 599 311 q 390 367 443 311 q 337 510 337 424 q 392 644 337 589 q 531 700 448 700 m 434 507 q 462 431 434 458 q 538 403 490 403 q 605 413 576 403 q 660 444 634 424 q 619 564 653 521 q 533 608 585 608 q 461 580 488 608 q 434 507 434 552 z "},"८":{"ha":557,"x_min":52,"x_max":540,"o":"m 540 82 q 427 34 474 50 q 309 17 380 17 q 122 85 191 17 q 52 260 52 153 q 109 439 52 351 q 234 595 165 528 q 401 741 304 661 l 441 774 l 503 710 l 464 675 q 309 540 372 599 q 198 407 247 481 q 149 262 149 333 q 194 147 149 188 q 311 106 238 106 q 502 161 396 106 l 540 82 z "},"९":{"ha":523,"x_min":52,"x_max":444,"o":"m 332 398 q 417 299 389 345 q 444 194 444 253 q 420 106 444 144 q 365 42 396 68 q 273 -28 333 16 l 212 49 q 312 124 276 90 q 347 194 347 158 q 319 276 347 241 q 231 361 290 311 q 203 384 233 359 q 143 435 189 396 q 75 516 97 474 q 52 604 52 557 q 107 736 52 681 q 247 792 161 792 q 389 741 335 792 q 443 608 443 691 q 414 498 443 545 q 332 398 385 451 m 149 604 q 176 535 149 566 q 264 455 203 503 q 345 606 345 528 q 319 675 345 648 q 247 703 292 703 q 176 674 203 703 q 149 604 149 644 z "},"ॽ":{"ha":799,"x_min":174,"x_max":677,"o":"m 415 806 q 602 747 528 806 q 677 576 677 688 q 619 398 677 470 q 394 276 561 325 l 394 0 l 285 0 l 285 342 q 464 407 403 377 q 549 474 526 438 q 571 568 571 510 q 529 671 571 637 q 408 705 486 705 q 308 692 351 705 q 210 653 266 679 l 174 748 q 290 790 234 774 q 415 806 345 806 z "},"।":{"ha":425,"x_min":243,"x_max":339,"o":"m 339 -52 l 243 -52 l 243 821 l 339 821 l 339 -52 z "},"॥":{"ha":677,"x_min":243,"x_max":590,"o":"m 339 -52 l 243 -52 l 243 826 l 339 826 l 339 -52 m 590 -52 l 495 -52 l 495 826 l 590 826 l 590 -52 z "},"॰":{"ha":457,"x_min":9,"x_max":370,"o":"m 189 174 q 62 227 115 174 q 9 354 9 280 q 62 482 9 429 q 189 535 115 535 q 317 482 264 535 q 370 354 370 429 q 317 227 370 280 q 189 174 264 174 m 189 267 q 253 293 227 267 q 278 356 278 318 q 253 419 278 394 q 189 444 227 444 q 126 419 151 444 q 101 356 101 394 q 126 293 101 318 q 189 267 151 267 z "},"ॱ":{"ha":384,"x_min":128,"x_max":255,"o":"m 191 688 q 146 706 163 688 q 128 750 128 724 q 146 796 128 778 q 191 814 163 814 q 238 796 220 814 q 255 750 255 778 q 238 706 255 724 q 191 688 220 688 z "},"ॐ":{"ha":1188,"x_min":31,"x_max":1156,"o":"m 819 840 q 780 856 795 840 q 766 894 766 872 q 780 934 766 918 q 819 950 795 950 q 860 934 845 950 q 875 894 875 918 q 860 856 875 872 q 819 840 845 840 m 818 658 q 668 705 727 658 q 585 830 608 752 l 661 863 q 720 771 686 800 q 818 741 755 741 q 916 771 880 741 q 976 863 951 800 l 1049 830 q 968 705 1028 752 q 818 658 908 658 m 969 592 q 1104 513 1052 592 q 1156 330 1156 434 q 1128 205 1156 262 q 1052 115 1101 148 q 946 82 1003 82 q 821 138 873 82 q 745 286 769 194 q 670 274 714 274 q 618 281 649 274 q 622 238 622 253 q 553 100 622 156 q 385 43 484 43 q 189 109 269 43 q 31 313 109 174 l 108 359 q 233 189 170 245 q 384 134 295 134 q 490 165 450 134 q 531 255 531 196 q 309 392 531 401 l 276 392 l 276 477 l 316 477 q 505 602 505 476 q 471 678 505 651 q 384 705 438 705 q 299 687 333 705 q 229 635 266 668 l 177 707 q 271 769 226 745 q 385 793 316 793 q 537 742 479 793 q 595 613 595 691 q 564 508 595 554 q 470 434 533 462 q 542 403 510 424 q 606 375 580 384 q 667 366 632 366 q 751 395 719 366 q 821 481 783 424 q 890 565 859 538 q 969 592 920 592 m 944 179 q 1027 223 995 179 q 1059 330 1059 267 q 1031 444 1059 399 q 964 490 1003 490 q 927 472 943 490 q 889 418 911 455 q 863 383 882 410 q 823 335 844 356 q 872 220 844 262 q 944 179 899 179 z "},"*":{"ha":781,"x_min":127,"x_max":655,"o":"m 436 736 l 602 845 l 655 757 l 477 660 l 653 568 l 604 483 l 438 592 l 439 391 l 339 391 l 345 592 l 179 484 l 127 571 l 306 665 l 127 757 l 179 845 l 345 736 l 339 938 l 439 938 l 436 736 z "},"\\":{"ha":519,"x_min":52,"x_max":493,"o":"m 384 -61 l 493 -61 l 160 955 l 52 955 l 384 -61 z "},"·":{"ha":398,"x_min":113,"x_max":285,"o":"m 200 408 q 138 433 163 408 q 113 495 113 458 q 138 555 113 530 q 200 580 163 580 q 260 555 234 580 q 285 495 285 530 q 260 433 285 458 q 200 408 234 408 z "},"•":{"ha":929,"x_min":234,"x_max":694,"o":"m 465 234 q 580 266 528 234 q 663 350 632 297 q 694 465 694 403 q 664 581 694 528 q 581 664 634 634 q 465 694 528 694 q 350 663 403 694 q 266 580 297 632 q 234 465 234 528 q 266 350 234 403 q 350 266 297 297 q 465 234 403 234 z "},":":{"ha":406,"x_min":128,"x_max":278,"o":"m 203 406 q 148 427 168 406 q 128 481 128 448 q 148 535 128 514 q 203 556 168 556 q 258 535 238 556 q 278 481 278 514 q 258 427 278 448 q 203 406 238 406 m 203 -10 q 148 10 168 -10 q 128 64 128 31 q 148 118 128 97 q 203 139 168 139 q 258 118 238 139 q 278 64 278 97 q 258 10 278 31 q 203 -10 238 -10 z "},",":{"ha":382,"x_min":75,"x_max":250,"o":"m 168 122 q 227 98 205 122 q 250 33 250 75 q 211 -83 250 -26 q 116 -187 172 -141 l 75 -160 q 144 -30 120 -82 q 89 47 89 -10 q 110 101 89 80 q 168 122 132 122 z "},"…":{"ha":905,"x_min":113,"x_max":792,"o":"m 188 -5 q 133 16 153 -5 q 113 69 113 36 q 133 123 113 102 q 188 144 153 144 q 242 123 222 144 q 262 69 262 102 q 242 16 262 36 q 188 -5 222 -5 m 451 -5 q 397 16 417 -5 q 377 69 377 36 q 397 123 377 102 q 451 144 417 144 q 506 123 486 144 q 526 69 526 102 q 506 16 526 36 q 451 -5 486 -5 m 717 -5 q 662 16 682 -5 q 642 69 642 36 q 662 123 642 102 q 717 144 682 144 q 772 123 752 144 q 792 69 792 102 q 772 16 792 36 q 717 -5 752 -5 z "},"!":{"ha":358,"x_min":156,"x_max":288,"o":"m 264 156 l 179 156 l 163 856 l 280 856 l 264 156 m 222 -68 q 174 -49 191 -68 q 156 -2 156 -31 q 174 46 156 28 q 222 64 191 64 q 271 46 253 64 q 288 -2 288 28 q 271 -49 288 -31 q 222 -68 253 -68 z "},"¡":{"ha":306,"x_min":122,"x_max":253,"o":"m 188 839 q 236 820 219 839 q 253 773 253 802 q 236 725 253 743 q 188 707 219 707 q 139 725 156 707 q 122 773 122 743 q 139 821 122 804 q 188 839 156 839 m 229 615 l 245 -85 l 128 -85 l 144 615 l 229 615 z "},"#":{"ha":957,"x_min":63,"x_max":894,"o":"m 63 602 l 63 512 l 278 512 l 278 293 l 64 293 l 64 203 l 278 203 l 278 -64 l 373 -64 l 373 203 l 580 203 l 580 -64 l 677 -64 l 677 203 l 894 203 l 894 293 l 677 293 l 677 512 l 894 512 l 894 602 l 677 602 l 677 858 l 580 858 l 580 602 l 373 602 l 373 858 l 278 858 l 278 602 l 63 602 m 580 512 l 580 293 l 373 293 l 373 512 l 580 512 z "},".":{"ha":382,"x_min":113,"x_max":269,"o":"m 191 -7 q 135 16 156 -7 q 113 71 113 38 q 135 127 113 104 q 191 149 156 149 q 247 127 226 149 q 269 71 269 104 q 247 16 269 38 q 191 -7 226 -7 z "},"?":{"ha":738,"x_min":156,"x_max":668,"o":"m 406 865 q 594 806 519 865 q 668 635 668 747 q 637 507 668 557 q 545 399 606 457 q 494 350 536 391 q 436 265 451 309 q 420 160 420 220 l 311 160 q 370 365 311 286 q 446 443 392 392 q 534 537 505 498 q 563 627 563 576 q 520 730 563 696 q 399 764 477 764 q 291 751 335 764 q 191 712 247 738 l 156 806 q 275 849 219 833 q 406 865 332 865 m 365 -69 q 316 -51 333 -69 q 299 -3 299 -33 q 316 44 299 26 q 365 63 333 63 q 413 44 396 63 q 431 -3 431 26 q 413 -51 431 -33 q 365 -69 396 -69 z "},"¿":{"ha":686,"x_min":122,"x_max":634,"o":"m 425 839 q 474 820 457 839 q 491 773 491 802 q 474 725 491 743 q 425 707 457 707 q 377 725 394 707 q 359 773 359 743 q 377 820 359 802 q 425 839 394 839 m 384 -95 q 196 -36 271 -95 q 122 134 122 23 q 153 262 122 212 q 245 370 184 313 q 296 419 253 378 q 354 504 339 460 q 370 609 370 549 l 479 609 q 420 405 479 483 q 344 326 398 377 q 256 232 285 271 q 227 142 227 193 q 270 39 227 73 q 391 5 313 5 q 499 18 453 5 q 599 57 545 31 l 634 -36 q 515 -80 571 -64 q 384 -95 458 -95 z "},"\"":{"ha":493,"x_min":94,"x_max":399,"o":"m 97 651 m 149 938 q 194 918 181 938 q 205 866 208 899 l 179 651 l 123 651 l 97 866 q 149 938 94 938 m 340 938 q 385 918 372 938 q 396 866 399 899 l 370 651 l 314 651 l 288 866 q 340 938 285 938 z "},"'":{"ha":302,"x_min":94,"x_max":208,"o":"m 149 938 q 194 918 181 938 q 205 866 208 899 l 179 651 l 123 651 l 97 866 q 149 938 94 938 z "},";":{"ha":406,"x_min":109,"x_max":285,"o":"m 203 406 q 148 427 168 406 q 128 481 128 448 q 148 535 128 514 q 203 556 168 556 q 258 535 238 556 q 278 481 278 514 q 258 427 278 448 q 203 406 238 406 m 203 122 q 262 98 240 122 q 285 33 285 75 q 246 -83 285 -26 q 151 -187 207 -141 l 109 -160 q 179 -30 155 -82 q 123 47 123 -10 q 145 101 123 80 q 203 122 167 122 z "},"/":{"ha":519,"x_min":26,"x_max":467,"o":"m 134 -61 l 467 955 l 359 955 l 26 -61 l 134 -61 z "},"_":{"ha":785,"x_min":104,"x_max":681,"o":"m 681 -144 l 681 -43 l 104 -43 l 104 -144 l 681 -144 z "},"{":{"ha":536,"x_min":61,"x_max":493,"o":"m 61 326 q 175 265 127 316 q 224 146 224 214 l 224 16 q 294 -187 224 -113 q 469 -274 365 -260 l 493 -181 q 395 -144 431 -167 q 340 -75 359 -122 q 321 54 321 -28 l 321 161 q 205 372 321 288 q 287 457 253 405 q 321 582 321 509 l 321 688 q 340 817 321 771 q 395 885 359 863 q 493 922 431 908 l 469 1017 q 294 929 365 1003 q 224 727 224 854 l 224 597 q 175 478 224 530 q 61 417 127 427 l 61 326 z "},"}":{"ha":536,"x_min":43,"x_max":476,"o":"m 476 417 q 361 478 410 427 q 313 597 313 530 l 313 727 q 242 929 313 854 q 68 1017 172 1003 l 43 922 q 141 885 106 908 q 196 817 177 863 q 215 688 215 771 l 215 582 q 249 457 215 509 q 332 372 283 405 q 215 161 215 288 l 215 54 q 196 -75 215 -28 q 141 -144 177 -122 q 43 -181 106 -167 l 68 -274 q 242 -187 172 -260 q 313 16 313 -113 l 313 146 q 359 266 313 217 q 476 325 406 314 l 476 417 z "},"[":{"ha":528,"x_min":109,"x_max":418,"o":"m 109 1017 l 418 1017 l 418 931 l 207 931 l 207 -155 l 418 -155 l 418 -241 l 109 -241 l 109 1017 z "},"]":{"ha":528,"x_min":109,"x_max":418,"o":"m 109 -155 l 321 -155 l 321 931 l 109 931 l 109 1017 l 418 1017 l 418 -241 l 109 -241 l 109 -155 z "},"(":{"ha":467,"x_min":109,"x_max":398,"o":"m 217 385 q 262 87 217 248 q 398 -219 306 -59 l 321 -260 q 109 389 109 82 q 321 1038 109 696 l 398 997 q 262 691 306 837 q 217 385 217 530 z "},")":{"ha":467,"x_min":69,"x_max":358,"o":"m 250 385 q 205 691 250 530 q 69 997 161 837 l 146 1038 q 358 389 358 696 q 146 -260 358 82 l 69 -219 q 205 87 161 -59 q 250 385 250 248 z "},"—":{"ha":1122,"x_min":69,"x_max":1017,"o":"m 1017 330 l 69 330 l 69 411 l 1017 411 l 1017 330 z "},"–":{"ha":757,"x_min":69,"x_max":653,"o":"m 653 330 l 69 330 l 69 411 l 653 411 l 653 330 z "},"-":{"ha":601,"x_min":69,"x_max":497,"o":"m 497 330 l 69 330 l 69 411 l 497 411 l 497 330 z "},"­":{"ha":566,"x_min":69,"x_max":497,"o":"m 69 330 m 497 330 l 69 330 l 69 411 l 497 411 l 497 330 z "},"«":{"ha":632,"x_min":50,"x_max":597,"o":"m 222 174 l 345 174 l 161 418 l 345 667 l 222 667 l 50 418 l 222 174 m 472 174 l 597 174 l 411 418 l 597 667 l 472 667 l 299 418 l 472 174 z "},"»":{"ha":630,"x_min":35,"x_max":580,"o":"m 219 418 l 35 174 l 160 174 l 330 418 l 160 667 l 35 667 l 219 418 m 469 418 l 286 174 l 411 174 l 580 418 l 411 667 l 286 667 l 469 418 z "},"‹":{"ha":380,"x_min":50,"x_max":342,"o":"m 222 174 l 342 174 l 168 418 l 342 667 l 222 667 l 50 418 l 222 174 z "},"›":{"ha":380,"x_min":38,"x_max":330,"o":"m 212 418 l 38 174 l 160 174 l 330 418 l 160 667 l 38 667 l 212 418 z "},"„":{"ha":549,"x_min":122,"x_max":479,"o":"m 122 0 m 203 123 q 259 101 238 123 q 280 40 280 78 q 247 -57 280 -9 q 163 -149 214 -106 l 122 -122 q 146 -81 125 -115 q 179 -17 167 -47 q 128 54 128 -2 q 149 102 128 82 q 203 123 170 123 m 403 123 q 458 101 438 123 q 479 40 479 78 q 446 -57 479 -9 q 363 -149 413 -106 l 321 -122 q 345 -81 325 -115 q 378 -17 366 -47 q 328 54 328 -2 q 349 102 328 82 q 403 123 370 123 z "},"“":{"ha":531,"x_min":68,"x_max":425,"o":"m 68 667 m 168 807 q 219 736 219 792 q 198 687 219 707 q 144 667 177 667 q 89 689 109 667 q 68 750 68 712 q 182 939 68 839 l 226 910 q 168 807 184 845 m 368 807 q 418 736 418 792 q 398 687 418 707 q 344 667 377 667 q 288 689 309 667 q 267 750 267 712 q 382 939 267 839 l 425 910 q 368 807 384 845 z "},"”":{"ha":549,"x_min":122,"x_max":479,"o":"m 122 667 m 203 939 q 259 917 238 939 q 280 856 280 894 q 247 759 280 807 q 163 667 214 710 l 122 694 q 146 735 125 701 q 179 799 167 769 q 128 870 128 814 q 149 918 128 898 q 203 939 170 939 m 403 939 q 458 917 438 939 q 479 856 479 894 q 446 759 479 807 q 363 667 413 710 l 321 694 q 345 735 325 701 q 378 799 366 769 q 328 870 328 814 q 349 918 328 898 q 403 939 370 939 z "},"‘":{"ha":349,"x_min":69,"x_max":227,"o":"m 170 807 q 220 736 220 792 q 200 687 220 707 q 146 667 179 667 q 90 689 111 667 q 69 750 69 712 q 184 939 69 839 l 227 910 q 170 807 186 845 z "},"’":{"ha":349,"x_min":122,"x_max":280,"o":"m 203 939 q 259 917 238 939 q 280 856 280 894 q 247 759 280 807 q 163 667 214 710 l 122 694 q 146 735 125 701 q 179 799 167 769 q 128 870 128 814 q 149 918 128 898 q 203 939 170 939 z "},"‚":{"ha":314,"x_min":104,"x_max":262,"o":"m 186 122 q 241 99 220 122 q 262 38 262 76 q 229 -59 262 -10 q 146 -151 196 -108 l 104 -123 q 128 -82 108 -116 q 161 -19 149 -49 q 111 52 111 -3 q 132 101 111 80 q 186 122 153 122 z "},"π":{"ha":760,"x_min":17,"x_max":760,"o":"m 120 0 l 236 0 l 236 563 l 483 563 l 483 144 q 523 29 484 73 q 625 -16 561 -16 q 692 -9 665 -16 q 736 6 719 -2 q 760 17 753 14 l 740 99 q 681 89 708 89 q 608 111 623 89 q 592 184 592 134 l 592 563 l 705 563 l 705 667 l 17 667 l 17 563 l 120 563 l 120 0 z "},"¢":{"ha":693,"x_min":101,"x_max":609,"o":"m 101 396 q 170 170 101 255 q 365 71 240 85 l 365 -87 l 446 -87 l 446 69 q 604 106 523 76 l 576 182 q 491 164 538 170 q 408 160 444 158 q 258 230 309 160 q 207 422 207 300 q 266 597 207 536 q 444 658 326 658 q 582 632 521 658 l 609 714 q 534 739 571 731 q 446 752 497 747 l 446 891 l 365 891 l 365 748 q 170 637 240 731 q 101 396 101 543 z "},"¤":{"ha":811,"x_min":95,"x_max":715,"o":"m 635 377 q 602 253 635 309 l 712 148 l 637 68 l 526 175 q 405 144 469 144 q 285 175 337 144 l 177 68 l 97 146 l 207 250 q 172 377 172 304 q 207 502 172 446 l 95 609 l 174 686 l 285 578 q 405 608 339 608 q 524 576 467 608 l 639 684 l 715 609 l 604 498 q 635 377 635 441 m 408 243 q 504 281 467 243 q 542 378 542 319 q 504 475 542 438 q 408 512 467 512 q 311 475 349 512 q 273 378 273 438 q 311 280 273 318 q 408 243 349 243 z "},"$":{"ha":641,"x_min":69,"x_max":571,"o":"m 571 236 q 517 121 571 170 q 370 61 464 71 l 370 -87 l 274 -87 l 274 59 q 69 108 165 68 l 101 193 q 314 153 214 153 q 418 176 375 153 q 460 245 460 200 q 444 292 460 273 q 392 327 427 311 q 276 377 358 344 l 234 394 q 185 417 227 398 q 115 477 142 436 q 87 573 87 517 q 138 691 87 648 q 274 745 189 734 l 274 891 l 370 891 l 370 747 q 545 705 467 741 l 517 622 q 440 644 488 634 q 349 655 392 655 q 236 633 276 655 q 196 571 196 611 q 228 510 196 533 q 339 458 260 488 l 399 434 q 533 351 495 394 q 571 236 571 307 z "},"€":{"ha":859,"x_min":26,"x_max":773,"o":"m 773 47 q 648 -1 705 14 q 514 -16 590 -16 q 286 59 378 -16 q 158 259 193 134 l 26 259 l 26 354 l 141 354 q 139 401 139 370 q 141 448 139 432 l 26 448 l 26 543 l 158 543 q 286 740 194 667 q 510 813 378 813 q 626 803 583 813 q 762 762 668 793 l 729 668 q 622 701 660 693 q 521 708 585 708 q 365 664 429 708 q 274 543 302 620 l 615 543 l 615 448 l 259 448 q 255 403 255 417 q 259 354 255 385 l 615 354 l 615 259 l 274 259 q 374 134 306 177 q 538 90 443 90 q 634 101 590 90 q 745 137 677 111 l 773 47 z "},"ƒ":{"ha":578,"x_min":-45,"x_max":543,"o":"m 54 -205 q -30 -194 23 -205 l -45 -276 q 29 -292 -2 -288 q 95 -295 59 -295 q 240 -244 186 -295 q 295 -92 295 -193 l 295 422 l 484 422 l 484 510 l 295 510 l 295 571 q 326 683 295 655 q 427 712 358 712 q 526 696 457 712 l 543 780 q 385 806 465 806 q 191 582 191 806 l 191 510 l 73 510 l 73 422 l 191 422 l 191 -62 q 156 -172 191 -139 q 54 -205 122 -205 z "},"₹":{"ha":602,"x_min":35,"x_max":568,"o":"m 366 712 q 417 602 403 667 l 568 602 l 568 523 l 424 523 q 372 378 422 434 q 253 297 323 321 l 460 33 l 378 -23 l 83 368 l 155 424 l 198 368 q 292 419 252 382 q 335 523 332 457 l 35 523 l 35 602 l 326 602 q 259 712 309 672 l 35 712 l 35 792 l 568 792 l 568 712 l 366 712 z "},"£":{"ha":799,"x_min":104,"x_max":712,"o":"m 712 0 l 712 90 l 349 90 l 349 358 l 674 358 l 674 450 l 349 450 l 349 524 q 406 671 349 622 q 559 720 464 720 q 675 705 597 720 l 707 785 q 550 811 628 811 q 312 718 385 811 q 238 479 238 625 l 238 450 l 120 450 l 120 358 l 238 358 l 238 90 l 104 90 l 104 0 l 712 0 z "},"¥":{"ha":771,"x_min":87,"x_max":684,"o":"m 684 792 l 576 792 l 385 484 l 198 792 l 87 792 l 323 406 l 142 406 l 142 321 l 326 321 l 326 210 l 142 210 l 142 128 l 326 128 l 326 0 l 432 0 l 432 128 l 628 128 l 628 210 l 432 210 l 432 321 l 628 321 l 628 406 l 438 406 l 684 792 z "},"Ω":{"ha":929,"x_min":69,"x_max":859,"o":"m 465 826 q 185 725 281 826 q 89 467 89 623 q 137 273 89 361 q 285 94 186 184 l 69 94 l 69 0 l 399 0 l 398 109 l 325 182 q 203 474 203 299 q 271 655 203 583 q 465 726 339 726 q 664 655 599 726 q 729 474 729 585 q 705 321 729 387 q 606 182 681 255 l 533 109 l 533 0 l 859 0 l 859 94 l 646 94 q 797 277 750 194 q 844 467 844 359 q 745 727 844 627 q 465 826 646 826 z "},"≈":{"ha":941,"x_min":139,"x_max":802,"o":"m 470 483 q 556 453 524 462 q 623 444 587 444 q 802 517 707 444 l 752 597 q 623 540 677 540 q 563 549 590 540 q 510 569 535 557 q 472 585 484 580 q 319 623 391 623 q 139 550 238 623 l 191 470 q 319 530 264 530 q 373 522 349 530 q 436 498 398 514 l 470 483 m 470 226 q 556 196 524 205 q 623 188 587 188 q 802 260 707 188 l 752 340 q 623 283 677 283 q 563 292 590 283 q 510 312 535 300 q 472 328 484 323 q 319 366 391 366 q 139 293 238 366 l 191 214 q 319 273 264 273 q 373 265 349 273 q 436 241 398 257 l 470 226 z "},"~":{"ha":658,"x_min":97,"x_max":563,"o":"m 243 931 q 149 893 188 931 q 97 793 111 856 l 175 767 q 202 826 188 807 q 245 844 217 844 q 272 835 257 844 q 297 819 286 826 q 314 807 307 813 q 411 769 361 769 q 510 806 470 769 q 563 905 550 844 l 483 931 q 457 872 472 891 q 408 852 441 852 q 377 862 394 852 q 333 892 359 872 q 286 921 307 911 q 243 931 266 931 z "},"∙":{"ha":585,"x_min":174,"x_max":411,"o":"m 174 392 q 208 308 174 342 q 293 274 243 274 q 377 308 342 274 q 411 392 411 342 q 377 477 411 443 q 293 512 342 512 q 208 477 243 512 q 174 392 174 443 z "},"÷":{"ha":781,"x_min":104,"x_max":677,"o":"m 391 556 q 336 576 356 556 q 316 630 316 597 q 336 684 316 663 q 391 705 356 705 q 445 684 425 705 q 465 630 465 663 q 445 576 465 597 q 391 556 425 556 m 677 354 l 677 451 l 104 451 l 104 354 l 677 354 m 391 101 q 336 122 356 101 q 316 175 316 142 q 336 229 316 208 q 391 250 356 250 q 445 229 425 250 q 465 175 465 208 q 445 122 465 142 q 391 101 425 101 z "},"∕":{"ha":436,"x_min":-87,"x_max":523,"o":"m 19 0 l 523 792 l 417 792 l -87 0 l 19 0 z "},"=":{"ha":906,"x_min":139,"x_max":767,"o":"m 767 481 l 767 578 l 139 578 l 139 481 l 767 481 m 767 222 l 767 319 l 139 319 l 139 222 l 767 222 z "},">":{"ha":743,"x_min":83,"x_max":674,"o":"m 83 655 l 554 417 l 83 181 l 83 73 l 674 361 l 674 472 l 83 762 l 83 655 z "},"≥":{"ha":741,"x_min":83,"x_max":672,"o":"m 83 655 l 83 557 l 554 411 l 83 267 l 83 168 l 670 356 l 670 467 l 83 655 m 83 0 l 672 0 l 672 94 l 83 94 l 83 0 z "},"∆":{"ha":785,"x_min":56,"x_max":729,"o":"m 457 792 l 332 792 l 56 87 l 56 0 l 729 0 l 729 87 l 457 792 m 172 97 l 392 674 l 615 97 l 172 97 z "},"∞":{"ha":1101,"x_min":52,"x_max":1049,"o":"m 785 83 q 977 165 901 83 q 1030 253 1012 203 q 1049 359 1049 302 q 979 569 1049 484 q 895 634 944 611 q 788 656 845 656 q 622 607 688 656 q 488 455 556 557 q 391 558 441 521 q 278 595 340 595 q 114 528 175 595 q 52 359 52 460 q 113 192 52 260 q 269 123 174 123 q 391 164 340 123 q 498 280 441 205 q 633 135 566 188 q 785 83 700 83 m 762 550 q 889 500 844 550 q 934 359 934 450 q 893 234 934 283 q 788 186 852 186 q 550 368 674 186 q 654 503 604 457 q 762 550 703 550 m 273 226 q 191 261 222 226 q 160 359 160 297 q 192 457 160 420 q 274 493 224 493 q 352 463 319 493 q 408 401 385 432 q 438 361 431 370 q 359 264 399 302 q 273 226 319 226 z "},"∫":{"ha":479,"x_min":78,"x_max":401,"o":"m 401 5 q 374 168 401 80 q 295 384 347 255 l 264 464 l 248 505 q 196 651 214 592 q 179 769 179 710 q 204 837 179 809 q 274 865 229 865 q 354 849 311 865 l 387 938 q 264 964 325 964 q 127 911 175 964 q 78 762 78 859 q 95 657 78 715 q 155 484 113 599 l 175 429 q 212 337 188 396 q 279 158 255 234 q 304 2 302 82 q 279 -82 304 -47 q 208 -116 253 -116 q 159 -109 182 -116 q 130 -101 135 -102 l 97 -191 q 215 -214 146 -214 q 352 -155 304 -214 q 401 5 401 -95 z "},"<":{"ha":740,"x_min":69,"x_max":656,"o":"m 656 181 l 186 417 l 656 655 l 656 762 l 69 472 l 69 361 l 656 73 l 656 181 z "},"≤":{"ha":741,"x_min":69,"x_max":658,"o":"m 658 267 l 188 411 l 658 557 l 658 655 l 71 467 l 71 356 l 658 168 l 658 267 m 658 0 l 658 94 l 69 94 l 69 0 l 658 0 z "},"¬":{"ha":837,"x_min":95,"x_max":741,"o":"m 655 330 l 655 125 l 741 125 l 741 413 l 95 413 l 95 330 l 655 330 z "},"µ":{"ha":745,"x_min":101,"x_max":649,"o":"m 210 -276 l 210 36 q 361 -17 264 -17 q 550 47 455 -17 l 573 0 l 649 0 l 649 667 l 540 667 l 540 127 q 372 76 438 76 q 238 148 278 76 q 215 214 220 181 q 210 306 210 247 l 210 667 l 101 667 l 101 -276 l 210 -276 z "},"−":{"ha":785,"x_min":104,"x_max":681,"o":"m 681 354 l 681 451 l 104 451 l 104 354 l 681 354 z "},"×":{"ha":757,"x_min":139,"x_max":618,"o":"m 618 550 l 547 618 l 382 451 l 214 616 l 141 542 l 304 377 l 139 208 l 207 139 l 373 307 l 542 139 l 616 214 l 450 382 l 618 550 z "},"≠":{"ha":906,"x_min":139,"x_max":767,"o":"m 484 319 l 767 319 l 767 222 l 453 222 l 380 0 l 273 0 l 345 222 l 139 222 l 139 319 l 377 319 l 431 481 l 139 481 l 139 578 l 462 578 l 531 792 l 639 792 l 569 578 l 767 578 l 767 481 l 538 481 l 484 319 z "},"∂":{"ha":806,"x_min":78,"x_max":684,"o":"m 337 807 q 530 746 451 807 q 647 586 609 684 q 684 377 684 488 q 606 98 684 210 q 363 -14 528 -14 q 155 63 231 -14 q 78 253 78 139 q 149 441 78 370 q 345 512 220 512 q 566 458 457 512 q 495 645 549 573 q 340 717 441 717 q 234 697 300 717 q 128 656 168 677 l 85 743 q 209 790 141 773 q 337 807 278 807 m 366 78 q 524 161 476 78 q 573 351 573 243 l 573 361 q 377 420 476 420 q 193 253 193 420 q 237 130 193 182 q 366 78 281 78 z "},"%":{"ha":811,"x_min":17,"x_max":793,"o":"m 359 602 q 314 737 359 682 q 189 792 269 792 q 63 737 108 792 q 17 602 17 682 q 62 466 17 521 q 189 411 106 411 q 314 466 269 411 q 359 602 359 521 m 194 0 l 736 792 l 620 792 l 80 0 l 194 0 m 106 602 q 189 705 106 705 q 273 602 273 705 q 189 500 273 500 q 106 602 106 500 m 793 191 q 748 326 793 271 q 623 380 703 380 q 497 326 542 380 q 451 191 451 271 q 496 55 451 109 q 623 0 540 0 q 748 55 703 0 q 793 191 793 109 m 540 191 q 623 293 540 293 q 707 191 707 293 q 623 89 707 89 q 540 191 540 89 z "},"‰":{"ha":1210,"x_min":17,"x_max":1193,"o":"m 359 602 q 314 737 359 682 q 189 792 269 792 q 63 737 108 792 q 17 602 17 682 q 62 466 17 521 q 189 411 106 411 q 314 466 269 411 q 359 602 359 521 m 194 0 l 736 792 l 620 792 l 80 0 l 194 0 m 106 602 q 189 705 106 705 q 273 602 273 705 q 189 500 273 500 q 106 602 106 500 m 793 191 q 748 326 793 271 q 623 380 703 380 q 497 326 542 380 q 451 191 451 271 q 496 55 451 109 q 623 0 540 0 q 748 55 703 0 q 793 191 793 109 m 1193 191 q 1148 326 1193 271 q 1023 380 1102 380 q 896 326 941 380 q 851 191 851 271 q 895 55 851 109 q 1023 0 939 0 q 1148 55 1102 0 q 1193 191 1193 109 m 540 191 q 623 293 540 293 q 707 191 707 293 q 623 89 707 89 q 540 191 540 89 m 939 191 q 1023 293 939 293 q 1106 191 1106 293 q 1023 89 1106 89 q 939 191 939 89 z "},"+":{"ha":785,"x_min":104,"x_max":681,"o":"m 439 354 l 439 109 l 342 109 l 342 354 l 104 354 l 104 451 l 342 451 l 342 686 l 439 686 l 439 451 l 681 451 l 681 354 l 439 354 z "},"±":{"ha":785,"x_min":104,"x_max":681,"o":"m 681 424 l 439 424 l 439 179 l 342 179 l 342 424 l 104 424 l 104 521 l 342 521 l 342 755 l 439 755 l 439 521 l 681 521 l 681 424 m 681 97 l 681 0 l 104 0 l 104 97 l 681 97 z "},"∏":{"ha":927,"x_min":116,"x_max":811,"o":"m 116 -111 l 222 -111 l 222 731 l 707 731 l 707 -111 l 811 -111 l 811 828 l 116 828 l 116 -111 z "},"√":{"ha":729,"x_min":43,"x_max":694,"o":"m 280 425 l 43 323 l 78 234 l 212 292 l 340 -61 l 453 -61 l 694 899 l 594 915 l 391 92 l 280 425 z "},"∑":{"ha":847,"x_min":104,"x_max":764,"o":"m 764 830 l 104 830 l 104 736 l 465 352 l 104 -30 l 104 -123 l 764 -123 l 764 -31 l 234 -31 l 599 352 l 238 736 l 764 736 l 764 830 z "},"◌":{"ha":858,"x_min":35,"x_max":823,"o":"m 429 708 q 400 720 411 708 q 389 748 389 731 q 400 777 389 766 q 429 788 411 788 q 457 777 446 788 q 469 748 469 766 q 457 720 469 731 q 429 708 446 708 m 290 682 q 261 694 273 682 q 250 722 250 705 q 261 751 250 740 q 290 762 273 762 q 318 751 306 762 q 330 722 330 740 q 318 694 330 705 q 290 682 306 682 m 569 682 q 541 694 552 682 q 530 722 530 705 q 541 751 530 740 q 569 762 552 762 q 598 751 587 762 q 609 722 609 740 q 598 694 609 705 q 569 682 587 682 m 177 606 q 148 617 160 606 q 137 646 137 628 q 148 674 137 663 q 177 686 160 686 q 206 674 194 686 q 217 646 217 663 q 206 617 217 628 q 177 606 194 606 m 682 606 q 654 617 665 606 q 642 646 642 628 q 654 674 642 663 q 682 686 665 686 q 711 674 700 686 q 722 646 722 663 q 711 617 722 628 q 682 606 700 606 m 99 490 q 70 501 82 490 q 59 530 59 512 q 70 558 59 547 q 99 569 82 569 q 128 558 116 569 q 139 530 139 547 q 128 501 139 512 q 99 490 116 490 m 760 490 q 732 501 743 490 q 720 530 720 512 q 732 558 720 547 q 760 569 743 569 q 789 558 778 569 q 800 530 800 547 q 789 501 800 512 q 760 490 778 490 m 75 354 q 46 365 57 354 q 35 394 35 377 q 46 423 35 411 q 75 434 57 434 q 103 423 92 434 q 115 394 115 411 q 103 365 115 377 q 75 354 92 354 m 783 354 q 754 365 766 354 q 743 394 743 377 q 754 423 743 411 q 783 434 766 434 q 812 423 800 434 q 823 394 823 411 q 812 365 823 377 q 783 354 800 354 m 99 299 q 128 287 116 299 q 139 260 139 276 q 128 231 139 243 q 99 219 116 219 q 70 231 82 219 q 59 260 59 243 q 70 287 59 276 q 99 299 82 299 m 760 299 q 789 287 778 299 q 800 260 800 276 q 789 231 800 243 q 760 219 778 219 q 732 231 743 219 q 720 260 720 243 q 732 287 720 276 q 760 299 743 299 m 177 184 q 206 172 194 184 q 217 142 217 160 q 206 115 217 127 q 177 104 194 104 q 148 115 160 104 q 137 142 137 127 q 148 172 137 160 q 177 184 160 184 m 682 184 q 711 172 700 184 q 722 142 722 160 q 711 115 722 127 q 682 104 700 104 q 654 115 665 104 q 642 142 642 127 q 654 172 642 160 q 682 184 665 184 m 290 108 q 318 95 306 108 q 330 66 330 83 q 318 38 330 50 q 290 26 306 26 q 261 38 273 26 q 250 66 250 50 q 261 95 250 83 q 290 108 273 108 m 569 108 q 598 95 587 108 q 609 66 609 83 q 598 38 609 50 q 569 26 587 26 q 541 38 552 26 q 530 66 530 50 q 541 95 530 83 q 569 108 552 108 m 429 80 q 457 69 446 80 q 469 42 469 57 q 457 12 469 24 q 429 0 446 0 q 400 12 411 0 q 389 42 389 24 q 400 69 389 57 q 429 80 411 80 z "},"◊":{"ha":717,"x_min":61,"x_max":656,"o":"m 321 691 l 61 344 l 321 0 l 394 0 l 656 344 l 394 691 l 321 691 m 184 344 l 358 578 l 533 344 l 358 111 l 184 344 z "},"|":{"ha":521,"x_min":208,"x_max":313,"o":"m 313 -311 l 208 -311 l 208 1080 l 313 1080 l 313 -311 z "},"¦":{"ha":521,"x_min":208,"x_max":313,"o":"m 313 477 l 313 1080 l 208 1080 l 208 477 l 313 477 m 313 -309 l 313 293 l 208 293 l 208 -309 l 313 -309 z "},"@":{"ha":1387,"x_min":82,"x_max":1306,"o":"m 875 627 q 708 661 786 661 q 543 620 616 661 q 428 498 470 578 q 385 309 385 418 q 424 135 385 208 q 530 22 464 61 q 674 -17 595 -17 q 873 75 792 -17 q 1031 -17 918 -17 q 1184 50 1108 -17 q 1276 200 1247 111 q 1306 415 1306 288 q 1238 682 1306 563 q 1034 872 1170 802 q 700 943 898 943 q 388 865 530 943 q 164 646 247 786 q 82 326 82 505 q 161 -2 82 134 q 369 -206 240 -137 q 649 -274 498 -274 q 899 -234 764 -274 l 899 -142 q 684 -177 800 -177 q 439 -119 549 -177 q 266 55 330 -61 q 203 333 203 170 q 268 600 203 483 q 451 783 333 717 q 720 849 568 849 q 979 790 873 849 q 1138 628 1085 731 q 1191 391 1191 524 q 1148 149 1191 240 q 1106 97 1128 116 q 1049 78 1083 78 q 979 109 1000 78 q 958 203 958 139 l 958 655 l 885 655 l 875 627 m 507 321 q 565 507 507 438 q 722 576 623 576 q 851 550 793 576 l 851 151 q 701 80 795 80 q 555 144 602 80 q 507 321 507 208 z "},"&":{"ha":1033,"x_min":108,"x_max":950,"o":"m 691 137 q 527 10 597 50 q 359 -31 457 -31 q 180 30 252 -31 q 108 196 108 92 q 161 365 108 290 q 333 543 215 441 q 236 671 269 618 q 203 778 203 724 q 269 920 203 872 q 436 969 335 969 q 594 921 535 969 q 653 781 653 873 q 608 658 653 717 q 483 531 563 599 l 693 293 l 859 472 l 932 406 l 760 215 l 950 0 l 813 0 l 691 137 m 436 873 q 348 847 382 873 q 314 773 314 821 q 338 697 314 734 q 415 601 361 660 q 547 774 547 703 q 516 845 547 818 q 436 873 486 873 m 372 73 q 492 107 436 73 q 623 212 549 141 l 399 465 q 266 333 318 396 q 214 214 214 271 q 255 109 214 146 q 372 73 297 73 z "},"¶":{"ha":859,"x_min":54,"x_max":741,"o":"m 396 1017 q 149 951 245 1017 q 54 745 54 885 q 136 543 54 620 q 347 462 219 465 l 349 0 l 465 0 l 465 917 l 627 917 l 627 0 l 741 0 l 741 1017 l 396 1017 z "},"©":{"ha":1188,"x_min":116,"x_max":1071,"o":"m 1071 406 q 1034 596 1071 509 q 931 748 997 684 q 777 843 865 809 q 590 877 689 877 q 407 843 493 877 q 257 748 321 809 q 154 596 191 684 q 116 406 116 509 q 154 216 116 304 q 257 66 191 128 q 407 -30 321 3 q 590 -64 493 -64 q 777 -30 689 -64 q 931 66 865 3 q 1034 216 997 128 q 1071 406 1071 304 m 983 406 q 953 257 983 326 q 870 135 924 188 q 745 56 816 83 q 595 28 674 28 q 443 56 514 28 q 319 135 372 83 q 236 257 266 188 q 207 406 207 326 q 236 556 207 486 q 319 681 266 627 q 443 760 372 733 q 595 788 514 788 q 745 760 674 788 q 870 681 816 733 q 953 556 924 627 q 983 406 983 486 m 613 161 q 747 189 679 161 l 720 262 q 637 245 674 245 q 515 289 552 245 q 477 415 477 333 q 627 573 477 573 q 726 556 675 573 l 752 628 q 623 656 684 656 q 384 399 384 656 q 444 225 384 288 q 613 161 505 161 z "},"®":{"ha":957,"x_min":122,"x_max":835,"o":"m 835 703 q 808 844 835 780 q 731 957 781 908 q 618 1026 682 1002 q 479 1050 554 1050 q 338 1026 403 1050 q 226 957 273 1002 q 148 844 175 908 q 122 703 122 780 q 148 561 122 625 q 226 450 175 497 q 338 378 273 403 q 479 354 403 354 q 618 378 554 354 q 731 450 682 403 q 808 561 781 497 q 835 703 835 625 m 759 703 q 682 499 759 573 q 479 425 606 425 q 276 499 352 425 q 200 703 200 573 q 278 906 200 828 q 479 977 352 977 q 681 906 606 977 q 759 703 759 828 m 623 778 q 589 859 623 828 q 500 891 554 891 l 352 891 l 352 521 l 415 521 l 415 661 l 491 661 l 557 521 l 625 521 l 550 674 q 623 778 623 701 m 564 776 q 540 727 564 743 q 481 712 516 712 l 415 712 l 415 833 l 498 833 q 547 818 530 833 q 564 776 564 802 z "},"§":{"ha":740,"x_min":95,"x_max":644,"o":"m 415 856 q 576 830 476 856 l 608 915 q 511 939 556 931 q 401 948 467 948 q 200 894 278 948 q 122 741 122 840 q 177 620 122 670 q 120 490 120 566 q 198 351 120 396 q 363 286 250 323 q 405 273 391 276 q 490 234 462 253 q 517 175 517 215 q 470 99 517 120 q 335 78 424 78 q 132 120 240 78 l 95 31 q 342 -16 214 -16 q 560 31 476 -16 q 644 175 644 78 q 589 302 644 247 q 644 441 644 358 q 614 528 644 491 q 538 587 583 564 q 345 658 462 622 q 271 695 302 672 q 240 755 240 719 q 291 832 240 809 q 415 856 342 856 m 236 510 q 247 543 236 528 q 274 568 257 559 l 387 531 q 517 427 517 495 q 488 358 517 384 q 391 390 460 366 q 295 427 323 413 q 251 462 266 444 q 236 510 236 479 z "},"™":{"ha":962,"x_min":49,"x_max":865,"o":"m 391 891 l 391 955 l 49 955 l 49 891 l 179 891 l 179 575 l 259 575 l 259 891 l 391 891 m 790 575 l 865 575 l 865 955 l 762 955 l 660 757 l 557 955 l 455 955 l 455 575 l 533 575 l 533 863 l 634 665 l 688 665 l 790 863 l 790 575 z "},"°":{"ha":411,"x_min":26,"x_max":385,"o":"m 26 656 q 78 531 26 583 q 205 477 132 477 q 333 531 280 477 q 385 656 385 583 q 333 785 385 733 q 205 837 281 837 q 77 785 128 837 q 26 656 26 733 m 113 656 q 139 726 113 698 q 205 753 165 753 q 273 726 245 753 q 300 656 300 698 q 273 590 300 616 q 205 564 245 564 q 139 590 165 564 q 113 656 113 616 z "},"℮":{"ha":806,"x_min":69,"x_max":736,"o":"m 69 453 q 168 215 69 306 q 273 149 214 172 q 401 127 333 127 q 684 217 559 127 l 660 253 q 401 172 542 172 q 267 208 328 172 q 181 280 222 234 l 181 444 l 727 444 l 736 453 q 639 736 736 635 q 532 806 594 783 q 401 830 470 830 q 165 736 253 830 q 69 453 69 635 m 181 661 q 401 788 248 788 q 622 661 554 788 l 623 486 l 181 486 l 181 661 z "},"ℓ":{"ha":500,"x_min":7,"x_max":458,"o":"m 458 47 q 435 32 453 43 q 392 10 417 21 q 285 -16 333 -16 q 183 29 219 -16 q 148 148 148 73 l 148 200 l 73 115 l 7 182 l 148 340 l 148 658 q 165 823 148 764 q 217 905 182 882 q 307 929 252 929 q 408 892 370 929 q 451 773 451 849 q 432 658 451 715 q 378 530 413 601 q 307 405 333 446 q 252 307 276 352 l 252 184 q 268 111 252 134 q 330 89 285 89 q 385 99 361 89 q 438 125 410 109 l 458 47 m 264 790 q 252 622 252 747 l 252 486 q 347 774 347 663 q 339 816 347 802 q 307 830 330 830 q 280 821 290 830 q 264 790 271 813 z "},"^":{"ha":675,"x_min":95,"x_max":580,"o":"m 580 774 l 339 1038 l 95 774 l 168 707 l 339 891 l 507 707 l 580 774 z "},"†":{"ha":632,"x_min":115,"x_max":517,"o":"m 354 783 l 517 776 l 517 859 l 354 851 l 363 1017 l 266 1017 l 274 851 l 115 859 l 115 776 l 274 783 l 266 101 l 363 101 l 354 783 z "},"‡":{"ha":632,"x_min":115,"x_max":517,"o":"m 115 859 l 115 776 l 274 783 q 266 429 266 580 q 274 73 266 276 l 115 80 l 115 -3 l 274 3 l 266 -161 l 363 -161 l 354 3 l 517 -3 l 517 80 l 354 73 q 365 429 365 255 q 354 783 365 601 l 517 776 l 517 859 l 354 851 l 363 1017 l 266 1017 l 274 851 l 115 859 z "}," ":{"ha":382,"x_min":0,"x_max":0,"o":""},"‍":{"ha":0,"x_min":0,"x_max":0,"o":""},"‌":{"ha":0,"x_min":0,"x_max":0,"o":""}}}
